<svg width="875" height="1037" viewBox="0 0 875 1037" fill="none" xmlns="http://www.w3.org/2000/svg">
<path fill-rule="evenodd" clip-rule="evenodd" d="M807.036 71.0221C918.944 42.3921 1002.31 -109.175 1113.45 -77.729C1213.61 -49.3922 1199.87 105.942 1250.93 196.61C1301.31 286.061 1394.46 351.693 1412.26 452.793C1431.06 559.654 1433.15 695.64 1351.29 766.896C1263.39 843.412 1115.48 754.816 1009.52 803.372C918.922 844.893 900.53 981.797 807.036 1016.32C707.435 1053.1 591.16 1037.95 494.76 993.459C395.071 947.447 320.838 860.114 264.492 765.908C207.625 670.833 166.602 563.463 171.378 452.793C176.071 344.057 212.535 230.495 290.862 154.897C365.077 83.2667 477.689 75.4177 579.516 58.8715C655.78 46.4792 732.185 90.1719 807.036 71.0221Z" fill="#E5E3FF"/>
<path d="M161.416 386.358L156 415.544L183 423.358L179.645 392.198L161.416 386.358Z" fill="#A0616A"/>
<path d="M0 981.858C0 982.69 0.726345 983.358 1.63084 983.358H717.369C718.274 983.358 719 982.69 719 981.858C719 981.026 718.274 980.358 717.369 980.358H1.63084C0.726345 980.358 0 981.026 0 981.858Z" fill="#3F3D56"/>
<path d="M487.91 591.349H206.065C174.103 591.349 148.193 617.241 148.193 649.18V922.291C148.193 954.231 174.103 980.122 206.065 980.122H487.91C519.872 980.122 545.782 954.23 545.782 922.291V649.18C545.782 617.241 519.872 591.349 487.91 591.349V591.349V591.349Z" fill="white"/>
<path d="M487.91 981.491H206.064C173.398 981.491 146.822 954.934 146.822 922.291V649.181C146.822 616.537 173.398 589.98 206.064 589.98H487.91C520.575 589.98 547.151 616.537 547.151 649.181V922.291C547.151 954.934 520.575 981.491 487.91 981.491H487.91ZM206.064 592.719C174.909 592.719 149.563 618.047 149.563 649.181V922.291C149.563 953.424 174.909 978.752 206.064 978.752H487.91C519.065 978.752 544.411 953.424 544.411 922.291V649.181C544.411 618.047 519.064 592.719 487.91 592.719H206.064V592.719V592.719Z" fill="#3F3D56"/>
<path d="M508.325 709.752H395.039C390.234 709.752 386.324 705.846 386.324 701.044C386.324 696.242 390.234 692.336 395.039 692.336H508.325C513.13 692.336 517.04 696.242 517.04 701.044C517.04 705.846 513.13 709.752 508.325 709.752H508.325V709.752Z" fill="#6C63FF"/>
<path d="M402.048 778.234H291.928C289.152 778.234 286.893 775.977 286.893 773.203C286.893 770.428 289.152 768.172 291.928 768.172H402.048C404.824 768.172 407.082 770.428 407.082 773.203C407.082 775.977 404.824 778.234 402.048 778.234V778.234Z" fill="#6C63FF"/>
<path d="M246.403 610.053H183.533C183.298 610.053 183.107 610.243 183.107 610.478V617.792C183.107 618.026 183.298 618.216 183.533 618.216H246.403C246.637 618.216 246.828 618.026 246.828 617.792V610.478C246.828 610.243 246.637 610.053 246.403 610.053Z" fill="#6C63FF"/>
<path d="M458.17 618.216C461.78 618.216 464.706 615.292 464.706 611.685C464.706 608.079 461.78 605.155 458.17 605.155C454.561 605.155 451.635 608.079 451.635 611.685C451.635 615.292 454.561 618.216 458.17 618.216Z" fill="#3F3D56"/>
<path d="M476.143 618.216C479.752 618.216 482.678 615.292 482.678 611.685C482.678 608.079 479.752 605.155 476.143 605.155C472.533 605.155 469.607 608.079 469.607 611.685C469.607 615.292 472.533 618.216 476.143 618.216Z" fill="#3F3D56"/>
<path d="M494.116 618.216C497.725 618.216 500.651 615.292 500.651 611.685C500.651 608.079 497.725 605.155 494.116 605.155C490.506 605.155 487.58 608.079 487.58 611.685C487.58 615.292 490.506 618.216 494.116 618.216Z" fill="#3F3D56"/>
<path d="M205.377 805.167C205.377 806.071 206.103 806.797 207.008 806.797H486.964C487.868 806.797 488.595 806.071 488.595 805.167C488.595 804.264 487.868 803.538 486.964 803.538H207.008C206.103 803.538 205.377 804.264 205.377 805.167V805.167Z" fill="#3F3D56"/>
<path d="M290.761 403.2C296.721 398.278 304.093 397.362 307.226 401.153C310.36 404.944 308.068 412.005 302.105 416.927C299.75 418.926 296.951 420.333 293.94 421.029L268.424 441.562L259.037 429.391L285.188 410.441C286.44 407.617 288.351 405.134 290.761 403.2H290.761V403.2Z" fill="#A0616A"/>
<path d="M143.278 449.528C143.265 448.62 143.274 440.699 149.142 435.692C155.883 429.941 165.395 432.269 168.731 433.086C176.437 434.972 177.069 438.275 184.307 441.67C197.847 448.02 180.881 444.77 188.938 442.733C191.727 442.028 231.848 439.248 241.835 433.105C261.258 421.159 274.492 413.915 274.492 413.915L283.144 431.206C283.144 431.206 270.634 448.589 253.027 461.467C234.966 474.676 225.936 481.281 212.212 483.833C211.03 484.053 181.964 489.012 158.554 471.534C153.215 467.548 143.431 460.243 143.278 449.528V449.528V449.528Z" fill="#A59FFF"/>
<path d="M170.117 405.553C186.762 405.553 200.255 392.068 200.255 375.435C200.255 358.801 186.762 345.317 170.117 345.317C153.472 345.317 139.979 358.801 139.979 375.435C139.979 392.068 153.472 405.553 170.117 405.553Z" fill="#A0616A"/>
<path d="M406.151 577.777L375.112 546.027L359.09 562.729L382.215 593.171L405.152 595.792L406.151 577.777Z" fill="#A0616A"/>
<path d="M228.919 518.239C230.734 518.39 236.503 519.545 242.018 516.513C245.781 514.444 247.711 511.368 248.363 510.389C256.45 498.252 287.49 479.324 315.348 478.159C321.657 477.896 325.81 478.626 329.584 480.592C334.936 483.38 337.072 487.373 343.864 496.728C347.579 501.845 351.689 506.666 355.449 511.75C377.46 541.517 385.804 543.854 384.951 553.396C384.005 563.984 372.578 574.03 364.983 572.87C361.873 572.395 360.669 570.234 356.513 565.859C344.329 553.03 339.288 555.4 330.613 545.574C320.485 534.103 321.811 524.591 316.527 524.223C311.627 523.882 309.545 531.997 299.083 542.777C294.296 547.709 290.888 549.972 280.503 557.171C240.062 585.208 239.416 587.178 231.255 589.414C227.684 590.392 202.341 597.336 193.312 586.286C179.184 568.995 212.561 516.881 228.919 518.239L228.919 518.239V518.239Z" fill="#2F2E41"/>
<path d="M396.66 584.951C398.943 583.927 401.612 582.729 402.471 579.975C403.052 578.111 402.717 575.813 401.516 574.225C400.131 572.393 398.079 572.152 398.162 571.828C398.289 571.334 403.139 571.527 408.464 573.408C409.469 573.763 414.02 575.425 419.811 579.942C424.45 583.562 423.826 584.287 426.735 586.374C435.665 592.78 444.04 587.731 448.872 593.739C450.737 596.057 451.533 599.349 450.748 602.011C449.172 607.356 441.507 609.196 437.319 610.145C427.231 612.433 419.595 610.565 411.622 609.223C384.506 604.657 369.271 608.815 367.232 602.538C366.846 601.35 367.473 601.451 369.564 592.732C371.628 584.127 371.56 581.764 373.317 581.075C375.963 580.037 377.739 584.756 384.403 586.371C390.308 587.801 395.181 585.615 396.66 584.951L396.66 584.951V584.951Z" fill="#2F2E41"/>
<path d="M350.967 681.641L343.125 637.953L320.482 642.782L322.511 680.948L340.017 695.988L350.967 681.641Z" fill="#A0616A"/>
<path d="M237.774 532.924C239.191 534.068 243.316 538.261 249.582 538.846C253.859 539.246 257.184 537.783 258.274 537.34C271.786 531.834 308.106 533.591 331.812 548.26C337.18 551.582 340.205 554.516 342.224 558.261C345.086 563.571 344.61 568.075 344.972 579.626C345.171 585.945 345.863 592.24 346.117 598.557C347.604 635.539 353.195 642.155 347.127 649.573C340.394 657.803 325.294 659.703 319.662 654.481C317.355 652.343 317.573 649.879 316.593 643.927C313.72 626.474 308.217 625.607 306.56 612.609C304.626 597.433 311.068 590.306 306.902 587.037C303.039 584.005 296.756 589.551 282.043 592.601C275.31 593.996 271.218 593.955 258.58 594.085C209.362 594.59 207.721 595.858 199.712 593.129C196.207 591.935 171.335 583.458 170.074 569.249C168.1 547.013 225.001 522.621 237.774 532.924L237.774 532.924V532.924Z" fill="#2F2E41"/>
<path d="M339.083 682.253C341.548 682.686 344.429 683.193 346.688 681.396C348.216 680.18 349.23 678.091 349.129 676.103C349.011 673.809 347.45 672.458 347.701 672.237C348.083 671.899 351.988 674.781 355.337 679.325C355.969 680.183 358.801 684.112 361.054 691.099C362.859 696.697 361.934 696.947 363.169 700.307C366.958 710.618 376.726 711.141 377.348 718.823C377.588 721.788 376.397 724.958 374.252 726.72C369.944 730.259 362.568 727.48 358.569 725.915C348.936 722.147 343.667 716.317 337.824 710.732C317.953 691.738 303.01 686.63 304.851 680.292C305.199 679.092 305.661 679.528 312.29 673.486C318.833 667.524 320.105 665.53 321.946 665.946C324.718 666.573 323.537 671.474 328.143 676.549C332.226 681.047 337.486 681.972 339.083 682.253H339.083V682.253Z" fill="#2F2E41"/>
<path d="M174.224 381.193C175.397 376.998 173.924 375.47 175.426 373.587C175.426 373.587 176.03 372.83 181.434 370.785C179.84 361.541 181.034 359.978 181.034 359.978C182.409 358.176 185.165 357.741 187.042 357.977C191.01 358.475 191.713 362.06 194.252 361.979C197.759 361.868 201.966 354.852 200.661 348.77C199.595 343.809 195.003 340.125 193.851 340.765C192.71 341.398 188.6 338.604 187.042 339.164C185.978 339.546 180.968 339.037 179.832 339.564C178.591 340.139 175.039 343.72 174.699 343.269C172.339 340.133 172.389 339.039 171.02 338.363C168.593 337.166 165.955 339.379 161.406 341.565C152.047 346.064 149.307 343.38 144.984 347.169C142.8 349.083 141.629 352.741 139.376 359.978C136.225 370.099 134.65 375.16 136.172 379.992C137.723 384.919 140.009 383.847 143.382 390.799C147.136 398.538 145.842 403.037 149.39 404.809C152.132 406.179 156.538 405.307 158.202 402.808C161.05 398.528 153.688 392.74 156.199 385.996C157.741 381.856 162.496 378.717 165.412 379.591C168.709 380.58 168.952 386.488 171.02 386.396C172.79 386.318 174.02 381.923 174.224 381.193L174.224 381.193L174.224 381.193Z" fill="#2F2E41"/>
<path d="M151.391 410.013C157.559 403.102 182.68 410.255 185.038 421.22C186.008 425.731 182.427 427.635 183.436 432.828C184.91 440.424 193.26 439.906 199.458 447.639C208.257 458.616 199.192 469.347 209.071 487.666C211.182 491.581 212.961 494.88 216.682 498.073C225.218 505.401 233.163 502.888 237.51 509.681C240.761 514.762 239.425 521.023 239.113 522.49C237.83 528.505 234.353 529.97 231.903 534.899C227.826 543.098 232.442 549.118 232.704 558.915C233.032 571.173 226.513 588.165 213.477 593.739C198.832 600.003 181.168 589.629 172.621 579.329C167.52 573.183 166.04 567.514 163.808 560.517C153.836 529.242 148.202 532.071 140.576 507.28C131.858 478.939 130.145 445.736 140.576 435.23C141.959 433.837 145.764 430.619 148.187 424.823C151.447 417.024 148.631 413.106 151.391 410.012H151.391V410.013Z" fill="#A59FFF"/>
<path d="M242.523 570.876C247.304 576.947 248.045 584.334 244.179 587.374C240.312 590.414 233.302 587.957 228.519 581.883C226.576 579.483 225.235 576.653 224.611 573.629L204.676 547.649L214.977 539.798L235.411 565.137C238.206 566.455 240.645 568.423 242.523 570.876H242.523H242.523Z" fill="#A0616A"/>
<path d="M169.513 436.348C170.4 436.15 178.162 434.543 184.264 439.262C191.273 444.683 190.933 454.463 190.814 457.893C190.539 465.817 187.432 467.109 185.583 474.882C182.125 489.424 188.711 502.938 192.35 510.404C193.61 512.989 197.656 520.897 205.711 529.414C221.378 545.977 235.356 554.693 235.356 554.693L220.339 568.032C220.339 568.032 196.419 560.746 180.211 546.149C163.586 531.176 138.018 478.199 132.718 465.294C132.261 464.183 138.727 482.251 151.072 455.783C153.888 449.746 159.047 438.684 169.513 436.348Z" fill="#A59FFF"/>
<path d="M375.411 842.473C365.866 843.935 358.884 850.042 359.816 856.112C360.748 862.182 369.24 865.916 378.788 864.452C382.61 863.919 386.249 862.48 389.401 860.254L429.764 853.549L427.07 837.606L386.798 843.3C383.123 842.12 379.218 841.836 375.411 842.473H375.411V842.473Z" fill="#FFB6B6"/>
<path d="M549.347 792.774L533.696 825.963L455.016 852.431L389.727 855.912L388.092 840.241L458.85 825.457L531.456 791.169L549.347 792.774Z" fill="#E6E6E6"/>
<path d="M404.232 918.791L390.18 954.309L371.996 941.919L382.741 904.749L404.232 918.791Z" fill="#FFB6B6"/>
<path d="M345.547 905.575L308.352 941.093L323.23 956.786L361.251 927.051L345.547 905.575Z" fill="#FFB6B6"/>
<path d="M556.318 789.937L555.905 787.046L546.399 768.462L514.99 776.721L520.776 802.327L556.318 789.937Z" fill="#FFB6B6"/>
<path d="M543.094 913.835L544.059 926.241C544.059 926.241 548.053 978.262 515.817 982.392C483.581 986.522 469.53 990.652 450.519 958.439L420.763 905.575L403.383 926.241L380.262 908.053C380.262 908.053 396.793 843.626 410.018 841.148C411.671 840.839 413.324 840.684 414.951 840.65C425.9 840.422 436.221 845.774 442.771 854.543L480.275 904.749L493.913 898.554L543.094 913.835V913.835V913.835Z" fill="#2F2E41"/>
<path d="M364.558 952.657L371.997 938.615L393.487 953.483C393.487 953.483 398.447 971.654 391.008 974.132C383.569 976.61 362.905 973.306 362.905 973.306C362.905 973.306 324.883 981.566 324.057 974.132C323.23 966.698 341.414 965.046 341.414 965.046L364.558 952.657L364.558 952.657H364.558Z" fill="#2F2E41"/>
<path d="M445.56 942.745L388.114 906.574L358.771 932.833L338.934 909.705C338.934 909.705 375.302 856.016 386.047 853.538C396.793 851.06 414.15 849.408 414.15 849.408L467.05 898.141L445.56 942.745V942.745V942.745Z" fill="#2F2E41"/>
<path d="M307.524 937.789L326.535 958.438L324.028 960.581C324.028 960.581 319.096 982.047 307.524 974.786C295.952 967.524 295.126 965.872 295.126 965.872C295.126 965.872 262.063 973.306 258.757 960.09C255.451 946.875 264.543 949.353 264.543 949.353L272.799 954.308L307.524 937.789L307.524 937.789V937.789Z" fill="#2F2E41"/>
<path d="M524.909 785.807C539.517 785.807 551.359 773.974 551.359 759.376C551.359 744.778 539.517 732.944 524.909 732.944C510.301 732.944 498.459 744.778 498.459 759.376C498.459 773.974 510.301 785.807 524.909 785.807Z" fill="#FFB6B6"/>
<path d="M518.708 796.958L556.73 785.394C556.73 785.394 571.608 820.086 569.128 835.779C566.648 851.473 544.057 926.241 544.057 926.241L493.911 898.554C493.911 898.554 493.085 882.035 490.605 874.601C488.125 867.167 480.273 844.452 497.631 825.455C514.989 806.457 518.708 796.958 518.708 796.958L518.708 796.958V796.958Z" fill="#E6E6E6"/>
<path d="M435.025 970.4C428.837 977.808 427.647 987.003 432.365 990.938C437.084 994.872 445.923 992.056 452.112 984.644C454.625 981.718 456.4 978.232 457.289 974.479L483.11 942.76L470.532 932.588L444.11 963.49C440.573 965.035 437.458 967.405 435.025 970.4L435.025 970.4V970.4Z" fill="#FFB6B6"/>
<path d="M547.872 813.622L556.859 849.195L512.874 919.555L467.972 964.652L453.418 952.587L498.703 896.28L533.028 823.731L547.872 813.622Z" fill="#E6E6E6"/>
<path d="M500.526 754.833C507.309 754.817 507.694 754.862 508.791 754.833C517.205 754.611 519.405 751.303 523.669 751.529C531.281 751.932 521.235 790.066 517.057 807.696C512.959 824.986 526.807 840.48 527.802 841.561C541.858 856.837 566.547 859.63 570.783 853.125C574.212 847.86 562.059 839.854 564.997 828.346C567.869 817.096 581.128 818.294 584.834 807.696C588.716 796.597 575.672 791 567.477 763.919C562.77 748.366 563.603 745.468 559.211 735.835C547.472 710.087 489.933 721.05 496.393 744.921C497.642 749.539 494.317 754.848 500.526 754.833V754.833V754.833Z" fill="#2F2E41"/>
<path d="M584.986 441.056H307.003C299.142 441.056 292.746 434.665 292.746 426.809V279.247C292.746 271.392 299.142 265 307.003 265H584.986C592.848 265 599.243 271.392 599.243 279.247V426.809C599.243 434.665 592.848 441.056 584.986 441.056V441.056Z" fill="white"/>
<path d="M584.986 441.056H307.003C299.142 441.056 292.746 434.665 292.746 426.809V279.247C292.746 271.392 299.142 265 307.003 265H584.986C592.848 265 599.243 271.392 599.243 279.247V426.809C599.243 434.665 592.848 441.056 584.986 441.056V441.056ZM307.003 267.379C300.455 267.379 295.127 272.703 295.127 279.247V426.809C295.127 433.353 300.455 438.677 307.003 438.677H584.986C591.535 438.677 596.862 433.353 596.862 426.809V279.247C596.862 272.703 591.535 267.379 584.986 267.379H307.003V267.379Z" fill="#3F3D56"/>
<path d="M563.532 282.844C565.504 282.844 567.103 281.246 567.103 279.275C567.103 277.304 565.504 275.706 563.532 275.706C561.56 275.706 559.961 277.304 559.961 279.275C559.961 281.246 561.56 282.844 563.532 282.844Z" fill="#3F3D56"/>
<path d="M573.054 282.844C575.026 282.844 576.625 281.246 576.625 279.275C576.625 277.304 575.026 275.706 573.054 275.706C571.081 275.706 569.482 277.304 569.482 279.275C569.482 281.246 571.081 282.844 573.054 282.844Z" fill="#3F3D56"/>
<path d="M582.577 282.844C584.549 282.844 586.148 281.246 586.148 279.275C586.148 277.304 584.549 275.706 582.577 275.706C580.605 275.706 579.006 277.304 579.006 279.275C579.006 281.246 580.605 282.844 582.577 282.844Z" fill="#3F3D56"/>
<path d="M312.983 336.969C311.998 336.969 311.197 337.769 311.197 338.753C311.197 339.233 311.383 339.677 311.719 340.004C312.059 340.352 312.503 340.538 312.983 340.538H580.197C581.182 340.538 581.982 339.737 581.982 338.753C581.982 338.273 581.797 337.83 581.46 337.502C581.121 337.155 580.676 336.969 580.197 336.969H312.983Z" fill="#E6E6E6"/>
<path d="M546.865 336.374V341.132H312.982C312.328 341.132 311.732 340.871 311.304 340.431C310.863 340.002 310.602 339.408 310.602 338.753C310.602 337.445 311.673 336.374 312.982 336.374H546.865V336.374Z" fill="#6C63FF"/>
<path d="M577.222 327.452H553.414C550.788 327.452 548.652 325.318 548.652 322.694C548.652 320.07 550.788 317.936 553.414 317.936H577.222C579.847 317.936 581.983 320.07 581.983 322.694C581.983 325.318 579.847 327.452 577.222 327.452Z" fill="#E6E6E6"/>
<path d="M421.279 302.471H314.767C312.142 302.471 310.006 300.337 310.006 297.713C310.006 295.089 312.142 292.955 314.767 292.955H421.279C423.904 292.955 426.04 295.089 426.04 297.713C426.04 300.337 423.904 302.471 421.279 302.471Z" fill="#E6E6E6"/>
<path d="M312.983 390.5C311.998 390.5 311.197 391.3 311.197 392.284C311.197 392.764 311.383 393.207 311.719 393.535C312.059 393.882 312.503 394.068 312.983 394.068H580.197C581.182 394.068 581.982 393.268 581.982 392.284C581.982 391.804 581.797 391.36 581.46 391.033C581.121 390.685 580.676 390.5 580.197 390.5H312.983Z" fill="#E6E6E6"/>
<path d="M455.205 389.905V394.663H312.982C312.328 394.663 311.732 394.401 311.304 393.961C310.863 393.533 310.602 392.938 310.602 392.284C310.602 390.975 311.673 389.905 312.982 389.905H455.205V389.905Z" fill="#6C63FF"/>
<path d="M577.222 380.983H553.414C550.788 380.983 548.652 378.849 548.652 376.225C548.652 373.6 550.788 371.466 553.414 371.466H577.222C579.847 371.466 581.983 373.6 581.983 376.225C581.983 378.849 579.847 380.983 577.222 380.983Z" fill="#E6E6E6"/>
</svg>
