<svg width="715" height="810" viewBox="0 0 715 810" fill="none" xmlns="http://www.w3.org/2000/svg">
<path fill-rule="evenodd" clip-rule="evenodd" d="M615.321 19.4852C708.101 -3.94444 777.213 -127.981 869.364 -102.246C952.401 -79.0567 941.005 48.0617 983.343 122.261C1025.11 195.464 1102.34 249.174 1117.09 331.91C1132.68 419.36 1134.42 530.646 1066.55 588.959C993.676 651.576 871.04 579.072 783.197 618.809C708.083 652.788 692.834 764.825 615.321 793.078C532.744 823.177 436.343 810.78 356.421 774.368C273.771 736.714 212.226 665.244 165.511 588.15C118.365 510.344 84.3534 422.477 88.3134 331.91C92.2041 242.925 122.436 149.991 187.375 88.1246C248.904 29.5056 342.268 23.0823 426.69 9.5416C489.918 -0.599716 553.263 35.1565 615.321 19.4852Z" fill="#E5E3FF"/>
<g clip-path="url(#clip0_107_2)">
<path d="M617.576 682.409H473.022V677.969C473.022 674.113 474.552 670.416 477.275 667.69C479.999 664.964 483.692 663.433 487.544 663.433H603.054C606.906 663.433 610.599 664.964 613.323 667.69C616.046 670.416 617.576 674.113 617.576 677.969V682.409V682.409Z" fill="#E6E6E6"/>
<path d="M541.917 664.319L546.312 662.547C500.316 548.268 504.748 404.096 543.629 280.422C548.248 266.092 548.581 250.724 544.588 236.208C540.594 221.691 532.448 208.66 521.152 198.717C498.584 178.558 467.471 173.648 439.949 185.9C412.783 197.995 409.039 219.064 409.039 240.031H413.779C413.779 217.65 418.557 200.617 441.876 190.234C467.67 178.752 496.837 183.357 517.996 202.257C528.606 211.595 536.257 223.835 540.008 237.469C543.759 251.104 543.446 265.538 539.108 278.997C499.778 404.099 495.606 549.262 541.917 664.319Z" fill="#6C63FF"/>
<path d="M412.592 310.005C421.754 310.005 429.18 302.571 429.18 293.401C429.18 284.23 421.754 276.797 412.592 276.797C403.431 276.797 396.004 284.23 396.004 293.401C396.004 302.571 403.431 310.005 412.592 310.005Z" fill="#F8FA98"/>
<path d="M387.045 322.346V290.885H391.933V322.346C393.335 322.914 394.495 323.952 395.217 325.282C395.938 326.613 396.174 328.153 395.885 329.639C395.596 331.124 394.8 332.463 393.633 333.426C392.466 334.389 391.001 334.915 389.489 334.915C387.977 334.915 386.512 334.389 385.345 333.426C384.178 332.463 383.382 331.124 383.093 329.639C382.804 328.153 383.04 326.613 383.761 325.282C384.483 323.952 385.643 322.914 387.045 322.346Z" fill="#F8FA98"/>
<path d="M363.42 266.715C363.428 259.483 366.302 252.55 371.411 247.436C376.52 242.322 383.447 239.446 390.672 239.437H435.697C442.925 239.437 449.856 242.311 454.967 247.427C460.078 252.542 462.949 259.481 462.949 266.715C462.949 273.95 460.078 280.888 454.967 286.004C449.856 291.119 442.925 293.993 435.697 293.993H390.672C383.447 293.985 376.52 291.109 371.411 285.995C366.302 280.881 363.428 273.947 363.42 266.715V266.715Z" fill="#6C63FF"/>
<path d="M299.981 435.638C304.502 377.746 327.615 350.164 312.815 332.866C298.639 316.298 258.706 319.72 233.06 335.619C163.887 378.502 138.545 549.418 227.559 632.923C312.146 712.274 472.453 686.86 508.079 621.912C516.392 606.758 522.995 580.192 510.829 564.103C480.625 524.159 370.808 596.508 321.983 551.256C293.047 524.438 297.5 467.409 299.981 435.638Z" fill="#3F3D56"/>
<path d="M352.859 406.877C351.179 407.651 349.866 409.05 349.201 410.777C348.536 412.504 348.57 414.423 349.297 416.125C349.45 416.469 349.632 416.799 349.839 417.113L334.992 436.956L342.401 448.04L359.803 418.656C361.036 417.694 361.916 416.35 362.306 414.834C362.696 413.318 362.573 411.716 361.957 410.278C361.599 409.462 361.084 408.726 360.442 408.11C359.799 407.494 359.041 407.011 358.212 406.688C357.383 406.365 356.499 406.208 355.609 406.228C354.719 406.247 353.842 406.441 353.028 406.8C352.971 406.825 352.915 406.851 352.859 406.877Z" fill="#FFB6B6"/>
<path d="M352.848 441.09C353.819 441.952 351.124 443.017 348.273 441.337C347.457 440.851 347.109 440.649 347.017 440.778C346.788 441.099 348.127 443.466 347.769 448.724C347.549 451.862 342.342 457.763 336.429 463.516C328.435 471.297 319.14 478.803 319.14 478.803L315.876 476.188L281.654 448.724L275.879 440.723C276.408 437.563 277.202 434.453 278.253 431.427C279.701 427.239 281.422 423.15 283.405 419.186C284.469 417.03 285.56 414.975 286.605 413.084L304.939 433.308L320.304 450.247C320.304 450.247 324.777 443.035 328.243 441.071C328.685 440.789 329.187 440.616 329.709 440.567C333.211 440.401 333.422 438.493 329.361 434.336C325.3 430.179 330.424 434.061 334.036 432.941C337.648 431.822 334.036 432.941 334.797 430.143C335.558 427.344 345.688 421.728 345.688 421.728L346.11 422.104L353.764 428.867L355.956 430.803C355.956 430.803 353.563 437.373 352.903 438.759C352.243 440.145 351.885 440.218 352.848 441.09Z" fill="#6C63FF"/>
<path d="M554.636 568.559L555.009 558.438L516.184 552.181L515.633 567.118L554.636 568.559Z" fill="#FFB6B6"/>
<path d="M547.587 571.606L547.219 555.401L554.14 555.656L565.314 540.675C565.866 539.935 566.64 539.391 567.522 539.122C568.405 538.853 569.35 538.874 570.22 539.181C571.09 539.488 571.839 540.066 572.358 540.829C572.877 541.593 573.138 542.502 573.104 543.425L572.395 562.676L565.426 565.741L572.225 567.29L571.957 574.548L547.587 571.606Z" fill="#2F2E41"/>
<path d="M336.123 572.5L459.096 575.621C459.096 575.621 512.2 578.691 524.66 570.578L537.799 568.918L538.511 549.6C538.511 549.6 530.476 549.659 525.857 547.505C521.238 545.35 524.448 542.714 520.044 545.306C515.64 547.898 516.105 548.21 512.7 547.019C509.294 545.827 353.143 522.004 353.143 522.004L336.123 572.5Z" fill="#2F2E41"/>
<path d="M498.168 564.117L505.32 556.951L481.109 525.933L470.555 536.509L498.168 564.117Z" fill="#FFB6B6"/>
<path d="M490.932 557.883L501.673 545.752L506.573 550.651L524.945 547.275C525.852 547.108 526.789 547.236 527.618 547.64C528.448 548.044 529.127 548.703 529.556 549.52C529.985 550.337 530.142 551.271 530.004 552.184C529.865 553.097 529.439 553.941 528.787 554.595L515.186 568.224L507.995 565.728L511.927 571.491L506.799 576.63L490.932 557.883Z" fill="#2F2E41"/>
<path d="M287.607 505.088L288.83 533.533C290.269 567.02 327.112 587.287 355.681 569.803C356.207 569.481 356.736 569.147 357.266 568.801C357.266 568.801 368.096 565.89 367.768 561.28C367.439 556.669 370.085 554.425 372.426 555.682C374.768 556.94 405.425 513.39 405.425 513.39C405.425 513.39 469.121 545.193 483.173 552.679C483.173 552.679 496.384 532.003 495.426 532.22C494.468 532.436 416.627 477.902 416.627 477.902C416.627 477.902 403.945 465.056 388.215 473.538C387.887 474.784 388.167 474.827 388.167 474.827L336.203 517.21L328.86 503.253L287.607 505.088Z" fill="#2F2E41"/>
<path d="M336.602 469.526C336.503 470.84 336.316 472.146 336.042 473.435C335.668 475.301 335.065 477.113 334.246 478.831C334.246 478.831 334.246 480.749 330.579 487.172C326.912 493.595 331.495 490.842 334.246 495.614C336.996 500.376 334.246 498.183 331.193 501.248C330.314 502.14 329.69 503.251 329.385 504.466C329.08 505.681 329.106 506.956 329.46 508.157C329.46 508.157 290.077 508.185 282.744 505.432C275.41 502.679 273.741 487.172 280.314 485.639C286.878 484.107 278.325 482.584 274.465 479.051C270.606 475.518 278.325 469.737 278.325 469.737C278.325 469.737 275.144 464.241 275.41 445.788C275.447 444.091 275.603 442.398 275.877 440.723C276.406 437.563 277.2 434.453 278.251 431.427C279.7 427.239 281.421 423.15 283.404 419.186C284.467 417.03 285.558 414.975 286.603 413.084C286.768 412.791 286.924 412.506 287.089 412.222C289.078 408.698 290.893 405.817 292.094 403.973C293.02 402.541 293.579 401.734 293.579 401.734L300.253 390.117L322.53 400.568L321.265 417.663L325.106 430.556L326.875 436.493L328.241 441.071L330.349 448.164C330.349 448.164 329.772 448.192 330.459 449.137C333.626 453.351 335.678 458.297 336.427 463.516C336.691 465.508 336.75 467.522 336.602 469.526V469.526Z" fill="#6C63FF"/>
<path d="M400.935 471.369L400.517 471.233L347.199 454.048L366.847 389.529C367.238 388.244 367.915 387.065 368.828 386.081C369.741 385.096 370.865 384.332 372.116 383.845C373.366 383.359 374.711 383.163 376.048 383.272C377.386 383.381 378.681 383.793 379.836 384.476L413.909 404.626C416.606 406.219 418.658 408.71 419.706 411.664C420.754 414.618 420.732 417.847 419.644 420.786L400.935 471.369Z" fill="#2F2E41"/>
<path d="M401.15 475.47L347.402 458.146L367.05 393.628C367.441 392.343 368.119 391.164 369.031 390.179C369.944 389.195 371.068 388.43 372.319 387.944C373.569 387.457 374.914 387.261 376.252 387.371C377.589 387.48 378.884 387.892 380.039 388.575L415.739 406.415C421.102 409.586 420.976 417.793 418.486 424.527L401.15 475.47Z" fill="#6C63FF"/>
<path d="M395.771 480.14C394.533 480.839 393.163 481.272 391.749 481.413C390.335 481.554 388.907 481.399 387.556 480.958L353.203 469.884C350.567 469.022 348.372 467.163 347.088 464.703C345.803 462.243 345.53 459.378 346.327 456.72L363.551 400.162C363.895 399.032 364.461 397.982 365.216 397.074C365.971 396.166 366.899 395.418 367.947 394.874C368.994 394.329 370.14 394 371.316 393.905C372.492 393.81 373.676 393.95 374.797 394.319L410.398 406.019C412.094 406.577 413.662 407.469 415.008 408.643C416.354 409.817 417.451 411.249 418.235 412.854C419.019 414.46 419.474 416.207 419.572 417.991C419.67 419.775 419.41 421.561 418.807 423.243L400.392 474.633C399.565 476.966 397.924 478.922 395.771 480.14V480.14Z" fill="#3F3D56"/>
<path d="M321.27 390.315C334.859 390.315 345.876 379.288 345.876 365.686C345.876 352.083 334.859 341.057 321.27 341.057C307.68 341.057 296.664 352.083 296.664 365.686C296.664 379.288 307.68 390.315 321.27 390.315Z" fill="#FFB6B6"/>
<path d="M238.065 390.686C240.323 395.067 244.025 398.532 248.544 400.492C250.347 401.314 252.244 401.915 254.191 402.281C254.742 400.096 255.623 398.007 256.805 396.089C256.411 398.251 256.411 400.467 256.805 402.63C259.772 402.873 262.757 402.502 265.575 401.54C268.342 400.598 270.852 399.023 272.906 396.941C274.959 394.859 276.5 392.326 277.405 389.544C279.365 383.015 277.254 376.042 277.087 369.228C276.916 362.413 280.149 354.262 286.908 353.418C292.056 352.775 291.419 353.275 295.118 356.914C289.944 362.667 302.557 388.146 309.325 387.02C313.151 386.383 315.967 383.343 316.724 383.448C320.599 392.948 308.942 406.42 318.187 410.843L317.501 409.934C312.662 401.932 326.982 388.416 322.142 380.414C320.793 378.175 319.39 375.55 320.225 373.074C321.017 370.719 325.029 369.974 325.876 372.117C324.5 367.205 328.341 361.44 333.443 360.939C337.976 360.491 337.714 361.784 342.036 362.964C342.588 361.101 343.384 359.318 344.403 357.664C344.058 359.552 344.015 361.482 344.277 363.384C345.836 363.57 347.412 363.236 348.762 362.434C352.753 360.039 352.872 353.857 350.13 350.095C347.383 346.332 342.783 344.474 338.345 343.068C338.304 333.673 313.047 329.175 308.402 337.91C307.924 330.838 299.825 326.073 292.847 327.275C285.87 328.476 280.365 334.076 277.009 340.318C273.654 346.555 271.988 353.539 269.532 360.182C267.076 366.826 263.564 373.45 257.682 377.392C251.801 381.329 243.061 381.686 238.15 376.584C237.03 378.762 236.439 381.175 236.424 383.625C236.409 386.075 236.971 388.494 238.065 390.686V390.686Z" fill="#2F2E41"/>
<path d="M263.312 503.315C263.821 502.907 264.374 502.557 264.959 502.27C274.377 497.579 303.666 485.4 326.567 485.9C370.63 486.861 426.707 535.537 413.656 568.225C403.726 593.097 354.355 607.248 318.316 595.93C267.828 580.075 247.9 515.615 263.312 503.315Z" fill="#3F3D56"/>
<path d="M80.3858 682.502C65.9876 679.783 53.2426 614.855 81.5707 582.878C91.2763 571.922 103.383 567.154 119.487 562.716C212.175 537.174 282.87 561.517 292.371 567.46C301.85 573.39 318.467 662.739 297.217 675.386C285.261 682.502 261.564 686.06 249.823 677.758C232.546 665.542 261.545 633.856 248.638 612.528C233.991 588.325 156.863 580.173 118.194 604.226C76.9391 629.889 162.035 697.92 80.3858 682.502Z" fill="#F2F2F2"/>
<path d="M176.651 572.111H121.645C108.066 559.085 98.3576 546.531 106.131 536.111C106.131 533.115 107.319 530.243 109.435 528.125C111.551 526.007 114.421 524.817 117.414 524.817H180.883C183.875 524.817 186.745 526.007 188.861 528.125C190.977 530.243 192.166 533.115 192.166 536.111C195.126 547.984 189.838 559.986 176.651 572.111Z" fill="#E0E0E0"/>
<path d="M166.773 510.598C166.251 510.622 165.734 510.485 165.293 510.206C164.851 509.926 164.507 509.517 164.305 509.035C164.103 508.552 164.055 508.019 164.166 507.508C164.277 506.997 164.543 506.533 164.926 506.178L165.101 505.483C165.078 505.427 165.055 505.372 165.031 505.316C164.506 504.073 163.625 503.013 162.499 502.27C161.373 501.526 160.053 501.132 158.705 501.137C157.356 501.142 156.039 501.546 154.919 502.298C153.799 503.05 152.926 504.116 152.409 505.363C150.345 510.34 147.716 515.325 147.069 520.587C146.784 522.913 146.904 525.271 147.425 527.556C142.576 516.969 140.058 505.462 140.042 493.816C140.041 490.893 140.203 487.973 140.528 485.069C140.796 482.688 141.168 480.323 141.645 477.976C144.243 465.241 149.823 453.305 157.926 443.147C161.847 441.005 165.019 437.712 167.013 433.71C167.735 432.272 168.246 430.736 168.529 429.152C168.086 429.21 166.861 422.466 167.194 422.052C166.578 421.116 165.474 420.65 164.801 419.736C161.452 415.192 156.839 415.986 154.43 422.161C149.285 424.76 149.235 429.071 152.392 433.217C154.401 435.854 154.677 439.423 156.439 442.247C156.258 442.479 156.069 442.704 155.888 442.937C152.574 447.202 149.685 451.783 147.263 456.613C147.852 451.202 147.149 445.729 145.213 440.643C143.25 435.903 139.571 431.911 136.331 427.813C132.439 422.892 124.458 425.04 123.773 431.279C123.766 431.339 123.76 431.4 123.753 431.46C124.235 431.732 124.706 432.02 125.167 432.325C125.746 432.712 126.194 433.266 126.454 433.913C126.713 434.559 126.772 435.27 126.621 435.95C126.47 436.631 126.118 437.25 125.61 437.726C125.102 438.203 124.461 438.515 123.773 438.621L123.703 438.632C123.874 440.368 124.177 442.089 124.609 443.779C120.453 459.868 129.426 465.728 142.239 465.992C142.522 466.137 142.798 466.282 143.081 466.42C140.648 473.321 139.122 480.51 138.541 487.805C138.212 492.109 138.231 496.433 138.599 500.734L138.577 500.581C137.649 495.799 135.1 491.483 131.361 488.364C125.808 483.798 117.962 482.117 111.972 478.447C111.335 478.037 110.595 477.819 109.838 477.817C109.081 477.815 108.34 478.03 107.701 478.436C107.063 478.842 106.553 479.423 106.233 480.109C105.914 480.795 105.796 481.559 105.896 482.31C105.904 482.363 105.912 482.416 105.92 482.47C106.813 482.834 107.683 483.253 108.524 483.726C109.005 483.997 109.476 484.286 109.937 484.591C110.516 484.978 110.965 485.531 111.224 486.178C111.484 486.825 111.542 487.535 111.391 488.216C111.241 488.896 110.888 489.516 110.38 489.992C109.872 490.469 109.232 490.781 108.543 490.887L108.473 490.898C108.422 490.905 108.379 490.912 108.328 490.919C109.854 494.566 111.996 497.923 114.659 500.843C117.258 514.888 128.421 516.221 140.361 512.13H140.368C141.678 517.829 143.576 523.376 146.032 528.681H166.266C166.338 528.456 166.404 528.224 166.469 527.999C164.596 528.117 162.716 528.005 160.87 527.665C162.371 525.821 163.873 523.963 165.374 522.119C165.407 522.085 165.439 522.048 165.468 522.01C166.23 521.066 166.998 520.13 167.76 519.186L167.76 519.185C167.801 516.293 167.469 513.407 166.774 510.599L166.773 510.598Z" fill="#C7C7C7"/>
<path d="M234.104 523.196C234.765 526.981 242.2 529.642 251.14 529.179C259.361 528.8 266.083 525.911 267.314 522.486C266.859 522.351 266.385 522.288 265.909 522.299L234.869 523.101C234.612 523.11 234.356 523.142 234.104 523.196V523.196Z" fill="white"/>
<path d="M1.33069 683.935L680.919 684.215C681.206 684.215 681.481 684.101 681.683 683.898C681.886 683.695 682 683.42 682 683.133C682 682.846 681.886 682.571 681.683 682.368C681.481 682.165 681.206 682.051 680.919 682.051L1.33069 681.772C1.04407 681.772 0.769197 681.886 0.566527 682.089C0.363857 682.292 0.25 682.567 0.25 682.854C0.25 683.141 0.363857 683.416 0.566527 683.619C0.769197 683.821 1.04407 683.935 1.33069 683.935V683.935Z" fill="#CACACA"/>
<path d="M382.491 442.181C380.643 442.248 378.894 443.035 377.616 444.373C376.339 445.712 375.633 447.496 375.65 449.347C375.66 449.724 375.7 450.098 375.771 450.468L354.443 463.072L357.025 476.154L384.377 455.727C385.885 455.313 387.213 454.411 388.155 453.162C389.097 451.913 389.599 450.387 389.584 448.822C389.566 447.931 389.374 447.053 389.017 446.237C388.661 445.421 388.147 444.683 387.506 444.066C386.864 443.449 386.108 442.964 385.279 442.64C384.45 442.315 383.566 442.157 382.677 442.175C382.615 442.176 382.553 442.178 382.491 442.181Z" fill="#FFB6B6"/>
<path d="M365.02 472.227C364.45 471.462 364.204 471.142 364.075 471.23C363.741 471.432 364.062 474.135 361.713 478.846C358.406 485.464 323.734 495.6 323.734 495.6L319.466 487.778L300.689 453.401L294.217 425.846C293.99 424.885 293.88 423.901 293.889 422.914C299.66 418.849 305.788 415.318 312.197 412.365C314.759 413.82 316.711 416.148 317.698 418.925L330.623 455.2L335.781 469.684C335.781 469.684 344.879 463.172 348.179 464.367C351.474 465.57 352.411 463.883 350.257 458.485C348.103 453.086 351.336 458.643 355.098 458.996C358.867 459.355 355.098 458.996 356.878 456.705C358.659 454.415 370.17 453.126 370.17 453.126L370.415 453.637L374.876 462.822L376.153 465.461C376.153 465.461 371.424 470.597 370.283 471.621C369.136 472.652 368.782 472.581 369.344 473.755C369.897 474.925 367.002 474.871 365.02 472.227Z" fill="#6C63FF"/>
</g>
<defs>
<clipPath id="clip0_107_2">
<rect width="681.75" height="505.5" fill="white" transform="translate(0.25 179.25)"/>
</clipPath>
</defs>
</svg>
