<svg width="383" height="217" viewBox="0 0 383 217" fill="none" xmlns="http://www.w3.org/2000/svg">
<g clip-path="url(#clip0_51_1024)">
<rect x="0.90625" y="0.5" width="381.684" height="216" rx="60" fill="#3B3974"/>
<path d="M439.928 305.252L441.94 273.645C441.94 273.645 507.908 262.09 507.908 228.783C507.908 195.477 400.106 191.399 389.246 206.692C389.137 206.845 389.029 206.998 388.922 207.151C375.508 226.266 383.081 251.081 405.908 262.12C413.713 265.895 423.02 269.125 433.895 270.926L433.129 304.503" fill="#CCCCCC"/>
<path d="M378.744 132.689C399.312 132.689 415.985 118.601 415.985 101.223C415.985 83.8443 399.312 69.7565 378.744 69.7565C358.176 69.7565 341.502 83.8443 341.502 101.223C341.502 118.601 358.176 132.689 378.744 132.689Z" fill="#FF6884"/>
<path d="M323.801 297.1L281.964 294.846L279.708 135.843C279.654 131.984 281.474 128.205 284.703 125.475L329.523 87.593C335.797 82.2906 345.673 81.9074 352.494 86.7039L401.134 120.902C405.102 123.692 407.343 127.794 407.282 132.156L405.611 251.734L426.751 276.551L426.796 276.603L430.378 302.842L323.801 297.1V297.1Z" fill="#E6E6E6"/>
<path d="M330.861 124.651V117.251C330.861 115.298 332.742 113.709 335.054 113.709H347.359C349.671 113.709 351.551 115.298 351.551 117.251V124.651C351.551 126.604 349.671 128.193 347.359 128.193H335.054C332.742 128.193 330.861 126.604 330.861 124.651V124.651Z" fill="#6C63FF"/>
<path d="M304.852 182.089V154.711C304.852 152.758 306.732 151.169 309.044 151.169H327.26C329.572 151.169 331.453 152.758 331.453 154.711V182.089C331.453 184.042 329.572 185.631 327.26 185.631H309.044C306.732 185.631 304.852 184.042 304.852 182.089Z" fill="#3F3D56"/>
<path d="M346.028 246.175C343.826 246.11 342.051 244.6 341.985 242.739L341.064 216.277C341.025 215.147 341.604 214.098 342.652 213.396C343.701 212.694 345.043 212.46 346.336 212.75L347.257 212.958C349.089 213.371 350.369 214.778 350.369 216.38V242.635C350.369 243.605 349.914 244.51 349.088 245.184C348.299 245.828 347.272 246.177 346.181 246.177C346.13 246.177 346.079 246.177 346.028 246.175L346.028 246.175Z" fill="#3F3D56"/>
<path d="M290.171 245.184C289.345 244.51 288.891 243.605 288.891 242.635V216.38C288.891 214.778 290.17 213.371 292.003 212.958L292.924 212.75C294.217 212.46 295.559 212.694 296.607 213.396C297.655 214.097 298.234 215.147 298.195 216.277L297.274 242.739C297.209 244.6 295.434 246.11 293.231 246.175C293.18 246.177 293.13 246.177 293.079 246.177C291.988 246.177 290.96 245.827 290.171 245.184H290.171Z" fill="#3F3D56"/>
<path d="M307.807 242.524V215.066C307.807 213.128 309.603 211.573 311.897 211.525L328.454 211.184C330.749 211.157 332.68 212.679 332.747 214.623L333.701 242.421C333.734 243.386 333.313 244.3 332.517 244.992C331.721 245.685 330.653 246.066 329.51 246.066H311.999C309.687 246.066 307.807 244.477 307.807 242.524H307.807Z" fill="#3F3D56"/>
<path d="M368.99 248.268V214.397C368.99 212.443 370.871 210.854 373.183 210.854H392.581C394.893 210.854 396.774 212.443 396.774 214.397V248.268C396.774 250.221 394.893 251.81 392.581 251.81H373.183C370.871 251.81 368.99 250.221 368.99 248.268Z" fill="#6C63FF"/>
<path d="M371.355 186.834V160.954C371.355 159.001 373.236 157.412 375.548 157.412H381.942C384.253 157.412 386.134 159.001 386.134 160.954V186.834C386.134 188.787 384.253 190.376 381.942 190.376H375.548C373.236 190.376 371.355 188.787 371.355 186.834Z" fill="#3F3D56"/>
<path d="M176.61 289.769L134.608 287.506L132.343 127.928C132.288 124.055 134.116 120.262 137.358 117.523L182.356 79.5034C188.655 74.1811 198.569 73.7974 205.418 78.6111L254.25 112.933C258.234 115.733 260.484 119.85 260.423 124.228L258.745 244.239L279.969 269.145L280.014 269.198L283.61 295.531L176.61 289.768V289.769Z" fill="#E6E6E6"/>
<path d="M183.668 116.66V109.26C183.668 107.307 185.549 105.718 187.861 105.718H200.166C202.477 105.718 204.358 107.307 204.358 109.26V116.66C204.358 118.613 202.477 120.202 200.166 120.202H187.861C185.549 120.202 183.668 118.613 183.668 116.66V116.66Z" fill="#6C63FF"/>
<path d="M157.658 174.098V146.719C157.658 144.766 159.539 143.177 161.851 143.177H180.067C182.379 143.177 184.259 144.766 184.259 146.719V174.098C184.259 176.051 182.379 177.64 180.067 177.64H161.851C159.539 177.64 157.658 176.051 157.658 174.098Z" fill="#3F3D56"/>
<path d="M195.826 205.796C194.926 206.398 194.429 207.301 194.463 208.271L195.383 234.733C195.439 236.332 196.965 237.628 198.856 237.685C199.85 237.718 200.775 237.411 201.484 236.833C202.194 236.254 202.584 235.477 202.584 234.644V208.389C202.584 207.013 201.485 205.804 199.911 205.449L198.99 205.242C198.678 205.171 198.363 205.137 198.05 205.137C197.251 205.137 196.474 205.363 195.826 205.796V205.796Z" fill="#3F3D56"/>
<path d="M142.978 237.192C142.152 236.519 141.697 235.614 141.697 234.644V208.389C141.697 206.787 142.977 205.38 144.809 204.966L145.731 204.759C147.022 204.469 148.365 204.703 149.414 205.404C150.463 206.106 151.041 207.156 151.002 208.286L150.081 234.748C150.016 236.609 148.241 238.118 146.038 238.184C145.988 238.185 145.936 238.186 145.885 238.186C144.795 238.186 143.767 237.836 142.978 237.192V237.192Z" fill="#3F3D56"/>
<path d="M160.615 234.533V207.075C160.615 205.137 162.412 203.581 164.706 203.533L181.262 203.193C181.298 203.192 181.332 203.192 181.366 203.192C183.62 203.192 185.49 204.717 185.556 206.631L186.509 234.43C186.542 235.395 186.122 236.308 185.325 237.001C184.529 237.693 183.461 238.075 182.318 238.075H164.808C162.496 238.075 160.615 236.486 160.615 234.533V234.533Z" fill="#3F3D56"/>
<path d="M221.797 240.277V206.405C221.797 204.452 223.678 202.863 225.989 202.863H245.388C247.7 202.863 249.58 204.452 249.58 206.405V240.277C249.58 242.23 247.7 243.819 245.388 243.819H225.989C223.678 243.819 221.797 242.23 221.797 240.277Z" fill="#6C63FF"/>
<path d="M224.16 178.843V152.963C224.16 151.01 226.041 149.42 228.353 149.42H234.746C237.058 149.42 238.939 151.01 238.939 152.963V178.843C238.939 180.796 237.058 182.385 234.746 182.385H228.353C226.041 182.385 224.16 180.796 224.16 178.843Z" fill="#3F3D56"/>
<path d="M29.4162 281.777L-12.5851 279.515L-14.8504 119.937C-14.9052 116.063 -13.0775 112.271 -9.83551 109.531L35.1625 71.5121C41.4612 66.1899 51.376 65.8063 58.2237 70.6197L107.057 104.942C111.04 107.742 113.29 111.859 113.229 116.237L111.551 236.248L132.776 261.154L132.82 261.207L136.417 287.54L29.4162 281.777L29.4162 281.777Z" fill="#E6E6E6"/>
<path d="M36.4746 108.668V101.269C36.4746 99.3153 38.3554 97.7262 40.6674 97.7262H52.9722C55.2836 97.7262 57.1644 99.3153 57.1644 101.269V108.668C57.1644 110.621 55.2836 112.211 52.9722 112.211H40.6674C38.3554 112.211 36.4746 110.621 36.4746 108.668V108.668Z" fill="#6C63FF"/>
<path d="M10.4648 166.106V138.728C10.4648 136.775 12.3456 135.186 14.6576 135.186H32.8738C35.1852 135.186 37.066 136.775 37.066 138.728V166.106C37.066 168.059 35.1852 169.649 32.8738 169.649H14.6576C12.3456 169.649 10.4648 168.06 10.4648 166.106Z" fill="#3F3D56"/>
<path d="M51.6431 230.193C49.4413 230.127 47.6656 228.617 47.6004 226.756L46.6796 200.294C46.6404 199.165 47.2188 198.114 48.2671 197.413C49.3155 196.712 50.6577 196.477 51.9502 196.767L52.8715 196.975C54.7038 197.388 55.9837 198.795 55.9837 200.398V226.653C55.9837 227.622 55.5288 228.527 54.7033 229.201C53.9135 229.845 52.8865 230.195 51.7961 230.195C51.7453 230.195 51.6939 230.194 51.6431 230.193L51.6431 230.193Z" fill="#3F3D56"/>
<path d="M-2.3064 197.216L-1.38523 197.009C1.13474 196.441 3.59076 198.084 3.51409 200.287L2.59292 226.749C2.53253 228.484 0.888611 229.882 -1.16431 229.943H-1.16432C-3.36924 230.009 -5.19922 228.517 -5.19922 226.652V200.398C-5.19922 198.906 -4.01228 197.601 -2.3064 197.216V197.216Z" fill="#3F3D56"/>
<path d="M13.4219 226.541V199.084C13.4219 197.145 15.2184 195.59 17.5125 195.542L34.0689 195.201C36.3758 195.17 38.2952 196.696 38.3622 198.64L39.3159 226.438C39.3488 227.404 38.9285 228.317 38.1319 229.009C37.3358 229.702 36.2678 230.083 35.1248 230.083H17.6147C15.3027 230.083 13.4219 228.494 13.4219 226.541H13.4219Z" fill="#3F3D56"/>
<path d="M74.6035 232.285V198.414C74.6035 196.461 76.4843 194.871 78.7963 194.871H98.1947C100.506 194.871 102.387 196.461 102.387 198.414V232.285C102.387 234.238 100.506 235.827 98.1947 235.827H78.7963C76.4843 235.827 74.6035 234.238 74.6035 232.285Z" fill="#6C63FF"/>
<path d="M76.9688 170.851V144.971C76.9688 143.018 78.8495 141.429 81.1615 141.429H87.5549C89.8664 141.429 91.7472 143.018 91.7472 144.971V170.851C91.7472 172.804 89.8664 174.394 87.5549 174.394H81.1615C78.8495 174.394 76.9688 172.804 76.9688 170.851Z" fill="#3F3D56"/>
<path d="M-24.7063 278.781L-22.6951 247.174C-22.6951 247.174 43.2728 235.618 43.2728 202.312C43.2728 169.005 -64.5284 164.927 -75.389 180.221C-75.4976 180.374 -75.6055 180.527 -75.7128 180.68C-89.1272 199.794 -81.5536 224.61 -58.7268 235.649C-50.9213 239.423 -41.6148 242.653 -30.74 244.455L-31.506 278.032" fill="#CCCCCC"/>
<path d="M257.801 14.0432C257.334 13.8424 256.959 13.4792 256.745 13.0226C256.532 12.566 256.497 12.0479 256.645 11.567C256.669 11.4933 256.684 11.417 256.69 11.3398V11.3398C256.704 11.1194 256.645 10.9007 256.523 10.7158C256.401 10.531 256.222 10.3899 256.012 10.3135C255.802 10.2371 255.573 10.2294 255.359 10.2916C255.144 10.3539 254.956 10.4826 254.821 10.6589V10.6589C254.775 10.7214 254.736 10.7891 254.706 10.8606C254.503 11.3216 254.135 11.6926 253.673 11.9031C253.21 12.1136 252.686 12.1489 252.199 12.0022C252.124 11.9785 252.047 11.9635 251.969 11.9577V11.9577C251.746 11.9443 251.524 12.0022 251.337 12.1228C251.15 12.2435 251.007 12.4205 250.93 12.6276C250.852 12.8347 250.844 13.0609 250.907 13.2727C250.97 13.4845 251.101 13.6706 251.279 13.8035C251.343 13.8492 251.411 13.8873 251.484 13.9171C251.95 14.1179 252.326 14.4812 252.539 14.9378C252.752 15.3943 252.788 15.9124 252.639 16.3933C252.615 16.467 252.6 16.5433 252.594 16.6205V16.6205C252.581 16.8409 252.639 17.0597 252.762 17.2445C252.884 17.4294 253.063 17.5704 253.273 17.6468C253.482 17.7232 253.711 17.7309 253.926 17.6687C254.14 17.6065 254.329 17.4777 254.463 17.3014V17.3014C254.51 17.2389 254.548 17.1712 254.578 17.0997C254.782 16.6387 255.15 16.2677 255.612 16.0572C256.074 15.8467 256.599 15.8114 257.086 15.9581C257.16 15.9818 257.238 15.9968 257.316 16.0026V16.0026C257.539 16.016 257.76 15.9581 257.948 15.8375C258.135 15.7168 258.278 15.5398 258.355 15.3327C258.432 15.1256 258.44 14.8994 258.377 14.6876C258.314 14.4759 258.184 14.2897 258.005 14.1568V14.1568C257.942 14.1111 257.873 14.073 257.801 14.0432Z" fill="#CBCBCB"/>
<path d="M297.321 104.926C296.854 104.726 296.478 104.362 296.265 103.906C296.052 103.449 296.016 102.931 296.165 102.45C296.189 102.377 296.204 102.3 296.21 102.223V102.223C296.223 102.003 296.165 101.784 296.042 101.599C295.92 101.414 295.741 101.273 295.531 101.197C295.322 101.12 295.093 101.113 294.878 101.175C294.664 101.237 294.475 101.366 294.341 101.542V101.542C294.294 101.605 294.256 101.672 294.226 101.744C294.022 102.205 293.655 102.576 293.192 102.786C292.73 102.997 292.205 103.032 291.718 102.886C291.644 102.862 291.566 102.847 291.488 102.841V102.841C291.265 102.828 291.044 102.885 290.856 103.006C290.669 103.127 290.526 103.304 290.449 103.511C290.372 103.718 290.364 103.944 290.427 104.156C290.49 104.368 290.62 104.554 290.799 104.687C290.862 104.732 290.931 104.771 291.003 104.8C291.47 105.001 291.846 105.364 292.059 105.821C292.272 106.278 292.308 106.796 292.159 107.277C292.135 107.35 292.12 107.427 292.114 107.504C292.1 107.724 292.159 107.943 292.281 108.128C292.403 108.313 292.583 108.454 292.792 108.53C293.002 108.607 293.231 108.614 293.445 108.552C293.66 108.49 293.848 108.361 293.983 108.185C294.029 108.122 294.068 108.054 294.098 107.983C294.301 107.522 294.669 107.151 295.131 106.94C295.594 106.73 296.118 106.695 296.605 106.841C296.68 106.865 296.757 106.88 296.835 106.886V106.886C297.058 106.899 297.28 106.841 297.467 106.721C297.654 106.6 297.797 106.423 297.875 106.216C297.952 106.009 297.96 105.783 297.897 105.571C297.834 105.359 297.703 105.173 297.525 105.04V105.04C297.461 104.994 297.393 104.956 297.321 104.926V104.926Z" fill="#F1F1F1"/>
<path d="M90.1213 51.9577C89.6546 51.757 89.2789 51.3937 89.0657 50.9371C88.8525 50.4805 88.8168 49.9625 88.9654 49.4816C88.9894 49.4078 89.0045 49.3316 89.0105 49.2543C89.0241 49.034 88.9654 48.8152 88.8433 48.6304C88.7211 48.4455 88.5419 48.3044 88.3322 48.228C88.1225 48.1516 87.8934 48.144 87.679 48.2062C87.4645 48.2684 87.276 48.3972 87.1415 48.5734C87.0952 48.636 87.0566 48.7037 87.0264 48.7752C86.8231 49.2361 86.4553 49.6072 85.9929 49.8177C85.5306 50.0282 85.0061 50.0635 84.5191 49.9168C84.4445 49.893 84.3672 49.8781 84.289 49.8722C84.0659 49.8588 83.8444 49.9167 83.6572 50.0374C83.47 50.158 83.3272 50.335 83.2498 50.5421C83.1725 50.7492 83.1647 50.9754 83.2277 51.1872C83.2907 51.399 83.4211 51.5851 83.5996 51.718C83.6629 51.7637 83.7314 51.8019 83.8038 51.8317C84.2706 52.0325 84.6463 52.3957 84.8594 52.8523C85.0726 53.3089 85.1083 53.8269 84.9598 54.3079C84.9357 54.3816 84.9206 54.4578 84.9147 54.5351C84.9011 54.7554 84.9597 54.9742 85.0819 55.1591C85.2041 55.3439 85.3833 55.485 85.593 55.5614C85.8027 55.6378 86.0317 55.6454 86.2462 55.5832C86.4606 55.521 86.6491 55.3922 86.7837 55.216C86.8299 55.1534 86.8686 55.0857 86.8988 55.0142C87.1021 54.5533 87.4699 54.1822 87.9322 53.9717C88.3945 53.7612 88.9191 53.7259 89.406 53.8726C89.4807 53.8964 89.5579 53.9113 89.6361 53.9172C89.8592 53.9306 90.0808 53.8727 90.268 53.752C90.4551 53.6314 90.598 53.4544 90.6753 53.2473C90.7527 53.0402 90.7604 52.814 90.6974 52.6022C90.6345 52.3904 90.5041 52.2043 90.3256 52.0714C90.2623 52.0257 90.1937 51.9875 90.1213 51.9577Z" fill="#F1F1F1"/>
</g>
<defs>
<clipPath id="clip0_51_1024">
<rect x="0.90625" y="0.5" width="381.684" height="216" rx="60" fill="white"/>
</clipPath>
</defs>
</svg>
