<svg width="383" height="217" viewBox="0 0 383 217" fill="none" xmlns="http://www.w3.org/2000/svg">
<g clip-path="url(#clip0_67_8129)">
<rect x="0.75" y="0.14917" width="381.684" height="216" rx="60" fill="#3B3974"/>
<g clip-path="url(#clip1_67_8129)">
<path d="M78.2633 92.6435C84.688 75.0764 94.7141 59.0432 107.699 45.5708C118.716 34.1451 135.863 34.6198 135.863 34.6198L135.961 34.4984C140.087 29.4145 145.625 25.6612 151.879 23.7095C158.132 21.7578 164.824 21.6945 171.113 23.5277C172.748 23.9964 174.006 24.2041 174.604 23.9954C185.507 20.183 184.995 11.5783 194.402 4.6464C210.873 -7.49097 265.507 6.41215 273.211 28.7464C279.454 46.8477 307.326 55.6213 317.738 69.4674C319.367 71.6324 320.964 73.8225 322.531 76.0377C323.265 77.0668 323.992 78.1037 324.71 79.1483C332.087 89.8216 338.706 100.999 344.516 112.598C348.326 120.177 351.638 127.995 354.43 136.004C365.289 167.719 361.575 191.348 331.633 185.511C328.088 184.818 324.629 184.198 321.255 183.651C316.369 182.854 311.653 182.2 307.108 181.687C300.988 180.992 295.165 180.536 289.639 180.32C287.781 180.245 285.958 180.195 284.168 180.17C257.706 179.803 238.078 184.779 223.125 192.503C220.59 193.809 218.188 195.19 215.919 196.647C212.452 198.861 209.143 201.31 206.013 203.978C201.682 207.691 197.688 211.779 194.078 216.195L193.88 216.438C176.39 237.81 170.634 261.471 158.468 265.637C106.462 283.448 73.5703 218.882 70.1972 155.721C70.0269 152.539 69.9328 149.365 69.9149 146.201C69.9044 144.786 69.9113 143.375 69.9358 141.968C69.9892 138.298 70.1512 134.651 70.4224 131.048C70.5237 129.671 70.6412 128.3 70.7749 126.938C70.9222 125.468 71.0825 124.007 71.2677 122.555C72.5907 111.913 74.9052 101.788 78.2633 92.6435Z" fill="#3B3974"/>
<path d="M239.456 127.394C235.303 129.326 235.234 137.978 236.536 140.782L238.897 145.857L253.941 138.874L251.581 133.799C250.276 130.997 243.612 125.468 239.456 127.394Z" fill="#3F3D56"/>
<path d="M199.028 200.253C198.764 200.253 198.503 200.189 198.268 200.067C198.033 199.945 197.832 199.768 197.68 199.551C197.528 199.335 197.431 199.085 197.397 198.822C197.362 198.56 197.392 198.293 197.483 198.045C197.556 197.842 197.67 197.656 197.816 197.497C197.962 197.338 198.138 197.209 198.335 197.119L276.027 161.057C276.223 160.966 276.435 160.915 276.65 160.906C276.866 160.897 277.082 160.93 277.284 161.004C277.487 161.078 277.674 161.191 277.833 161.337C277.992 161.483 278.12 161.659 278.211 161.855C278.395 162.25 278.414 162.702 278.264 163.111C278.114 163.52 277.808 163.853 277.413 164.037H277.413L199.721 200.099C199.504 200.2 199.268 200.253 199.028 200.253V200.253Z" fill="#3F3D56"/>
<path d="M259.802 142.11L237.594 152.418L272.43 227.326L294.639 217.018L259.802 142.11Z" fill="#E6E6E6"/>
<path d="M176.434 47.8141C172.281 49.7459 172.213 58.3987 173.515 61.2024L175.875 66.2772L190.919 59.2942L188.559 54.2195C187.254 51.417 180.591 45.8888 176.434 47.8141Z" fill="#3F3D56"/>
<path d="M202.706 75.2725L180.498 85.5807L250.916 236.998L273.125 226.689L202.706 75.2725Z" fill="#E6E6E6"/>
<path d="M225.75 153.328L223.258 147.85L224.692 147.189L227.177 152.649L263.151 232.335L261.718 233" fill="#3F3D56"/>
<path d="M253.855 148.774L251.363 143.296L252.798 142.635L255.282 148.096L291.256 227.782L289.823 228.447" fill="#3F3D56"/>
<path d="M213.189 87.3901L183.098 101.357C181.182 98.3796 175.407 83.121 176.704 78.5939L175.73 74.2767L196.508 64.6327L199.289 68.0504C203.417 69.3159 211.453 83.6479 213.189 87.3901Z" fill="#E6E6E6"/>
<path d="M197.375 64.8173L175.934 74.7694C175.143 75.1367 174.3 75.0016 174.052 74.4677C174.016 74.3907 173.994 74.3082 173.986 74.2238L172.877 62.3973C172.829 61.8908 173.263 61.317 173.925 61.0094L188.144 54.4095C188.807 54.102 189.526 54.141 189.882 54.5039L198.214 62.9783C198.64 63.4117 198.409 64.1536 197.697 64.6354C197.595 64.7046 197.487 64.7654 197.375 64.8173V64.8173Z" fill="#E6E6E6"/>
<path d="M214.191 157.474C213.959 157.474 213.728 157.447 213.502 157.392C213.184 157.327 212.886 157.189 212.629 156.99C212.372 156.791 212.165 156.536 212.022 156.244L198.914 128.058C198.371 126.891 199.1 125.399 200.537 124.732L219.732 115.822C221.17 115.155 222.781 115.562 223.323 116.728L236.432 144.915C236.563 145.212 236.624 145.534 236.611 145.859C236.598 146.183 236.51 146.5 236.356 146.785C236.019 147.431 235.474 147.944 234.808 148.241L215.614 157.15C215.169 157.36 214.683 157.47 214.191 157.474Z" fill="#3F3D56"/>
<path d="M216.817 161.74L194.609 172.048L229.446 246.956L251.654 236.648L216.817 161.74Z" fill="#E6E6E6"/>
<path d="M189.457 66.0529L182.944 69.0758C181.687 69.6592 179.992 68.6871 179.165 66.9093C178.338 65.1315 178.688 63.2101 179.945 62.6268L186.457 59.6038C187.714 59.0205 189.41 59.9925 190.236 61.7704C191.063 63.5482 190.713 65.4696 189.457 66.0529Z" fill="#3F3D56"/>
<path d="M196.905 146.822C192.752 148.754 192.683 157.407 193.986 160.211L196.346 165.285L211.39 158.303L209.03 153.228C207.725 150.425 201.061 144.897 196.905 146.822Z" fill="#3F3D56"/>
<path d="M127.912 129.551C126.445 130.527 124.944 128.203 126.439 127.27C127.906 126.294 129.407 128.618 127.912 129.551Z" fill="#E6E6E6"/>
<path d="M280.596 96.1595C279.129 97.1359 277.628 94.812 279.123 93.879C280.589 92.9027 282.091 95.2265 280.596 96.1595Z" fill="#E6E6E6"/>
<path d="M176.529 122.721C175.062 123.697 173.561 121.373 175.056 120.44C176.523 119.464 178.024 121.788 176.529 122.721Z" fill="#E6E6E6"/>
<path d="M127.912 213.787C126.445 214.764 124.944 212.44 126.439 211.507C127.906 210.531 129.407 212.854 127.912 213.787Z" fill="#E6E6E6"/>
<path d="M202.736 23.6855C201.269 24.6618 199.768 22.338 201.263 21.4049C202.73 20.4286 204.231 22.7525 202.736 23.6855Z" fill="#E6E6E6"/>
<path d="M130.572 68.46C129.105 69.4364 127.604 67.1125 129.099 66.1795C130.566 65.2031 132.067 67.527 130.572 68.46Z" fill="#E6E6E6"/>
<path d="M234.367 55.624L233.434 55.4195L233.639 54.4868L233.016 54.3506L232.812 55.2833L231.879 55.0791L231.742 55.7007L232.675 55.9052L232.471 56.8375L233.093 56.9737L233.298 56.041L234.231 56.2455L234.367 55.624Z" fill="#E6E6E6"/>
<path d="M82.403 133.326L81.4698 133.121L81.6741 132.189L81.052 132.053L80.8473 132.985L79.9137 132.781L79.7773 133.403L80.7109 133.607L80.5066 134.54L81.1287 134.676L81.3334 133.743L82.2666 133.948L82.403 133.326Z" fill="#E6E6E6"/>
<path d="M273.787 172.962C273.011 173.322 272.123 173.359 271.319 173.065C270.515 172.771 269.861 172.171 269.499 171.396L265.658 163.137C265.299 162.362 265.262 161.475 265.556 160.673C265.851 159.87 266.452 159.217 267.227 158.857C268.003 158.497 268.891 158.459 269.694 158.752C270.498 159.045 271.152 159.645 271.514 160.419L275.355 168.678C275.715 169.454 275.752 170.341 275.458 171.144C275.164 171.947 274.563 172.601 273.787 172.962V172.962Z" fill="#3F3D56"/>
<path d="M208.459 203.318C207.682 203.677 206.795 203.714 205.991 203.421C205.187 203.127 204.533 202.527 204.171 201.752L200.33 193.493C199.971 192.717 199.934 191.831 200.228 191.028C200.522 190.226 201.123 189.573 201.899 189.213C202.675 188.853 203.562 188.815 204.366 189.108C205.17 189.401 205.824 190 206.186 190.775L210.027 199.034C210.386 199.81 210.423 200.696 210.13 201.5C209.836 202.303 209.235 202.957 208.459 203.318Z" fill="#3F3D56"/>
<path d="M267.869 154.918L242.116 166.872C240.476 164.323 235.533 151.264 236.643 147.389L237.188 143.055L252.565 135.518L255.973 138.366C260.773 136.744 267.83 148.629 267.869 154.918Z" fill="#E6E6E6"/>
<path d="M255.913 154.089L249.401 157.112C248.144 157.695 246.232 156.257 245.139 153.907C244.046 151.556 244.179 149.169 245.435 148.585L251.948 145.562C253.205 144.979 255.117 146.417 256.21 148.768C257.303 151.118 257.17 153.506 255.913 154.089Z" fill="#3F3D56"/>
<path d="M200.681 169.644L198.189 164.166L199.624 163.505L202.108 168.965L238.082 248.651L236.649 249.316" fill="#3F3D56"/>
<path d="M225.318 174.347L199.564 186.3C195.765 184.341 189.958 171.517 194.092 166.818L194.637 162.484L210.014 154.947L213.421 157.795C216.954 158.878 223.832 171.144 225.318 174.347Z" fill="#E6E6E6"/>
<path d="M212.831 172.378L206.319 175.401C205.062 175.984 203.269 174.802 202.322 172.765C201.375 170.729 201.627 168.597 202.883 168.014L209.396 164.991C210.653 164.408 212.446 165.59 213.393 167.627C214.34 169.663 214.088 171.795 212.831 172.378Z" fill="#3F3D56"/>
<path d="M82.3082 116.959C103.914 116.959 121.429 99.4614 121.429 77.8765C121.429 56.2917 103.914 38.7937 82.3082 38.7937C60.7024 38.7937 43.1875 56.2917 43.1875 77.8765C43.1875 99.4614 60.7024 116.959 82.3082 116.959Z" fill="#FF6584"/>
<path opacity="0.3" d="M242.71 118.583L266.484 49.217L240.379 117.753C240.249 117.915 240.161 118.106 240.121 118.31C240.08 118.514 240.089 118.724 240.146 118.924C240.203 119.123 240.307 119.306 240.45 119.458C240.592 119.609 240.768 119.724 240.964 119.794C241.16 119.864 241.369 119.886 241.575 119.859C241.781 119.831 241.978 119.755 242.148 119.637C242.319 119.518 242.459 119.361 242.557 119.178C242.654 118.994 242.707 118.791 242.71 118.583H242.71Z" fill="#F0F0F0"/>
<path d="M303.31 77.2364C298.656 78.7816 293.496 80.2995 287.832 81.7901C258.531 89.497 219.256 95.5086 177.243 98.7181C135.23 101.928 95.4971 101.951 65.3642 98.7843C50.6855 97.2415 39.0755 95.0228 30.8569 92.1891C22.1556 89.1895 17.5835 85.5747 17.2673 81.4457C16.6518 73.4016 32.5406 66.3215 45.9781 61.7987L46.3421 62.8774C27.8888 69.0884 17.9668 75.652 18.4036 81.3589C18.9598 88.6275 36.1198 94.566 65.4834 97.6521C95.5501 100.812 135.21 100.788 177.156 97.5833C219.103 94.3788 258.305 88.379 287.542 80.6892C316.093 73.1797 332.151 64.7034 331.594 57.4347C331.132 51.3998 319.225 46.2371 298.065 42.8972L298.243 41.7729C313.618 44.1998 332.082 48.8717 332.731 57.3479C333.047 61.477 329.078 65.7441 320.934 70.0305C316.292 72.4738 310.393 74.8844 303.31 77.2364Z" fill="#3F3D56"/>
<path d="M314.805 146.554C317.05 146.554 318.87 144.736 318.87 142.493C318.87 140.25 317.05 138.432 314.805 138.432C312.56 138.432 310.74 140.25 310.74 142.493C310.74 144.736 312.56 146.554 314.805 146.554Z" fill="#FF6584"/>
<path d="M141.612 176.53C143.857 176.53 145.677 174.712 145.677 172.469C145.677 170.226 143.857 168.408 141.612 168.408C139.367 168.408 137.547 170.226 137.547 172.469C137.547 174.712 139.367 176.53 141.612 176.53Z" fill="#3F3D56"/>
<path d="M278.268 181.815L295.806 186.351L306.562 207.459L288.377 208.171L278.268 181.815Z" fill="#E6E6E6"/>
<path d="M237.787 151.386L247.44 161.035L271.955 213.988L267.442 217.884L237.787 151.386Z" fill="#CCCCCC"/>
<path d="M216.799 160.132L217.556 173.753L240.696 227.321L246.612 226.559L216.799 160.132Z" fill="#CCCCCC"/>
<path d="M216.168 215.157L206.723 230.601L213.686 253.242L227.25 241.12L216.168 215.157Z" fill="#E6E6E6"/>
<path d="M299.605 224.647C294.701 224.647 289.326 224.462 283.48 224.091C253.241 222.173 214.073 215.503 173.191 205.312C132.309 195.12 94.5964 182.623 67.001 170.124C53.5584 164.035 43.2414 158.272 36.3367 152.993C29.0264 147.405 25.8288 142.534 26.8323 138.516C28.7875 130.689 46.1005 128.976 60.2801 128.918L60.2849 130.056C40.8126 130.136 29.325 133.239 27.938 138.792C26.1711 145.865 40.5806 156.907 67.4715 169.087C95.0062 181.559 132.649 194.032 173.467 204.207C214.284 214.383 253.38 221.041 283.552 222.955C313.017 224.825 330.931 221.84 332.698 214.767C334.164 208.895 324.494 200.244 305.469 190.408L305.993 189.397C319.817 196.544 335.863 206.795 333.803 215.043C332.8 219.061 327.686 221.86 318.605 223.362C313.428 224.218 307.07 224.647 299.605 224.647Z" fill="#3F3D56"/>
</g>
</g>
<defs>
<clipPath id="clip0_67_8129">
<rect x="0.75" y="0.14917" width="381.684" height="216" rx="60" fill="white"/>
</clipPath>
<clipPath id="clip1_67_8129">
<rect width="342.75" height="313.5" fill="white" transform="translate(17.25 0.14917)"/>
</clipPath>
</defs>
</svg>
