<svg width="383" height="217" viewBox="0 0 383 217" fill="none" xmlns="http://www.w3.org/2000/svg">
<g clip-path="url(#clip0_67_8265)">
<rect x="0.5" y="0.75" width="381.684" height="216" rx="60" fill="#3B3974"/>
<g clip-path="url(#clip1_67_8265)">
<path d="M-18.8281 181.99C-18.1384 183.025 -17.1902 183.868 -16.0749 184.437C-14.9596 185.005 -13.7148 185.281 -12.4605 185.236C-9.23622 185.085 -6.54933 182.864 -4.13079 180.754L3.02425 174.515L-1.711 174.291C-5.11641 174.13 -8.60968 173.979 -11.8532 175.018C-15.0968 176.056 -18.0881 178.551 -18.6811 181.866" fill="#E6E6E6"/>
<path d="M269.551 166.277C271.766 167.046 274.144 167.239 276.456 166.837C278.768 166.434 280.937 165.451 282.752 163.981C287.376 160.148 288.826 153.835 290.005 147.989L293.494 130.695L286.19 135.662C280.937 139.234 275.566 142.921 271.929 148.095C268.292 153.268 266.705 160.331 269.626 165.93" fill="#E6E6E6"/>
<path d="M270.68 188.419C269.761 181.804 268.815 175.103 269.461 168.418C270.034 162.48 271.868 156.682 275.603 151.925C277.585 149.406 279.997 147.247 282.73 145.547C283.443 145.102 284.099 146.218 283.389 146.66C278.66 149.612 275.002 153.971 272.942 159.108C270.668 164.821 270.302 171.049 270.694 177.118C270.931 180.788 271.434 184.433 271.94 188.075C271.98 188.24 271.955 188.413 271.87 188.561C271.785 188.708 271.647 188.818 271.483 188.868C271.316 188.913 271.139 188.89 270.988 188.806C270.838 188.722 270.727 188.582 270.68 188.418L270.68 188.419Z" fill="#F2F2F2"/>
<path d="M277.297 177.804C278.247 179.231 279.552 180.391 281.088 181.174C282.624 181.957 284.338 182.337 286.065 182.275C290.505 182.067 294.206 179.008 297.536 176.103L307.389 167.512L300.868 167.203C296.179 166.982 291.368 166.773 286.902 168.203C282.435 169.633 278.316 173.069 277.499 177.635" fill="#E6E6E6"/>
<path d="M268.08 192.221C272.506 184.487 277.64 175.891 286.813 173.144C289.363 172.382 292.038 172.11 294.692 172.34C295.528 172.411 295.32 173.685 294.485 173.614C290.036 173.249 285.595 174.409 281.911 176.899C278.365 179.282 275.605 182.596 273.268 186.11C271.837 188.262 270.555 190.506 269.273 192.746C268.864 193.463 267.666 192.945 268.08 192.221Z" fill="#F2F2F2"/>
<path d="M228.069 49.9024C227.602 49.7017 227.226 49.3384 227.013 48.8818C226.8 48.4252 226.764 47.9072 226.913 47.4263C226.937 47.3525 226.952 47.2763 226.958 47.199V47.199C226.971 46.9787 226.913 46.7599 226.791 46.5751C226.668 46.3902 226.489 46.2491 226.279 46.1727C226.07 46.0963 225.841 46.0887 225.626 46.1509C225.412 46.2131 225.223 46.3419 225.089 46.5181V46.5181C225.042 46.5807 225.004 46.6484 224.974 46.7199C224.77 47.1808 224.403 47.5519 223.94 47.7624C223.478 47.9729 222.953 48.0082 222.466 47.8615C222.392 47.8377 222.314 47.8228 222.236 47.8169V47.8169C222.013 47.8035 221.792 47.8614 221.604 47.9821C221.417 48.1028 221.274 48.2797 221.197 48.4868C221.12 48.6939 221.112 48.9201 221.175 49.1319C221.238 49.3437 221.368 49.5298 221.547 49.6627C221.61 49.7084 221.679 49.7466 221.751 49.7764C222.218 49.9772 222.594 50.3404 222.807 50.797C223.02 51.2536 223.056 51.7716 222.907 52.2526C222.883 52.3263 222.868 52.4026 222.862 52.4798V52.4798C222.848 52.7001 222.907 52.9189 223.029 53.1038C223.151 53.2886 223.331 53.4297 223.54 53.5061C223.75 53.5825 223.979 53.5901 224.193 53.5279C224.408 53.4657 224.596 53.3369 224.731 53.1607V53.1607C224.777 53.0981 224.816 53.0304 224.846 52.9589C225.049 52.498 225.417 52.1269 225.879 51.9164C226.342 51.7059 226.866 51.6706 227.353 51.8173C227.428 51.8411 227.505 51.856 227.583 51.8619V51.8619C227.807 51.8753 228.028 51.8174 228.215 51.6967C228.402 51.5761 228.545 51.3991 228.623 51.192C228.7 50.9849 228.708 50.7587 228.645 50.5469C228.582 50.3351 228.451 50.149 228.273 50.0161V50.0161C228.21 49.9704 228.141 49.9323 228.069 49.9024Z" fill="#CBCBCB"/>
<path d="M267.588 140.786C267.121 140.585 266.746 140.222 266.533 139.765C266.319 139.309 266.284 138.79 266.432 138.31C266.456 138.236 266.471 138.16 266.477 138.082V138.082C266.491 137.862 266.432 137.643 266.31 137.458C266.188 137.274 266.009 137.132 265.799 137.056C265.589 136.98 265.36 136.972 265.146 137.034C264.931 137.096 264.743 137.225 264.608 137.401V137.401C264.562 137.464 264.523 137.532 264.493 137.603C264.29 138.064 263.922 138.435 263.46 138.646C262.997 138.856 262.473 138.891 261.986 138.745C261.911 138.721 261.834 138.706 261.756 138.7V138.7C261.533 138.687 261.311 138.745 261.124 138.865C260.937 138.986 260.794 139.163 260.717 139.37C260.639 139.577 260.632 139.803 260.695 140.015C260.757 140.227 260.888 140.413 261.066 140.546C261.13 140.592 261.198 140.63 261.271 140.66C261.737 140.86 262.113 141.224 262.326 141.68C262.539 142.137 262.575 142.655 262.427 143.136C262.403 143.21 262.387 143.286 262.381 143.363C262.368 143.583 262.427 143.802 262.549 143.987C262.671 144.172 262.85 144.313 263.06 144.389C263.269 144.466 263.499 144.473 263.713 144.411C263.927 144.349 264.116 144.22 264.25 144.044C264.297 143.981 264.335 143.914 264.366 143.842C264.569 143.381 264.937 143.01 265.399 142.8C265.861 142.589 266.386 142.554 266.873 142.701C266.947 142.724 267.025 142.739 267.103 142.745V142.745C267.326 142.759 267.548 142.701 267.735 142.58C267.922 142.459 268.065 142.282 268.142 142.075C268.219 141.868 268.227 141.642 268.164 141.43C268.101 141.218 267.971 141.032 267.792 140.899V140.899C267.729 140.854 267.66 140.816 267.588 140.786V140.786Z" fill="#F1F1F1"/>
<path d="M60.3889 87.817C59.9222 87.6162 59.5464 87.253 59.3333 86.7964C59.1201 86.3398 59.0844 85.8217 59.233 85.3408C59.257 85.2671 59.2721 85.1908 59.2781 85.1136C59.2916 84.8933 59.233 84.6745 59.1108 84.4896C58.9887 84.3048 58.8094 84.1637 58.5997 84.0873C58.39 84.0109 58.161 84.0032 57.9465 84.0654C57.7321 84.1277 57.5436 84.2564 57.4091 84.4327C57.3628 84.4952 57.3241 84.5629 57.2939 84.6344C57.0907 85.0954 56.7229 85.4664 56.2605 85.6769C55.7982 85.8874 55.2736 85.9227 54.7867 85.776C54.712 85.7523 54.6348 85.7373 54.5566 85.7315C54.3335 85.7181 54.112 85.776 53.9248 85.8966C53.7376 86.0173 53.5948 86.1943 53.5174 86.4014C53.4401 86.6085 53.4323 86.8347 53.4953 87.0465C53.5583 87.2583 53.6887 87.4444 53.8671 87.5773C53.9305 87.623 53.999 87.6611 54.0714 87.691C54.5382 87.8917 54.9139 88.255 55.127 88.7116C55.3402 89.1682 55.3759 89.6862 55.2274 90.1671C55.2033 90.2408 55.1882 90.3171 55.1822 90.3943C55.1687 90.6147 55.2273 90.8335 55.3495 91.0183C55.4716 91.2032 55.6509 91.3442 55.8606 91.4206C56.0703 91.497 56.2993 91.5047 56.5138 91.4425C56.7282 91.3803 56.9167 91.2515 57.0512 91.0752C57.0975 91.0127 57.1362 90.945 57.1664 90.8735C57.3696 90.4125 57.7374 90.0415 58.1998 89.831C58.6621 89.6205 59.1867 89.5852 59.6736 89.7319C59.7483 89.7556 59.8255 89.7706 59.9037 89.7764C60.1268 89.7898 60.3484 89.732 60.5355 89.6113C60.7227 89.4906 60.8656 89.3136 60.9429 89.1065C61.0203 88.8994 61.028 88.6732 60.965 88.4615C60.902 88.2497 60.7716 88.0635 60.5932 87.9306C60.5298 87.8849 60.4613 87.8468 60.3889 87.817Z" fill="#F1F1F1"/>
<path d="M146.829 55.2237C148.7 55.2237 150.216 53.726 150.216 51.8784C150.216 50.0307 148.7 48.533 146.829 48.533C144.958 48.533 143.441 50.0307 143.441 51.8784C143.441 53.726 144.958 55.2237 146.829 55.2237Z" fill="#F1F1F1"/>
<path d="M327.493 46.3026C329.364 46.3026 330.88 44.8048 330.88 42.9572C330.88 41.1096 329.364 39.6118 327.493 39.6118C325.622 39.6118 324.105 41.1096 324.105 42.9572C324.105 44.8048 325.622 46.3026 327.493 46.3026Z" fill="white"/>
<path d="M64.3992 30.6908C66.27 30.6908 67.7866 29.193 67.7866 27.3454C67.7866 25.4978 66.27 24 64.3992 24C62.5283 24 61.0117 25.4978 61.0117 27.3454C61.0117 29.193 62.5283 30.6908 64.3992 30.6908Z" fill="#CBCBCB"/>
<path d="M51.3732 182.734C64.8018 182.734 75.6879 171.983 75.6879 158.721C75.6879 145.459 64.8018 134.708 51.3732 134.708C37.9446 134.708 27.0586 145.459 27.0586 158.721C27.0586 171.983 37.9446 182.734 51.3732 182.734Z" fill="#2F2E41"/>
<path d="M47.6797 177.567H40.293V190.637H47.6797V177.567Z" fill="#2F2E41"/>
<path d="M62.4531 177.567H55.0664V190.637H62.4531V177.567Z" fill="#2F2E41"/>
<path d="M46.4486 193.069C49.8482 193.069 52.6042 192.048 52.6042 190.789C52.6042 189.53 49.8482 188.509 46.4486 188.509C43.0489 188.509 40.293 189.53 40.293 190.789C40.293 192.048 43.0489 193.069 46.4486 193.069Z" fill="#2F2E41"/>
<path d="M61.222 192.765C64.6217 192.765 67.3776 191.744 67.3776 190.485C67.3776 189.226 64.6217 188.205 61.222 188.205C57.8224 188.205 55.0664 189.226 55.0664 190.485C55.0664 191.744 57.8224 192.765 61.222 192.765Z" fill="#2F2E41"/>
<path d="M77.5762 148.228C82.842 143.023 85.7696 137.481 84.1153 135.848C82.4609 134.216 76.851 137.111 71.5853 142.316C66.3195 147.52 63.3919 153.063 65.0463 154.695C66.7006 156.328 72.3105 153.432 77.5762 148.228Z" fill="#2F2E41"/>
<path d="M31.7754 156.368C33.4298 154.735 30.5022 149.193 25.2364 143.989C19.9706 138.784 14.3608 135.889 12.7064 137.521C11.0521 139.154 13.9797 144.696 19.2454 149.901C24.5112 155.105 30.1211 158.001 31.7754 156.368Z" fill="#2F2E41"/>
<path d="M50.3491 163.525C54.9387 163.525 58.6592 159.851 58.6592 155.318C58.6592 150.785 54.9387 147.111 50.3491 147.111C45.7596 147.111 42.0391 150.785 42.0391 155.318C42.0391 159.851 45.7596 163.525 50.3491 163.525Z" fill="white"/>
<path d="M50.3501 158.054C51.88 158.054 53.1202 156.829 53.1202 155.318C53.1202 153.807 51.88 152.582 50.3501 152.582C48.8203 152.582 47.5801 153.807 47.5801 155.318C47.5801 156.829 48.8203 158.054 50.3501 158.054Z" fill="#3F3D56"/>
<path d="M56.9478 170.496C57.2045 171.889 56.8905 173.325 56.0749 174.489C55.2593 175.653 54.0089 176.45 52.5987 176.703C51.1886 176.957 49.7342 176.647 48.5556 175.841C47.3769 175.036 46.5706 173.801 46.3139 172.408V172.408L46.312 172.398C45.7803 169.497 48.0511 168.471 50.9881 167.946C53.9251 167.421 56.4161 167.596 56.9478 170.496Z" fill="white"/>
<path d="M75.2166 183.923C74.6693 183.924 74.1446 184.139 73.7576 184.521C73.3706 184.903 73.153 185.421 73.1523 185.962V190.22C73.153 190.76 73.3706 191.279 73.7576 191.661C74.1446 192.043 74.6693 192.258 75.2166 192.259H108.43C108.978 192.258 109.502 192.043 109.889 191.661C110.276 191.279 110.494 190.76 110.495 190.22V185.962C110.494 185.421 110.276 184.903 109.889 184.521C109.502 184.139 108.978 183.924 108.43 183.923H75.2166Z" fill="#E5E5E5"/>
<path d="M94.3175 181.087C94.1119 180.97 93.8676 180.938 93.6382 180.999C93.4089 181.059 93.2134 181.208 93.0947 181.411L91.8604 183.522L90.6509 181.161C90.5437 180.952 90.3567 180.793 90.1312 180.72C89.9056 180.647 89.6599 180.666 89.448 180.771C89.2362 180.877 89.0756 181.062 89.0016 181.285C88.9276 181.507 88.9463 181.75 89.0535 181.959L89.9947 183.797H89.6498V192.385H94.2536V183.797H93.7672L94.6452 182.295C94.7639 182.092 94.7961 181.85 94.7346 181.624C94.6732 181.397 94.5231 181.204 94.3175 181.087V181.087Z" fill="#FF6884"/>
<path d="M50.7483 142.971C46.4281 142.966 42.1333 142.318 38.0088 141.049C37.7222 140.957 37.4722 140.779 37.2945 140.539C37.1169 140.299 37.0206 140.009 37.0195 139.712V129.937C37.02 129.568 37.1688 129.214 37.4334 128.952C37.698 128.691 38.0568 128.544 38.431 128.544H63.2722C63.6464 128.544 64.0051 128.691 64.2697 128.952C64.5343 129.214 64.6832 129.568 64.6836 129.937V139.706C64.6837 140.006 64.5862 140.298 64.4053 140.539C64.2245 140.78 63.9699 140.957 63.6793 141.044C59.4879 142.309 55.131 142.958 50.7483 142.971V142.971Z" fill="#FF6884"/>
<path opacity="0.2" d="M64.4003 129.938V131.571L50.9578 136.227C50.7065 136.312 50.4328 136.309 50.1842 136.216L37.3008 131.437V129.938C37.3016 129.642 37.4209 129.359 37.6324 129.15C37.844 128.941 38.1307 128.823 38.4299 128.822H63.2711C63.5703 128.823 63.857 128.941 64.0686 129.15C64.2802 129.359 64.3994 129.642 64.4003 129.938Z" fill="black"/>
<path d="M50.5818 134.338C50.4124 134.338 50.2444 134.308 50.0858 134.249L30.8332 127.11C30.561 127.009 30.327 126.827 30.1632 126.59C29.9994 126.353 29.9138 126.071 29.9181 125.784C29.9224 125.497 30.0164 125.218 30.1872 124.986C30.3581 124.753 30.5974 124.579 30.8725 124.486L48.9871 118.366C49.2797 118.268 49.5967 118.266 49.8902 118.362L70.1076 125.017C70.3868 125.109 70.63 125.285 70.8031 125.52C70.9761 125.756 71.0704 126.038 71.0726 126.329C71.0749 126.62 70.985 126.904 70.8157 127.142C70.6463 127.38 70.4059 127.559 70.1281 127.655L51.0485 134.259C50.8985 134.311 50.7407 134.338 50.5818 134.338V134.338Z" fill="#FF6884"/>
<path d="M33.0665 133.84H32.502V125.756H49.7214V126.313H33.0665V133.84Z" fill="#3F3D56"/>
<path d="M32.7854 135.513C33.409 135.513 33.9145 135.014 33.9145 134.398C33.9145 133.782 33.409 133.283 32.7854 133.283C32.1618 133.283 31.6562 133.782 31.6562 134.398C31.6562 135.014 32.1618 135.513 32.7854 135.513Z" fill="#3F3D56"/>
<path d="M191.951 182.734C205.38 182.734 216.266 171.983 216.266 158.721C216.266 145.459 205.38 134.708 191.951 134.708C178.523 134.708 167.637 145.459 167.637 158.721C167.637 171.983 178.523 182.734 191.951 182.734Z" fill="#2F2E41"/>
<path d="M188.258 177.567H180.871V190.637H188.258V177.567Z" fill="#2F2E41"/>
<path d="M203.031 177.567H195.645V190.637H203.031V177.567Z" fill="#2F2E41"/>
<path d="M187.027 193.069C190.426 193.069 193.182 192.048 193.182 190.789C193.182 189.53 190.426 188.509 187.027 188.509C183.627 188.509 180.871 189.53 180.871 190.789C180.871 192.048 183.627 193.069 187.027 193.069Z" fill="#2F2E41"/>
<path d="M201.8 192.765C205.2 192.765 207.956 191.744 207.956 190.485C207.956 189.226 205.2 188.205 201.8 188.205C198.4 188.205 195.645 189.226 195.645 190.485C195.645 191.744 198.4 192.765 201.8 192.765Z" fill="#2F2E41"/>
<path d="M218.154 148.228C223.42 143.023 226.348 137.481 224.693 135.848C223.039 134.216 217.429 137.111 212.163 142.316C206.898 147.52 203.97 153.063 205.624 154.695C207.279 156.328 212.889 153.432 218.154 148.228Z" fill="#2F2E41"/>
<path d="M170.25 170.517C174.499 164.474 176.386 158.507 174.465 157.19C172.544 155.872 167.542 159.704 163.293 165.747C159.044 171.79 157.157 177.757 159.078 179.074C160.999 180.392 166.001 176.561 170.25 170.517Z" fill="#2F2E41"/>
<path d="M190.929 163.525C195.519 163.525 199.239 159.851 199.239 155.318C199.239 150.785 195.519 147.111 190.929 147.111C186.34 147.111 182.619 150.785 182.619 155.318C182.619 159.851 186.34 163.525 190.929 163.525Z" fill="white"/>
<path d="M193.752 155.266C195.282 155.266 196.523 154.041 196.523 152.53C196.523 151.019 195.282 149.795 193.752 149.795C192.223 149.795 190.982 151.019 190.982 152.53C190.982 154.041 192.223 155.266 193.752 155.266Z" fill="#3F3D56"/>
<path d="M200.893 170.496C201.708 173.396 198.739 176.175 194.26 176.703C189.782 177.231 185.491 175.308 184.676 172.408L184.673 172.398C183.862 169.497 187.325 168.471 191.804 167.946C196.283 167.421 200.082 167.596 200.893 170.496Z" fill="white"/>
<path d="M183.444 144.588C179.434 146.176 175.204 147.157 170.898 147.499C170.598 147.52 170.298 147.446 170.043 147.289C169.787 147.132 169.589 146.898 169.475 146.623L165.783 137.554C165.644 137.211 165.648 136.828 165.795 136.488C165.942 136.148 166.219 135.879 166.566 135.741L189.614 126.589C189.961 126.451 190.35 126.455 190.694 126.6C191.038 126.745 191.31 127.019 191.45 127.362L195.14 136.425C195.253 136.703 195.273 137.01 195.196 137.3C195.12 137.591 194.95 137.849 194.714 138.037C191.303 140.754 187.505 142.962 183.444 144.588Z" fill="#FF6884"/>
<path opacity="0.2" d="M191.188 127.466L191.806 128.982L181.092 138.254C180.891 138.426 180.636 138.523 180.37 138.529L166.612 138.842L166.045 137.45C165.935 137.176 165.938 136.869 166.056 136.597C166.173 136.326 166.394 136.111 166.672 136L189.72 126.847C189.997 126.738 190.308 126.741 190.583 126.857C190.858 126.973 191.076 127.192 191.188 127.466V127.466Z" fill="black"/>
<path d="M180.031 136.64C179.873 136.702 179.706 136.736 179.537 136.74L158.977 137.21C158.687 137.216 158.401 137.134 158.159 136.974C157.918 136.814 157.732 136.585 157.627 136.317C157.523 136.049 157.505 135.756 157.576 135.477C157.646 135.199 157.802 134.948 158.023 134.761L172.517 122.408C172.752 122.21 173.045 122.092 173.354 122.072L194.626 120.798C194.92 120.781 195.212 120.854 195.461 121.009C195.711 121.163 195.905 121.391 196.017 121.66C196.129 121.929 196.153 122.225 196.085 122.509C196.018 122.792 195.863 123.047 195.641 123.238L180.434 136.395C180.314 136.499 180.178 136.581 180.031 136.64Z" fill="#FF6884"/>
<path d="M163.591 142.632L163.067 142.84L160.014 135.339L175.99 128.994L176.201 129.512L160.748 135.648L163.591 142.632Z" fill="#3F3D56"/>
<path d="M163.539 144.368C164.163 144.368 164.668 143.869 164.668 143.253C164.668 142.637 164.163 142.138 163.539 142.138C162.916 142.138 162.41 142.637 162.41 143.253C162.41 143.869 162.916 144.368 163.539 144.368Z" fill="#3F3D56"/>
<path d="M284.518 101.986C280.853 99.7273 277.554 96.9354 274.732 93.7046C274.537 93.4775 274.421 93.1955 274.398 92.899C274.376 92.6024 274.449 92.3065 274.608 92.0535L279.839 83.756C280.037 83.4426 280.353 83.2195 280.717 83.1358C281.082 83.0521 281.465 83.1145 281.783 83.3095L302.871 96.2762C303.188 96.4719 303.414 96.7839 303.499 97.1439C303.583 97.5038 303.52 97.8823 303.323 98.1962L298.095 106.489C297.934 106.744 297.695 106.94 297.413 107.051C297.13 107.161 296.82 107.178 296.526 107.1C292.291 105.986 288.245 104.263 284.518 101.986V101.986Z" fill="#FF6884"/>
<path opacity="0.2" d="M303.083 98.0489L302.209 99.4357L288.306 96.3712C288.047 96.3127 287.816 96.1665 287.655 95.958L279.275 85.1766L280.078 83.9034C280.237 83.653 280.49 83.4749 280.781 83.408C281.073 83.341 281.379 83.3907 281.633 83.5462L302.721 96.5129C302.975 96.6698 303.155 96.9194 303.223 97.2072C303.291 97.495 303.24 97.7976 303.083 98.0489V98.0489Z" fill="black"/>
<path d="M288.999 94.571C288.855 94.4827 288.728 94.3695 288.625 94.2369L276.102 78.1267C275.925 77.8989 275.824 77.6227 275.812 77.3357C275.8 77.0488 275.878 76.7652 276.035 76.5237C276.192 76.2822 276.421 76.0946 276.691 75.9865C276.96 75.8784 277.257 75.855 277.54 75.9197L296.193 80.1798C296.494 80.2495 296.764 80.4138 296.962 80.648L310.562 96.8512C310.75 97.075 310.862 97.3512 310.883 97.6412C310.904 97.9312 310.833 98.2204 310.68 98.4683C310.526 98.7163 310.298 98.9106 310.027 99.0241C309.755 99.1375 309.455 99.1645 309.168 99.1011L289.437 94.7483C289.282 94.714 289.134 94.654 288.999 94.571Z" fill="#FF6884"/>
<path d="M274.395 85.0066L273.916 84.7116L278.243 77.8486L292.861 86.8371L292.562 87.3099L278.424 78.6163L274.395 85.0066Z" fill="#3F3D56"/>
<path d="M273.858 86.4475C274.481 86.4475 274.987 85.9483 274.987 85.3324C274.987 84.7165 274.481 84.2173 273.858 84.2173C273.234 84.2173 272.729 84.7165 272.729 85.3324C272.729 85.9483 273.234 86.4475 273.858 86.4475Z" fill="#3F3D56"/>
<path d="M343.34 155.413C356.769 155.413 367.655 144.662 367.655 131.4C367.655 118.138 356.769 107.387 343.34 107.387C329.911 107.387 319.025 118.138 319.025 131.4C319.025 144.662 329.911 155.413 343.34 155.413Z" fill="#2F2E41"/>
<path d="M360.197 143.851L353.895 147.655L360.796 158.808L367.099 155.004L360.197 143.851Z" fill="#2F2E41"/>
<path d="M347.592 151.46L341.289 155.264L348.191 166.416L354.493 162.612L347.592 151.46Z" fill="#2F2E41"/>
<path d="M363.131 160.249C366.031 158.498 367.844 156.208 367.179 155.133C366.514 154.059 363.624 154.607 360.723 156.358C357.822 158.109 356.01 160.399 356.674 161.474C357.339 162.548 360.23 161.999 363.131 160.249Z" fill="#2F2E41"/>
<path d="M350.365 167.598C353.266 165.847 355.078 163.557 354.414 162.482C353.749 161.408 350.858 161.956 347.957 163.707C345.057 165.458 343.244 167.748 343.909 168.823C344.574 169.897 347.464 169.348 350.365 167.598Z" fill="#2F2E41"/>
<path d="M329.67 127.374C331.324 125.742 328.397 120.199 323.131 114.995C317.865 109.791 312.255 106.895 310.601 108.528C308.947 110.16 311.874 115.703 317.14 120.907C322.406 126.111 328.016 129.007 329.67 127.374Z" fill="#2F2E41"/>
<path d="M376.217 151.754C378.138 150.436 376.251 144.469 372.002 138.426C367.753 132.383 362.751 128.552 360.83 129.869C358.909 131.186 360.796 137.153 365.045 143.197C369.294 149.24 374.296 153.071 376.217 151.754Z" fill="#2F2E41"/>
<path d="M335.896 132.859C340.486 132.859 344.206 129.184 344.206 124.652C344.206 120.119 340.486 116.445 335.896 116.445C331.306 116.445 327.586 120.119 327.586 124.652C327.586 129.184 331.306 132.859 335.896 132.859Z" fill="white"/>
<path d="M333.073 124.6C334.603 124.6 335.843 123.375 335.843 121.864C335.843 120.353 334.603 119.128 333.073 119.128C331.543 119.128 330.303 120.353 330.303 121.864C330.303 123.375 331.543 124.6 333.073 124.6Z" fill="#3F3D56"/>
<path d="M325.194 138.342C323.618 140.892 325.717 144.341 329.883 146.046C334.049 147.752 338.703 147.067 340.279 144.517L340.285 144.508C341.857 141.957 338.804 140.048 334.636 138.345C330.469 136.642 326.765 135.79 325.194 138.342Z" fill="white"/>
<path d="M419.712 193.5H-37.0272C-37.177 193.5 -37.3206 193.441 -37.4264 193.337C-37.5323 193.232 -37.5918 193.09 -37.5918 192.942C-37.5918 192.795 -37.5323 192.653 -37.4264 192.548C-37.3206 192.444 -37.177 192.385 -37.0272 192.385H419.712C419.862 192.385 420.006 192.444 420.111 192.548C420.217 192.653 420.277 192.795 420.277 192.942C420.277 193.09 420.217 193.232 420.111 193.337C420.006 193.441 419.862 193.5 419.712 193.5Z" fill="#CBCBCB"/>
</g>
</g>
<defs>
<clipPath id="clip0_67_8265">
<rect x="0.5" y="0.75" width="381.684" height="216" rx="60" fill="white"/>
</clipPath>
<clipPath id="clip1_67_8265">
<rect width="457.869" height="169.5" fill="white" transform="translate(-37.5918 24)"/>
</clipPath>
</defs>
</svg>
