<svg width="700" height="810" viewBox="0 0 700 810" fill="none" xmlns="http://www.w3.org/2000/svg">
<path fill-rule="evenodd" clip-rule="evenodd" d="M600.321 19.4852C693.101 -3.94444 762.213 -127.981 854.364 -102.246C937.401 -79.0567 926.005 48.0617 968.343 122.261C1010.11 195.464 1087.34 249.174 1102.09 331.91C1117.68 419.36 1119.42 530.646 1051.55 588.959C978.676 651.576 856.04 579.073 768.197 618.809C693.083 652.788 677.834 764.825 600.321 793.078C517.744 823.177 421.343 810.78 341.421 774.368C258.771 736.714 197.226 665.244 150.511 588.15C103.365 510.344 69.3534 422.477 73.3134 331.91C77.2041 242.925 107.436 149.991 172.375 88.1246C233.904 29.5056 327.268 23.0823 411.69 9.5416C474.918 -0.599716 538.263 35.1566 600.321 19.4852Z" fill="#E5E3FF"/>
<g clip-path="url(#clip0_107_3)">
<path d="M682.125 623.053L675.212 626.003L660.559 600.705L670.762 596.351L682.125 623.053Z" fill="#FFB6B6"/>
<path d="M624.995 629.604L617.481 629.603L613.906 600.578H624.997L624.995 629.604Z" fill="#FFB6B6"/>
<path d="M625.26 637.454L602.152 637.454V637.161C602.153 634.772 603.1 632.481 604.787 630.792C606.474 629.103 608.761 628.154 611.147 628.154H611.147L615.368 624.947L623.243 628.154L625.261 628.154L625.26 637.454Z" fill="#2F2E41"/>
<path d="M686.327 628.078L665.069 637.15L664.954 636.881C664.019 634.684 663.994 632.204 664.884 629.988C665.775 627.772 667.508 626.001 669.702 625.064L669.703 625.064L672.33 620.456L680.831 620.315L682.686 619.523L686.327 628.078Z" fill="#2F2E41"/>
<path d="M617.625 457.818L606.205 527.457L609.313 537.835L605.234 545.184L611.224 609.731L608.792 615.091L615.585 619.286H629.407L630.141 560.852L633.555 552.272V547.544L640.505 511.912L641.785 552.67L643.807 561.263L642.109 567.381L644.328 571.668L663.344 612.56H678.843L677.645 603.313C680.422 601.905 673.476 597.79 672.808 594.745L675.09 589.603L672.808 579.89L670.716 560.91L672.922 520.847L671.884 466.898C666.68 459.911 660.907 454.523 653.753 453.014L617.625 457.818Z" fill="#2F2E41"/>
<path d="M645.436 366.107C654.087 366.107 661.099 359.084 661.099 350.421C661.099 341.759 654.087 334.736 645.436 334.736C636.786 334.736 629.773 341.759 629.773 350.421C629.773 359.084 636.786 366.107 645.436 366.107Z" fill="#FFB6B6"/>
<path d="M580.861 474.271C580.666 473.39 580.666 472.477 580.861 471.596C581.057 470.716 581.443 469.888 581.992 469.173C582.541 468.457 583.24 467.871 584.04 467.456C584.84 467.04 585.721 466.805 586.621 466.767L592.93 445.762L600.225 454.512L593.115 473.118C593.078 474.636 592.486 476.089 591.451 477.2C590.416 478.311 589.01 479.003 587.5 479.145C585.989 479.287 584.479 478.869 583.256 477.971C582.032 477.073 581.18 475.757 580.861 474.271Z" fill="#FFB6B6"/>
<path d="M621.791 387.934L618.963 382.76L615.319 383.978C615.319 383.978 611.297 386.577 605.665 396.39C603.06 400.929 597.428 430.032 597.428 430.032L584.266 464.935L597.685 467.207L608.882 438.443L621.862 410.916L621.791 387.934Z" fill="#6C63FF"/>
<path d="M644.859 457.598C655.887 457.598 667.014 459.772 671.571 467.546C671.452 465.855 671.153 462.925 670.843 460.236L669.703 453.011L670.858 446.386L672.385 444.857L669.65 442.118L671.516 428.29L677.674 395.715C678.156 393.152 677.78 390.501 676.603 388.175C675.426 385.849 673.514 383.977 671.165 382.852L665.248 380.003L655.657 371.094L638.308 370.964L632.648 378.333L617.749 383.401L620.25 435.213L618.61 439.044C618.978 439.382 619.753 440.104 620.173 440.569C620.767 441.227 620.01 444.614 619.507 446.575L618.814 451.798L620.994 453.357L618.16 456.71L617.594 460.965C620.407 460.298 632.572 457.598 644.859 457.598Z" fill="#6C63FF"/>
<path d="M649.445 365.339C649.512 365.191 649.579 365.043 649.646 364.895C649.62 364.895 649.594 364.899 649.569 364.9L649.445 365.339Z" fill="#2F2E41"/>
<path d="M661.537 335.449C660.793 334.747 659.826 334.328 658.806 334.267C657.793 334.3 656.766 335.216 656.976 336.209C655.115 332.91 652.154 330.373 648.612 329.043C645.07 327.713 641.173 327.675 637.606 328.935C635.088 329.824 632.62 331.604 632.042 334.213C631.985 334.899 631.781 335.563 631.444 336.162C631.151 336.482 630.771 336.709 630.351 336.816C629.931 336.922 629.489 336.903 629.08 336.762L629.055 336.754C628.915 336.706 628.763 336.702 628.62 336.741C628.478 336.78 628.35 336.861 628.253 336.974C628.157 337.086 628.097 337.225 628.08 337.373C628.064 337.52 628.092 337.669 628.161 337.8L628.873 339.131C627.975 339.331 627.042 339.311 626.154 339.073C626.006 339.034 625.85 339.042 625.707 339.095C625.564 339.149 625.441 339.246 625.355 339.372C625.269 339.498 625.224 339.648 625.227 339.801C625.229 339.953 625.279 340.102 625.368 340.225C626.552 341.847 628.097 343.17 629.881 344.088C631.666 345.006 633.639 345.495 635.645 345.515C638.491 345.498 641.366 344.515 644.136 345.171C645.207 345.424 646.208 345.915 647.066 346.606C647.923 347.298 648.615 348.173 649.091 349.167C649.567 350.162 649.814 351.25 649.815 352.353C649.816 353.455 649.57 354.544 649.096 355.539C649.947 354.607 651.592 354.828 652.462 355.741C652.863 356.231 653.159 356.797 653.333 357.405C653.506 358.014 653.553 358.652 653.47 359.279C653.238 361.2 652.668 363.065 651.788 364.788C655.153 364.685 658.405 363.549 661.106 361.535C663.806 359.521 665.824 356.726 666.887 353.526C667.95 350.327 668.007 346.878 667.05 343.645C666.094 340.413 664.169 337.552 661.537 335.449H661.537Z" fill="#2F2E41"/>
<path d="M155.331 276.888C176.838 276.888 194.272 259.428 194.272 237.891C194.272 216.354 176.838 198.895 155.331 198.895C133.825 198.895 116.391 216.354 116.391 237.891C116.391 259.428 133.825 276.888 155.331 276.888Z" fill="#6C63FF"/>
<path d="M45.8855 353.894C26.3463 310.613 27.0668 255.752 57.3909 219.23C67.5361 269.874 95.2423 315.292 135.608 347.449C151.22 359.794 169.868 371.897 174.132 391.354C176.786 403.461 173.025 416.267 166.522 426.813C160.018 437.359 150.953 446.035 141.991 454.585L140.986 457.51C101.989 430.472 65.4247 397.175 45.8855 353.894Z" fill="#F2F2F2"/>
<path d="M58.2367 219.758C51.258 258.027 56.4423 298.776 73.405 333.837C77.0723 341.418 81.4512 348.787 87.314 354.884C93.1794 360.983 100.192 364.823 108.26 367.182C115.635 369.338 123.428 370.689 130.152 374.603C137.239 378.729 141.637 385.652 143.35 393.591C145.446 403.304 143.932 413.193 142.116 422.811C140.1 433.491 137.836 444.552 140.758 455.287C141.112 456.588 139.076 457.062 138.723 455.764C133.639 437.085 143.523 418.663 142.141 399.884C141.497 391.121 138.211 382.5 130.708 377.423C124.148 372.983 116.112 371.583 108.626 369.464C100.765 367.24 93.7051 363.841 87.6978 358.204C81.5528 352.438 76.8769 345.224 73.0322 337.771C64.3614 320.962 58.6455 302.443 55.6214 283.798C52.144 262.368 52.3528 240.5 56.239 219.14C56.48 217.818 58.4762 218.445 58.2367 219.758H58.2367Z" fill="white"/>
<path d="M67.2884 322.732C60.9583 324.764 54.1131 324.476 47.9754 321.92C41.8377 319.364 36.807 314.706 33.7819 308.779C33.1739 307.577 35.0097 306.575 35.6185 307.778C38.4253 313.303 43.1118 317.641 48.8321 320.009C54.5524 322.378 60.9297 322.62 66.813 320.693C68.092 320.276 68.5601 322.317 67.2884 322.732H67.2884Z" fill="white"/>
<path d="M104.375 366.581C110.7 354.538 112.26 340.549 108.744 327.405C108.394 326.103 110.431 325.629 110.78 326.929C114.413 340.614 112.76 355.168 106.15 367.686C105.519 368.879 103.747 367.768 104.375 366.581H104.375Z" fill="white"/>
<path d="M54.8299 263.048C57.4428 262.773 59.9465 261.852 62.1162 260.369C64.286 258.885 66.0539 256.885 67.2611 254.549C67.8765 253.348 69.6481 254.461 69.0367 255.654C67.6909 258.229 65.7358 260.435 63.3422 262.08C60.9485 263.724 58.1892 264.756 55.3053 265.086C55.0361 265.14 54.7564 265.09 54.5232 264.944C54.29 264.799 54.1207 264.571 54.0498 264.305C53.9882 264.035 54.0356 263.751 54.1817 263.516C54.3278 263.28 54.5607 263.112 54.8299 263.048V263.048Z" fill="white"/>
<path d="M217.982 219.654C217.619 220.414 217.256 221.174 216.901 221.95C212.074 232.198 208.086 242.821 204.976 253.716C204.723 254.554 204.478 255.408 204.249 256.252C197.037 282.579 194.769 310.018 197.559 337.174C198.679 347.979 200.619 358.683 203.361 369.193C207.148 383.708 212.408 399.145 211.221 413.638C211.115 415.152 210.914 416.657 210.621 418.146L144.628 458.512C144.432 458.528 144.245 458.56 144.048 458.577L141.487 460.309C141.307 459.777 141.133 459.221 140.954 458.689C140.848 458.381 140.758 458.064 140.653 457.755C140.587 457.547 140.522 457.338 140.451 457.154C140.429 457.084 140.408 457.015 140.395 456.961C140.324 456.776 140.278 456.598 140.216 456.428C139.232 453.324 138.268 450.208 137.325 447.079C137.316 447.064 137.316 447.064 137.321 447.04C130.192 423.182 124.989 398.518 123.69 373.848C123.651 373.105 123.603 372.349 123.594 371.588C123.07 360.464 123.455 349.317 124.744 338.256C125.47 332.202 126.501 326.188 127.834 320.238C131.307 304.871 137.172 290.147 145.215 276.606C161.251 249.613 185.729 228.057 215.687 220.229C216.454 220.03 217.206 219.838 217.982 219.654Z" fill="#F2F2F2"/>
<path d="M218.344 220.583C189.765 246.931 169.405 282.593 161.87 320.815C160.241 329.078 159.306 337.603 160.322 346.005C161.338 354.412 164.629 361.706 169.652 368.453C174.245 374.622 179.655 380.399 182.67 387.578C185.848 395.145 185.198 403.324 181.793 410.696C177.627 419.716 170.473 426.698 163.24 433.283C155.209 440.595 146.752 448.061 142.631 458.395C142.131 459.647 140.22 458.798 140.719 457.548C147.89 439.569 166.857 430.819 177.044 414.992C181.798 407.607 184.358 398.742 181.42 390.165C178.85 382.664 173.276 376.702 168.572 370.497C163.633 363.981 160.04 357.011 158.632 348.888C157.193 340.579 157.796 332 159.207 323.731C162.39 305.082 168.96 286.85 177.755 270.139C187.862 250.931 201.176 233.597 217.121 218.885C218.108 217.975 219.325 219.679 218.344 220.583L218.344 220.583Z" fill="white"/>
<path d="M163.664 308.261C157.389 306.067 152.096 301.71 148.732 295.969C145.368 290.227 144.152 283.475 145.3 276.919C145.537 275.593 147.606 275.899 147.368 277.227C146.288 283.33 147.422 289.62 150.565 294.96C153.709 300.3 158.655 304.338 164.511 306.347C165.783 306.785 164.929 308.697 163.664 308.261H163.664Z" fill="white"/>
<path d="M166.915 365.633C179.206 359.83 188.862 349.602 193.957 336.987C194.461 335.737 196.372 336.585 195.869 337.834C190.542 350.952 180.472 361.576 167.669 367.585C166.448 368.157 165.701 366.202 166.915 365.633L166.915 365.633Z" fill="white"/>
<path d="M189.598 253.095C191.85 254.45 194.402 255.225 197.027 255.349C199.651 255.472 202.265 254.942 204.634 253.804C205.847 253.216 206.592 255.173 205.387 255.756C202.764 257.001 199.877 257.584 196.977 257.454C194.077 257.324 191.253 256.484 188.752 255.009C188.505 254.89 188.312 254.681 188.213 254.424C188.114 254.168 188.117 253.883 188.22 253.628C188.333 253.375 188.541 253.177 188.799 253.077C189.058 252.978 189.345 252.984 189.598 253.095V253.095Z" fill="white"/>
<path d="M374.21 306.487C354.671 263.205 355.391 208.345 385.715 171.822C395.86 222.467 423.567 267.885 463.932 300.042C479.544 312.387 498.192 324.489 502.457 343.947C505.111 356.054 501.349 368.859 494.846 379.405C488.342 389.952 479.277 398.627 470.315 407.177L469.31 410.103C430.313 383.065 393.749 349.768 374.21 306.487Z" fill="#F2F2F2"/>
<path d="M386.561 172.35C379.582 210.619 384.767 251.368 401.729 286.43C405.397 294.01 409.776 301.38 415.638 307.476C421.504 313.576 428.517 317.415 436.584 319.774C443.959 321.931 451.753 323.281 458.476 327.195C465.563 331.321 469.961 338.244 471.674 346.183C473.771 355.897 472.257 365.785 470.44 375.404C468.424 386.083 466.16 397.144 469.082 407.88C469.437 409.181 467.4 409.655 467.047 408.356C461.963 389.677 471.847 371.255 470.466 352.476C469.821 343.713 466.535 335.092 459.033 330.015C452.472 325.575 444.436 324.176 436.95 322.057C429.089 319.832 422.029 316.434 416.022 310.797C409.877 305.03 405.201 297.816 401.356 290.363C392.686 273.555 386.97 255.036 383.946 236.391C380.468 214.96 380.677 193.092 384.563 171.732C384.804 170.411 386.8 171.037 386.561 172.35H386.561Z" fill="white"/>
<path d="M395.617 275.325C389.286 277.356 382.441 277.068 376.304 274.512C370.166 271.956 365.135 267.299 362.11 261.371C361.502 260.17 363.338 259.167 363.947 260.37C366.753 265.895 371.44 270.233 377.16 272.602C382.881 274.97 389.258 275.213 395.141 273.286C396.42 272.869 396.888 274.91 395.617 275.325V275.325Z" fill="white"/>
<path d="M432.699 319.174C439.024 307.13 440.584 293.142 437.068 279.998C436.719 278.696 438.755 278.221 439.104 279.522C442.737 293.207 441.084 307.761 434.474 320.279C433.844 321.472 432.071 320.36 432.699 319.174H432.699Z" fill="white"/>
<path d="M383.154 215.64C385.767 215.365 388.271 214.445 390.44 212.961C392.61 211.478 394.378 209.478 395.585 207.141C396.201 205.941 397.972 207.054 397.361 208.246C396.015 210.822 394.06 213.028 391.666 214.672C389.273 216.317 386.513 217.349 383.63 217.679C383.36 217.733 383.081 217.682 382.847 217.537C382.614 217.392 382.445 217.163 382.374 216.898C382.312 216.627 382.36 216.344 382.506 216.108C382.652 215.873 382.885 215.705 383.154 215.64V215.64Z" fill="white"/>
<path d="M546.306 172.246C545.943 173.006 545.58 173.767 545.226 174.543C540.398 184.79 536.41 195.414 533.301 206.308C533.047 207.147 532.802 208 532.573 208.844C525.361 235.171 523.093 262.61 525.883 289.766C527.003 300.571 528.943 311.275 531.685 321.786C535.473 336.301 540.733 351.737 539.546 366.231C539.439 367.744 539.238 369.25 538.946 370.739L472.952 411.104C472.756 411.121 472.569 411.153 472.372 411.169L469.811 412.902C469.632 412.37 469.457 411.814 469.278 411.282C469.173 410.973 469.082 410.656 468.977 410.348C468.911 410.139 468.847 409.931 468.776 409.746C468.753 409.677 468.732 409.607 468.719 409.553C468.648 409.369 468.602 409.19 468.54 409.021C467.556 405.917 466.593 402.8 465.649 399.671C465.64 399.656 465.64 399.656 465.645 399.632C458.516 375.774 453.314 351.111 452.014 326.44C451.976 325.698 451.927 324.941 451.918 324.18C451.394 313.057 451.779 301.909 453.068 290.848C453.794 284.794 454.825 278.78 456.158 272.831C459.631 257.464 465.497 242.74 473.539 229.198C489.575 202.206 514.053 180.65 544.011 172.822C544.778 172.622 545.531 172.431 546.306 172.246Z" fill="#F0F0F0"/>
<path d="M546.669 173.176C518.089 199.524 497.73 235.185 490.194 273.407C488.565 281.671 487.63 290.195 488.646 298.598C489.662 307.004 492.953 314.298 497.977 321.046C502.569 327.214 507.98 332.992 510.995 340.171C514.172 347.738 513.522 355.917 510.117 363.289C505.951 372.308 498.797 379.291 491.564 385.876C483.533 393.187 475.076 400.654 470.955 410.988C470.455 412.24 468.545 411.391 469.043 410.14C476.214 392.161 495.181 383.412 505.369 367.585C510.122 360.199 512.682 351.335 509.744 342.758C507.174 335.257 501.6 329.295 496.896 323.089C491.957 316.573 488.364 309.603 486.956 301.48C485.517 293.171 486.12 284.592 487.531 276.323C490.714 257.675 497.284 239.442 506.079 222.731C516.186 203.524 529.501 186.189 545.445 171.478C546.432 170.568 547.649 172.272 546.669 173.176L546.669 173.176Z" fill="white"/>
<path d="M491.993 260.854C485.717 258.659 480.425 254.303 477.061 248.561C473.697 242.82 472.48 236.068 473.628 229.511C473.865 228.185 475.934 228.492 475.697 229.819C474.616 235.923 475.75 242.212 478.893 247.552C482.037 252.892 486.983 256.931 492.839 258.94C494.111 259.378 493.257 261.289 491.993 260.854H491.993Z" fill="white"/>
<path d="M495.239 318.225C507.531 312.423 517.186 302.194 522.281 289.579C522.785 288.329 524.696 289.178 524.193 290.427C518.866 303.544 508.796 314.168 495.993 320.178C494.772 320.75 494.025 318.794 495.239 318.225L495.239 318.225Z" fill="white"/>
<path d="M517.927 205.687C520.178 207.043 522.731 207.817 525.355 207.941C527.979 208.065 530.593 207.534 532.962 206.396C534.175 205.809 534.92 207.765 533.715 208.349C531.092 209.594 528.205 210.177 525.305 210.046C522.405 209.916 519.582 209.077 517.08 207.601C516.833 207.482 516.64 207.273 516.541 207.017C516.442 206.76 516.445 206.476 516.548 206.221C516.661 205.968 516.869 205.77 517.128 205.67C517.386 205.57 517.673 205.576 517.927 205.687Z" fill="white"/>
<path d="M125.172 627.474L132.385 633.068L160.429 637.941L191.6 560.345C191.6 560.345 210.689 500.544 264.137 512.778L435.935 509.72C435.935 509.72 488.683 504.306 497.401 529.218C499.052 533.937 543.595 638.179 543.595 638.179L574.825 633.765L571.083 544.893L496.908 372.467L367.98 364.406L235.123 373.614L125.172 627.474Z" fill="#3F3D56"/>
<path d="M267.955 518.131C295.365 518.131 317.585 495.879 317.585 468.429C317.585 440.98 295.365 418.728 267.955 418.728C240.545 418.728 218.324 440.98 218.324 468.429C218.324 495.879 240.545 518.131 267.955 518.131Z" fill="#2F2E41"/>
<path d="M434.408 518.131C461.818 518.131 484.038 495.879 484.038 468.429C484.038 440.98 461.818 418.728 434.408 418.728C406.998 418.728 384.777 440.98 384.777 468.429C384.777 495.879 406.998 518.131 434.408 518.131Z" fill="#2F2E41"/>
<path d="M209.926 305.562L230.361 301.549C230.361 301.549 384.219 279.564 481.469 305.562L474.113 326.207L216.798 324.678L209.926 305.562Z" fill="#E6E6E6"/>
<path d="M417.374 412.229H286.801C270.947 412.229 257.245 401.235 254.221 386.088L239.931 314.515C239.615 312.953 239.628 311.342 239.968 309.786C240.309 308.229 240.97 306.76 241.909 305.474C242.891 304.124 244.141 302.991 245.579 302.145C247.017 301.299 248.613 300.758 250.269 300.556C319.135 291.995 387.327 291.981 452.952 300.511C454.585 300.711 456.159 301.246 457.576 302.081C458.993 302.917 460.224 304.036 461.191 305.368C462.124 306.636 462.787 308.083 463.138 309.618C463.489 311.153 463.52 312.745 463.231 314.293L450.04 385.647C447.193 401.049 433.455 412.229 417.374 412.229Z" fill="#6C63FF"/>
<path d="M151.844 317.214L152.412 306.972C152.501 305.376 152.974 303.826 153.792 302.453C154.61 301.081 155.747 299.927 157.107 299.091C165.352 294.026 187.591 282.875 215.971 288.721C217.964 289.134 219.781 290.151 221.176 291.635C222.572 293.119 223.477 294.997 223.768 297.014L224.528 302.343L151.844 317.214Z" fill="#3F3D56"/>
<path d="M552.048 317.214L479.363 302.343L480.584 293.781C480.725 292.77 481.165 291.825 481.846 291.066C482.528 290.307 483.421 289.77 484.41 289.523C517.14 281.298 542.192 295.905 549.091 300.578C549.746 301.023 550.29 301.613 550.68 302.302C551.071 302.991 551.299 303.761 551.345 304.552L552.048 317.214Z" fill="#3F3D56"/>
<path d="M128.766 634.153C127.014 634.172 125.294 633.687 123.809 632.757C104.347 621.376 92.2142 600.52 87.7742 570.786C84.1068 546.225 85.6383 515.397 92.326 479.157C104.183 414.907 129.034 350.686 139.168 326.057C140.511 322.806 142.597 319.917 145.259 317.621C147.921 315.326 151.084 313.688 154.493 312.841C175.385 307.695 211.856 299.062 221.381 299.062C234.433 299.062 241.496 311.367 241.566 311.491L241.605 311.593L253.068 361.371V362.09C259.392 383.517 254.693 398.995 249.634 408.207C244.143 418.206 237.039 423.199 236.968 423.248C225.812 431.753 207.636 459.152 189.548 494.744C170.75 531.731 156.815 568.226 152.273 592.372C146.713 621.924 138.563 630.972 132.704 633.357C131.456 633.876 130.118 634.147 128.766 634.153V634.153Z" fill="#C1BDFF"/>
<path d="M413.068 406.111H289.694C282.413 406.101 275.36 403.56 269.742 398.921C264.124 394.282 260.288 387.834 258.889 380.678L245.388 311.068C245.088 309.527 245.106 307.941 245.443 306.408C245.779 304.875 246.425 303.427 247.342 302.154C248.259 300.88 249.427 299.809 250.774 299.005C252.121 298.202 253.617 297.683 255.172 297.482C320.245 289.156 384.68 289.142 446.689 297.438C448.221 297.647 449.696 298.165 451.024 298.96C452.351 299.755 453.504 300.811 454.414 302.065C455.323 303.318 455.969 304.743 456.313 306.253C456.657 307.764 456.693 309.328 456.417 310.853L443.954 380.249C442.656 387.504 438.85 394.071 433.203 398.8C427.557 403.528 420.429 406.117 413.068 406.111V406.111Z" fill="#C1BDFF"/>
<path d="M575.129 634.154C573.776 634.148 572.437 633.877 571.188 633.356C565.33 630.971 557.179 621.924 551.619 592.371C547.077 568.226 533.142 531.731 514.345 494.744C496.256 459.152 478.08 431.753 466.91 423.238C466.853 423.199 459.749 418.206 454.258 408.207C449.199 398.995 444.501 383.517 450.825 362.09L450.834 361.285L462.3 311.539L462.327 311.491C462.397 311.367 469.459 299.062 482.512 299.062C492.036 299.062 528.507 307.695 549.399 312.841C552.808 313.689 555.971 315.326 558.633 317.621C561.295 319.917 563.381 322.806 564.724 326.057V326.057C574.858 350.686 599.709 414.907 611.566 479.157C618.254 515.397 619.786 546.225 616.118 570.786C611.678 600.52 599.545 621.376 580.056 632.774C578.579 633.695 576.869 634.174 575.129 634.154V634.154Z" fill="#C1BDFF"/>
<path d="M267.958 489.839C284.404 489.839 297.736 476.488 297.736 460.018C297.736 443.549 284.404 430.198 267.958 430.198C251.512 430.198 238.18 443.549 238.18 460.018C238.18 476.488 251.512 489.839 267.958 489.839Z" fill="#3F3D56"/>
<path d="M267.958 479.899C278.922 479.899 287.81 470.998 287.81 460.018C287.81 449.039 278.922 440.138 267.958 440.138C256.994 440.138 248.105 449.039 248.105 460.018C248.105 470.998 256.994 479.899 267.958 479.899Z" fill="#2F2E41"/>
<path d="M434.411 489.839C450.857 489.839 464.189 476.488 464.189 460.018C464.189 443.549 450.857 430.198 434.411 430.198C417.965 430.198 404.633 443.549 404.633 460.018C404.633 476.488 417.965 489.839 434.411 489.839Z" fill="#3F3D56"/>
<path d="M434.411 479.899C445.375 479.899 454.263 470.998 454.263 460.018C454.263 449.039 445.375 440.138 434.411 440.138C423.447 440.138 414.559 449.039 414.559 460.018C414.559 470.998 423.447 479.899 434.411 479.899Z" fill="#2F2E41"/>
<path d="M332.857 424.08C334.122 424.08 335.148 423.053 335.148 421.786C335.148 420.52 334.122 419.493 332.857 419.493C331.592 419.493 330.566 420.52 330.566 421.786C330.566 423.053 331.592 424.08 332.857 424.08Z" fill="#2F2E41"/>
<path d="M342.783 424.08C344.048 424.08 345.073 423.053 345.073 421.786C345.073 420.52 344.048 419.493 342.783 419.493C341.518 419.493 340.492 420.52 340.492 421.786C340.492 423.053 341.518 424.08 342.783 424.08Z" fill="#2F2E41"/>
<path d="M338.201 432.491C339.466 432.491 340.491 431.464 340.491 430.198C340.491 428.931 339.466 427.904 338.201 427.904C336.936 427.904 335.91 428.931 335.91 430.198C335.91 431.464 336.936 432.491 338.201 432.491Z" fill="#2F2E41"/>
<path d="M347.365 432.491C348.63 432.491 349.655 431.464 349.655 430.198C349.655 428.931 348.63 427.904 347.365 427.904C346.1 427.904 345.074 428.931 345.074 430.198C345.074 431.464 346.1 432.491 347.365 432.491Z" fill="#2F2E41"/>
<path d="M356.529 432.491C357.794 432.491 358.82 431.464 358.82 430.198C358.82 428.931 357.794 427.904 356.529 427.904C355.264 427.904 354.238 428.931 354.238 430.198C354.238 431.464 355.264 432.491 356.529 432.491Z" fill="#2F2E41"/>
<path d="M365.689 432.491C366.954 432.491 367.98 431.464 367.98 430.198C367.98 428.931 366.954 427.904 365.689 427.904C364.424 427.904 363.398 428.931 363.398 430.198C363.398 431.464 364.424 432.491 365.689 432.491Z" fill="#2F2E41"/>
<path d="M352.709 424.08C353.974 424.08 354.999 423.053 354.999 421.786C354.999 420.52 353.974 419.493 352.709 419.493C351.444 419.493 350.418 420.52 350.418 421.786C350.418 423.053 351.444 424.08 352.709 424.08Z" fill="#2F2E41"/>
<path d="M362.634 424.08C363.899 424.08 364.925 423.053 364.925 421.786C364.925 420.52 363.899 419.493 362.634 419.493C361.369 419.493 360.344 420.52 360.344 421.786C360.344 423.053 361.369 424.08 362.634 424.08Z" fill="#2F2E41"/>
<path d="M372.564 424.08C373.829 424.08 374.855 423.053 374.855 421.786C374.855 420.52 373.829 419.493 372.564 419.493C371.299 419.493 370.273 420.52 370.273 421.786C370.273 423.053 371.299 424.08 372.564 424.08Z" fill="#2F2E41"/>
<path d="M361.874 492.515H342.022C341.111 492.515 340.237 492.153 339.592 491.508C338.948 490.862 338.586 489.987 338.586 489.075C338.586 488.162 338.948 487.287 339.592 486.641C340.237 485.996 341.111 485.634 342.022 485.634H361.874C362.785 485.634 363.659 485.996 364.304 486.641C364.948 487.287 365.31 488.162 365.31 489.075C365.31 489.987 364.948 490.862 364.304 491.508C363.659 492.153 362.785 492.515 361.874 492.515Z" fill="#2F2E41"/>
<path d="M230.425 342.942C229.144 342.938 227.901 342.503 226.898 341.705C225.894 340.907 225.188 339.794 224.894 338.546L221.85 325.602C221.505 324.13 221.758 322.582 222.553 321.298C223.347 320.013 224.619 319.097 226.088 318.75C227.556 318.404 229.102 318.655 230.386 319.45C231.67 320.244 232.586 321.516 232.934 322.987L235.978 335.931C236.174 336.769 236.178 337.64 235.99 338.48C235.803 339.32 235.428 340.106 234.894 340.78C234.36 341.455 233.68 341.999 232.907 342.374C232.133 342.748 231.285 342.942 230.425 342.942V342.942Z" fill="#3F3D56"/>
<path d="M474.234 342.177C473.375 342.177 472.527 341.983 471.753 341.609C470.979 341.235 470.3 340.69 469.766 340.016C469.232 339.342 468.857 338.555 468.669 337.715C468.481 336.876 468.485 336.004 468.681 335.166L471.726 322.222C472.073 320.752 472.99 319.479 474.273 318.685C475.557 317.891 477.103 317.639 478.572 317.985C480.041 318.332 481.312 319.248 482.107 320.533C482.902 321.818 483.154 323.366 482.81 324.837L479.765 337.781C479.471 339.03 478.765 340.143 477.762 340.94C476.758 341.738 475.515 342.174 474.234 342.177V342.177Z" fill="#3F3D56"/>
<path d="M188.416 381.149C186.543 381.149 184.714 380.572 183.18 379.494L176.789 375.014C175.587 374.171 174.605 373.05 173.927 371.746C173.249 370.442 172.895 368.993 172.895 367.523V353.803C172.898 351.048 173.992 348.406 175.937 346.458C177.883 344.51 180.52 343.414 183.271 343.411H193.06C195.811 343.414 198.448 344.51 200.394 346.458C202.339 348.406 203.433 351.048 203.436 353.803V367.658C203.434 369.09 203.096 370.502 202.451 371.78C201.806 373.058 200.871 374.167 199.722 375.019L193.833 379.364C192.264 380.524 190.366 381.149 188.416 381.149V381.149Z" fill="#3F3D56"/>
<path d="M193.06 431.344H183.271C180.52 431.341 177.883 430.245 175.937 428.297C173.992 426.349 172.898 423.708 172.895 420.953V407.233C172.895 405.762 173.249 404.314 173.927 403.01C174.605 401.706 175.587 400.585 176.789 399.741L183.18 395.261C184.745 394.163 186.616 393.584 188.527 393.608C190.439 393.631 192.295 394.255 193.833 395.391L199.722 399.737C200.871 400.588 201.806 401.698 202.451 402.976C203.096 404.254 203.434 405.666 203.436 407.098V420.953C203.433 423.708 202.339 426.349 200.394 428.297C198.448 430.245 195.811 431.341 193.06 431.344V431.344Z" fill="#3F3D56"/>
<path d="M223.6 402.671H209.899C208.431 402.67 206.985 402.315 205.683 401.636C204.381 400.957 203.261 399.974 202.419 398.77L197.945 392.37C196.848 390.803 196.27 388.93 196.294 387.015C196.317 385.101 196.94 383.243 198.075 381.702L202.414 375.805C203.265 374.654 204.372 373.718 205.649 373.072C206.925 372.426 208.335 372.088 209.765 372.085H223.6C226.351 372.088 228.989 373.184 230.934 375.132C232.879 377.08 233.974 379.722 233.977 382.477V392.279C233.974 395.034 232.879 397.675 230.934 399.623C228.989 401.572 226.351 402.667 223.6 402.671V402.671Z" fill="#3F3D56"/>
<path d="M165.667 402.671H151.967C149.216 402.667 146.578 401.572 144.633 399.623C142.687 397.675 141.593 395.034 141.59 392.279V382.477C141.593 379.722 142.687 377.08 144.633 375.132C146.578 373.184 149.216 372.088 151.967 372.085H165.802C167.232 372.088 168.642 372.426 169.918 373.072C171.194 373.718 172.302 374.654 173.153 375.805L177.492 381.702C178.627 383.243 179.25 385.101 179.273 387.015C179.296 388.93 178.719 390.803 177.622 392.37L173.148 398.77C172.306 399.974 171.186 400.957 169.884 401.636C168.582 402.315 167.135 402.67 165.667 402.671V402.671Z" fill="#3F3D56"/>
<path d="M516.108 365.968C525.807 365.968 533.67 358.094 533.67 348.381C533.67 338.668 525.807 330.795 516.108 330.795C506.409 330.795 498.547 338.668 498.547 348.381C498.547 358.094 506.409 365.968 516.108 365.968Z" fill="#3F3D56"/>
<path d="M555.05 406.494C564.749 406.494 572.611 398.62 572.611 388.907C572.611 379.194 564.749 371.32 555.05 371.32C545.351 371.32 537.488 379.194 537.488 388.907C537.488 398.62 545.351 406.494 555.05 406.494Z" fill="#3F3D56"/>
<path d="M516.108 444.726C525.807 444.726 533.67 436.852 533.67 427.139C533.67 417.426 525.807 409.552 516.108 409.552C506.409 409.552 498.547 417.426 498.547 427.139C498.547 436.852 506.409 444.726 516.108 444.726Z" fill="#3F3D56"/>
<path d="M477.167 405.729C486.866 405.729 494.729 397.855 494.729 388.142C494.729 378.43 486.866 370.556 477.167 370.556C467.468 370.556 459.605 378.43 459.605 388.142C459.605 397.855 467.468 405.729 477.167 405.729Z" fill="#3F3D56"/>
<path d="M555.051 400.377C552.786 400.377 550.571 399.704 548.688 398.444C546.804 397.183 545.336 395.392 544.47 393.296C543.603 391.201 543.376 388.894 543.818 386.669C544.26 384.445 545.35 382.401 546.952 380.797C548.554 379.193 550.595 378.1 552.816 377.658C555.038 377.215 557.341 377.442 559.434 378.311C561.527 379.179 563.315 380.649 564.574 382.535C565.832 384.421 566.504 386.639 566.504 388.907C566.501 391.948 565.293 394.863 563.146 397.013C560.999 399.164 558.087 400.373 555.051 400.377V400.377ZM555.051 378.967C553.088 378.967 551.169 379.55 549.536 380.642C547.904 381.734 546.632 383.287 545.88 385.103C545.129 386.919 544.932 388.918 545.316 390.846C545.699 392.775 546.644 394.546 548.032 395.936C549.42 397.326 551.189 398.273 553.114 398.656C555.04 399.04 557.036 398.843 558.849 398.091C560.663 397.338 562.213 396.064 563.304 394.43C564.395 392.795 564.977 390.873 564.977 388.907C564.974 386.272 563.927 383.745 562.066 381.881C560.206 380.018 557.683 378.97 555.051 378.967V378.967Z" fill="#E6E6E6"/>
<path d="M528.38 356.914L505.363 356.588L517.154 336.79L528.38 356.914ZM508.03 355.097L525.757 355.348L517.111 339.848L508.03 355.097Z" fill="#E6E6E6"/>
<path d="M486.329 397.318H468.004V378.967H486.329V397.318ZM469.531 395.789H484.802V380.496H469.531V395.789Z" fill="#E6E6E6"/>
<path d="M525.586 435.035L517.19 426.643L524.594 419.243L523.514 418.161L516.109 425.562L508.704 418.161L507.625 419.243L515.028 426.643L506.633 435.035L507.712 436.117L516.109 427.724L524.507 436.117L525.586 435.035Z" fill="#E6E6E6"/>
<path d="M188.391 227.461C186.125 227.461 183.911 226.788 182.028 225.528C180.144 224.267 178.676 222.476 177.809 220.38C176.942 218.284 176.716 215.978 177.158 213.753C177.6 211.529 178.69 209.485 180.292 207.881C181.894 206.277 183.935 205.184 186.156 204.742C188.378 204.299 190.681 204.526 192.774 205.394C194.866 206.263 196.655 207.733 197.914 209.619C199.172 211.505 199.844 213.723 199.844 215.991C199.84 219.032 198.633 221.947 196.486 224.097C194.338 226.248 191.427 227.457 188.391 227.461V227.461ZM188.391 206.051C186.427 206.051 184.508 206.634 182.876 207.726C181.244 208.818 179.971 210.371 179.22 212.187C178.469 214.003 178.272 216.002 178.655 217.93C179.038 219.858 179.984 221.63 181.372 223.02C182.76 224.41 184.529 225.357 186.454 225.74C188.38 226.124 190.375 225.927 192.189 225.175C194.003 224.422 195.553 223.148 196.644 221.514C197.735 219.879 198.317 217.957 198.317 215.991C198.314 213.356 197.267 210.829 195.406 208.965C193.545 207.102 191.022 206.054 188.391 206.051V206.051Z" fill="#E6E6E6"/>
<path d="M162.485 208.467L139.469 208.141L151.259 188.342L162.485 208.467ZM142.135 206.649L159.862 206.9L151.216 191.401L142.135 206.649Z" fill="#E6E6E6"/>
<path d="M128.61 236.362H110.285V218.011H128.61V236.362ZM111.812 234.833H127.083V219.54H111.812V234.833Z" fill="#E6E6E6"/>
<path d="M145.183 270.529L136.788 262.138L144.191 254.738L143.112 253.656L135.707 261.057L128.301 253.656L127.222 254.738L134.626 262.138L126.23 270.529L127.309 271.612L135.707 263.218L144.104 271.612L145.183 270.529Z" fill="#E6E6E6"/>
<path opacity="0.2" d="M662.328 434.403L632.691 456.74L666.146 442.049L662.328 434.403Z" fill="black"/>
<path d="M114.101 461.93L76.6867 463.459L72.1055 438.226L104.174 428.286L114.101 461.93Z" fill="#A0616A"/>
<path d="M100.345 400.089L92 391.58L102.232 375.913L119.745 346.72C119.172 345.462 118.995 344.06 119.236 342.699C119.476 341.338 120.124 340.083 121.093 339.099C122.062 338.114 123.306 337.448 124.661 337.187C126.017 336.927 127.419 337.084 128.683 337.639C129.947 338.194 131.013 339.12 131.74 340.295C132.467 341.47 132.82 342.838 132.754 344.218C132.687 345.599 132.204 346.926 131.368 348.026C130.531 349.125 129.382 349.944 128.07 350.375L113.615 381.541L100.345 400.089Z" fill="#A0616A"/>
<path d="M91.1036 419.515C90.1238 421.034 88.7277 422.239 87.0823 422.985C85.4369 423.731 83.6117 423.987 81.825 423.722C80.1244 423.521 78.5193 422.827 77.207 421.725C75.8947 420.624 74.9321 419.162 74.4376 417.52C74.0733 416.355 73.9672 415.124 74.1267 413.914C74.2863 412.703 74.7076 411.542 75.3612 410.511C80.9437 401.087 91.2398 388.641 91.343 388.517L91.5069 388.319L108.872 392.087L91.1036 419.515Z" fill="#6C63FF"/>
<path d="M105.186 628.079L115.562 628.078L120.497 587.999L105.184 588L105.186 628.079Z" fill="#A0616A"/>
<path d="M102.539 624.686L122.973 624.685H122.974C126.427 624.686 129.739 626.06 132.182 628.505C134.624 630.951 135.996 634.267 135.996 637.726V638.15L102.54 638.151L102.539 624.686Z" fill="#2F2E41"/>
<path d="M24.3945 623.581L34.6535 625.133L45.5173 586.245L32.0682 583.952L24.3945 623.581Z" fill="#A0616A"/>
<path d="M22.2828 619.83L42.4872 622.888L42.488 622.888C45.9028 623.406 48.9726 625.26 51.0221 628.044C53.0717 630.827 53.9332 634.312 53.4172 637.732L53.3539 638.151L20.2734 633.144L22.2828 619.83Z" fill="#2F2E41"/>
<path d="M75.1621 455.813L111.049 449.696L122.153 472.617L122.576 622.208L102.88 622.085L94.6467 501.009L42.174 612.885L21.0156 610.342L67.1409 490.415C67.1409 490.415 64.6019 469.226 72.642 458.632L75.1621 455.813Z" fill="#2F2E41"/>
<path d="M61.8379 410.654C61.2894 409.004 61.2312 407.23 61.6702 405.548C62.1092 403.865 63.0266 402.347 64.311 401.176L69.4111 396.534L83.7895 394.108L92.7797 392.472L107.23 434.403L72.1345 450.55C69.0546 449.884 67.8243 448.197 69.6164 444.842L61.8379 410.654Z" fill="#6C63FF"/>
<path d="M94.0469 424.803L104.086 418.387L117.276 431.653L142.175 454.85C143.522 454.549 144.928 454.665 146.208 455.183C147.487 455.7 148.58 456.594 149.341 457.747C150.102 458.9 150.496 460.257 150.47 461.639C150.445 463.021 150.001 464.362 149.197 465.486C148.394 466.609 147.268 467.462 145.97 467.931C144.672 468.4 143.262 468.464 141.927 468.113C140.593 467.763 139.395 467.014 138.494 465.968C137.593 464.921 137.031 463.625 136.881 462.251L109.423 441.641L94.0469 424.803Z" fill="#A0616A"/>
<path d="M76.9817 411.727C75.7 410.453 74.8117 408.836 74.4232 407.069C74.0348 405.303 74.1624 403.462 74.791 401.766C75.3397 400.142 76.3497 398.713 77.6974 397.656C79.045 396.598 80.6717 395.957 82.3778 395.811C83.5916 395.695 84.816 395.846 85.9656 396.253C87.1152 396.659 88.1625 397.312 89.0343 398.166C97.0866 405.585 107.117 418.248 107.217 418.374L107.376 418.576L100.103 434.81L76.9817 411.727Z" fill="#6C63FF"/>
<path d="M77.4785 389.007C86.1953 389.007 93.2617 381.93 93.2617 373.201C93.2617 364.472 86.1953 357.395 77.4785 357.395C68.7617 357.395 61.6953 364.472 61.6953 373.201C61.6953 381.93 68.7617 389.007 77.4785 389.007Z" fill="#A0616A"/>
<path d="M64.7006 395.718C62.253 395.718 59.8078 395.568 57.3783 395.271L57.0452 395.23L54.5029 381.409C53.4246 375.549 54.6268 369.499 57.8627 364.5C61.0985 359.5 66.1226 355.93 71.9037 354.523C72.2895 354.426 72.6947 354.436 73.0749 354.554C73.455 354.672 73.7953 354.892 74.0584 355.191L74.6647 354.98C76.9861 354.169 79.4442 353.824 81.8987 353.965C84.3532 354.106 86.756 354.729 88.9699 355.8C91.1838 356.87 93.1654 358.367 94.8016 360.205C96.4379 362.042 97.6966 364.185 98.5061 366.509L98.6563 366.941L94.6101 368.354C93.3493 368.794 92.2024 369.511 91.2528 370.45C90.3032 371.39 89.5748 372.531 89.1205 373.788C88.6662 375.045 88.4974 376.388 88.6266 377.719C88.7557 379.05 89.1794 380.335 89.8669 381.481L94.0039 388.378L93.5635 388.6C84.6345 393.21 74.7463 395.649 64.7006 395.718V395.718Z" fill="#2F2E41"/>
<path d="M606.942 461.86C607.124 460.976 607.498 460.143 608.037 459.42C608.576 458.697 609.266 458.101 610.06 457.674C610.854 457.247 611.732 456.999 612.631 456.948C613.531 456.898 614.431 457.045 615.267 457.38L629.622 440.813L632.693 451.789L618.59 465.839C617.935 467.209 616.8 468.291 615.401 468.879C614.003 469.467 612.437 469.521 611.001 469.031C609.565 468.54 608.359 467.539 607.611 466.218C606.863 464.896 606.624 463.346 606.942 461.86H606.942Z" fill="#FFB6B6"/>
<path d="M670.994 389.021L676.875 388.703L677.76 392.446C677.76 392.446 677.673 397.239 672.311 407.203C666.949 417.166 625.404 461.526 625.404 461.526L616.406 451.301L638.645 428.361L652.113 404.319L670.994 389.021Z" fill="#6C63FF"/>
<path d="M0.952149 639H699.048C699.3 639 699.543 638.9 699.721 638.721C699.9 638.542 700 638.299 700 638.046C700 637.794 699.9 637.551 699.721 637.372C699.543 637.193 699.3 637.093 699.048 637.093H0.952149C0.699625 637.093 0.457446 637.193 0.278885 637.372C0.100324 637.551 0 637.794 0 638.046C0 638.299 0.100324 638.542 0.278885 638.721C0.457446 638.9 0.699625 639 0.952149 639Z" fill="#CCCCCC"/>
</g>
<defs>
<clipPath id="clip0_107_3">
<rect width="700" height="468" fill="white" transform="translate(0 171)"/>
</clipPath>
</defs>
</svg>
