<svg width="1440" height="2526" viewBox="0 0 1440 2526" fill="none" xmlns="http://www.w3.org/2000/svg">
<path fill-rule="evenodd" clip-rule="evenodd" d="M356.502 -93.1621C467.284 -121.138 549.806 -269.241 659.837 -238.513C758.986 -210.824 745.379 -59.0408 795.932 29.5556C845.805 116.961 938.019 181.093 955.632 279.882C974.249 384.301 976.316 517.179 895.283 586.806C808.269 661.573 661.838 575.002 556.952 622.448C467.262 663.02 449.055 796.795 356.502 830.53C257.903 866.469 142.798 851.667 47.3677 808.19C-51.3182 763.23 -124.805 677.893 -180.584 585.841C-236.878 492.938 -277.489 388.023 -272.761 279.882C-268.115 173.632 -232.017 62.6661 -154.479 -11.2045C-81.01 -81.1974 30.4684 -88.8669 131.271 -105.035C206.767 -117.144 282.403 -74.45 356.502 -93.1621Z" fill="#E5E3FF"/>
<path fill-rule="evenodd" clip-rule="evenodd" d="M1287.64 899.524C1398.42 871.549 1480.94 723.446 1590.97 754.173C1690.12 781.863 1676.51 933.646 1727.07 1022.24C1776.94 1109.65 1869.15 1173.78 1886.77 1272.57C1905.38 1376.99 1907.45 1509.87 1826.42 1579.49C1739.4 1654.26 1592.97 1567.69 1488.09 1615.13C1398.4 1655.71 1380.19 1789.48 1287.64 1823.22C1189.04 1859.16 1073.93 1844.35 978.502 1800.88C879.817 1755.92 806.33 1670.58 750.551 1578.53C694.257 1485.62 653.646 1380.71 658.374 1272.57C663.02 1166.32 699.117 1055.35 776.656 981.482C850.125 911.489 961.603 903.82 1062.41 887.652C1137.9 875.543 1213.54 918.237 1287.64 899.524Z" fill="#EFEEFF"/>
<path fill-rule="evenodd" clip-rule="evenodd" d="M-185.255 2211.91C-233.707 2107.45 -410.949 2052.11 -394.175 1938.03C-379.059 1835.22 -208.575 1821.85 -118.263 1756.27C-29.1643 1691.58 27.4609 1589.19 134.259 1554.34C247.143 1517.51 394.194 1492 484.163 1559.72C580.774 1632.45 507.788 1792.35 576.908 1887.55C636.014 1968.95 787.249 1963.3 839.222 2048.75C894.59 2139.77 896.277 2256.06 863.066 2357.98C828.722 2463.38 745.632 2551.02 652.309 2622.37C558.124 2694.37 448.148 2753.01 327.465 2767.44C208.891 2781.63 80.1401 2765.58 -13.9862 2702.05C-103.171 2641.86 -129.211 2533.13 -162.998 2436.43C-188.303 2364.02 -152.847 2281.78 -185.255 2211.91Z" fill="#E5E3FF"/>
</svg>
