<svg width="764" height="693" viewBox="0 0 764 693" fill="none" xmlns="http://www.w3.org/2000/svg">
<path d="M527.616 690.884H311.076C278.597 690.884 252.174 664.465 252.174 631.991V59.643C252.174 27.1695 278.597 0.750092 311.076 0.750092H527.616C560.094 0.750092 586.518 27.1695 586.518 59.643C590.548 289.48 597.422 546.862 586.518 631.991C586.518 664.465 560.094 690.884 527.616 690.884L527.616 690.884Z" fill="#3F3D56"/>
<path d="M589.541 211.278C588.166 211.278 587.049 212.396 587.049 213.77V293.497C587.049 294.871 588.166 295.988 589.541 295.988C590.915 295.988 592.032 294.871 592.032 293.497V213.77C592.032 212.396 590.915 211.278 589.541 211.278Z" fill="#3F3D56"/>
<path d="M580.914 59.6434V631.981C580.914 660.247 558.911 683.367 531.089 685.161H531.077C530.666 685.186 530.255 685.211 529.831 685.224C529.096 685.261 528.361 685.273 527.613 685.273C527.613 685.273 524.872 685.074 519.864 684.7C514.805 684.327 507.442 683.766 498.26 683.031C495.506 682.819 492.603 682.583 489.538 682.333C483.433 681.835 476.73 681.287 469.541 680.664C466.676 680.427 463.71 680.166 460.683 679.904C445.208 678.571 427.878 677.014 409.6 675.245C406.51 674.959 403.396 674.66 400.256 674.348C399.434 674.261 257.783 638.658 257.783 631.981V59.6434C257.783 30.2069 281.643 6.3512 311.084 6.3512H342.904C347.988 6.3512 352.074 10.3126 352.51 15.3827C352.548 15.7191 352.585 16.0554 352.647 16.3918C353.569 21.4868 358.241 25.0371 363.424 25.0371H475.272C480.455 25.0371 485.128 21.4868 486.05 16.3918C486.112 16.0554 486.149 15.7191 486.187 15.3827C486.623 10.3126 490.709 6.3512 495.793 6.3512H527.613C557.054 6.3512 580.914 30.2069 580.914 59.6434H580.914Z" fill="white"/>
<path d="M250.929 151.483C249.555 151.483 248.438 152.601 248.438 153.975V173.907C248.438 175.281 249.555 176.398 250.929 176.398C252.304 176.398 253.421 175.281 253.421 173.907V153.975C253.421 152.601 252.304 151.483 250.929 151.483Z" fill="#3F3D56"/>
<path d="M250.929 211.278C249.555 211.278 248.438 212.396 248.438 213.77V252.387C248.438 253.762 249.555 254.879 250.929 254.879C252.304 254.879 253.421 253.762 253.421 252.387V213.77C253.421 212.396 252.304 211.278 250.929 211.278V211.278Z" fill="#3F3D56"/>
<path d="M250.929 266.09C249.555 266.09 248.438 267.208 248.438 268.582V307.2C248.438 308.574 249.555 309.691 250.929 309.691C252.304 309.691 253.421 308.574 253.421 307.2V268.582C253.421 267.208 252.304 266.09 250.929 266.09Z" fill="#3F3D56"/>
<path d="M342.088 15.0762H294.335C294.104 15.0762 293.916 15.2637 293.916 15.4951V20.8859C293.916 21.1172 294.104 21.3048 294.335 21.3048H342.088C342.319 21.3048 342.507 21.1172 342.507 20.8859V15.4951C342.507 15.2637 342.319 15.0762 342.088 15.0762Z" fill="#E6E6E6"/>
<path d="M503.663 21.3048C506.416 21.3048 508.647 19.0739 508.647 16.3219C508.647 13.5699 506.416 11.339 503.663 11.339C500.911 11.339 498.68 13.5699 498.68 16.3219C498.68 19.0739 500.911 21.3048 503.663 21.3048Z" fill="#E6E6E6"/>
<path d="M517.372 21.3048C520.125 21.3048 522.356 19.0739 522.356 16.3219C522.356 13.5699 520.125 11.339 517.372 11.339C514.62 11.339 512.389 13.5699 512.389 16.3219C512.389 19.0739 514.62 21.3048 517.372 21.3048Z" fill="#E6E6E6"/>
<path d="M531.075 21.3048C533.828 21.3048 536.059 19.0739 536.059 16.3219C536.059 13.5699 533.828 11.339 531.075 11.339C528.323 11.339 526.092 13.5699 526.092 16.3219C526.092 19.0739 528.323 21.3048 531.075 21.3048Z" fill="#E6E6E6"/>
<path d="M19.584 691.02C19.584 691.911 20.2999 692.627 21.1915 692.627H761.791C762.682 692.627 763.398 691.911 763.398 691.02C763.398 690.128 762.682 689.413 761.791 689.413H21.1915C20.2999 689.413 19.584 690.128 19.584 691.02Z" fill="#CCCCCC"/>
<path d="M255.719 680.464L240.531 680.462L233.307 621.891L255.722 621.892L255.719 680.464Z" fill="#FFB6B6"/>
<path d="M203.683 680.12C203.21 680.916 202.961 683.486 202.961 684.412C202.961 687.258 205.269 689.566 208.116 689.566H255.149C257.091 689.566 258.666 687.992 258.666 686.05V684.092C258.666 684.092 260.993 678.208 256.202 670.955C256.202 670.955 250.249 676.634 241.352 667.739L238.729 662.987L219.739 676.873L209.213 678.169C206.91 678.452 204.868 678.125 203.684 680.119H203.683V680.12H203.683Z" fill="#2F2E41"/>
<path d="M171.73 599.11L156.543 599.06L149.504 540.466L171.919 540.538L171.73 599.11Z" fill="#FFB6B6"/>
<path d="M119.697 598.6C119.222 599.395 118.964 601.964 118.961 602.89C118.952 605.737 121.252 608.052 124.099 608.061L171.133 608.21C173.075 608.216 174.654 606.647 174.66 604.705L174.667 602.747C174.667 602.747 177.012 596.87 172.245 589.602C172.245 589.602 166.273 595.262 157.405 586.339L154.797 581.579L135.762 595.405L125.232 596.667C122.929 596.943 120.888 596.609 119.697 598.6H119.697V598.6Z" fill="#2F2E41"/>
<path d="M233.571 324.88L214.661 326.23C214.661 326.23 150.642 362.624 145.239 370.727C139.836 378.83 132.407 390.31 139.16 402.465C145.914 414.62 140.774 561.792 140.774 561.792L173.047 554.492L193.725 400.51L236.948 394.433C236.948 394.433 251.807 426.484 246.404 453C241.001 479.517 238.299 495.723 238.299 495.723L231.545 652.386L257.885 651.711L281.523 506.528L322.045 391.732L269.366 329.607L233.571 324.88Z" fill="#2F2E41"/>
<path d="M322.128 145.719L282.956 149.771L278.904 163.276L241.083 183.534L253.24 268.619L243.785 283.474L247.837 298.33C247.837 298.33 237.031 299.681 238.382 307.784L214.068 311.836C214.068 311.836 246.316 318.418 253.155 350.916C259.994 383.414 316.725 387.466 316.725 387.466L361.299 248.36L365.352 165.977L334.285 157.874L322.128 145.719Z" fill="#8B84FF"/>
<path d="M306.125 153.639C322.943 153.639 336.576 140.007 336.576 123.192C336.576 106.377 322.943 92.7455 306.125 92.7455C289.307 92.7455 275.674 106.377 275.674 123.192C275.674 140.007 289.307 153.639 306.125 153.639Z" fill="#FFB6B6"/>
<path d="M290.302 150.66C290.302 150.66 263.287 149.31 265.988 127.701C259.302 104.69 265.22 89.7494 286.249 84.4837C286.249 84.4837 291.652 83.1331 293.003 83.1331C310.769 83.1331 320.018 88.5353 320.018 88.5353C320.018 88.5353 318.667 83.1863 320.018 84.5103C321.369 85.8342 322.72 88.5353 322.72 88.5353C322.72 88.5353 336.227 95.288 336.227 108.793C336.227 122.299 336.227 116.897 336.227 116.897C336.227 116.897 333.525 116.897 330.824 108.793C328.123 100.69 310.632 106.092 310.632 106.092L311.914 108.793L307.861 107.443L303.809 111.494L301.108 110.144C301.108 110.144 290.302 110.144 291.652 110.144C293.003 110.144 292.062 119.322 292.062 119.322L282.197 130.402L293.003 150.66H290.302Z" fill="#2F2E41"/>
<path d="M146.375 311.852C138.685 316.049 134.616 323.417 137.287 328.31C139.958 333.204 148.357 333.768 156.047 329.572C159.414 327.735 162.086 325.29 163.803 322.711L196.166 304.521L187.305 289.518L156.342 309.042C153.244 309.091 149.741 310.015 146.375 311.852H146.375Z" fill="#FFB6B6"/>
<path d="M255.509 197.209C255.509 197.209 242.823 192.379 238.452 198.193C234.081 204.006 205.206 274.545 205.206 274.545L162.842 296.667L174.755 317.41L229.308 299.25L265.301 233.434L255.509 197.209Z" fill="#8B84FF"/>
<path d="M655.566 428.869V572.026C655.566 584.686 645.266 594.985 632.604 594.985H278.709C266.047 594.985 255.746 584.686 255.746 572.026V428.869C255.746 416.209 266.047 405.909 278.709 405.909H632.604C645.266 405.909 655.566 416.209 655.566 428.869Z" fill="white"/>
<path d="M655.566 428.869V572.026C655.566 584.686 645.266 594.985 632.604 594.985H278.709C266.047 594.985 255.746 584.686 255.746 572.026V428.869C255.746 416.209 266.047 405.909 278.709 405.909H632.604C645.266 405.909 655.566 416.209 655.566 428.869ZM632.604 592.284C643.794 592.284 652.865 583.214 652.865 572.026V499.852C652.865 449.461 612.009 408.61 561.61 408.61H278.709C267.519 408.61 258.448 417.68 258.448 428.869V572.026C258.448 583.214 267.519 592.284 278.709 592.284H632.604Z" fill="#3F3D56"/>
<path d="M414.612 492.4H368.389C367.224 492.4 366.275 493.348 366.275 494.513C366.275 495.678 367.224 496.626 368.389 496.626H414.612C415.778 496.626 416.725 495.678 416.725 494.513C416.725 493.348 415.778 492.4 414.612 492.4Z" fill="#6C63FF"/>
<path d="M484.849 492.4H438.625C437.46 492.4 436.512 493.348 436.512 494.513C436.512 495.678 437.46 496.626 438.625 496.626H484.849C486.014 496.626 486.962 495.678 486.962 494.513C486.962 493.348 486.014 492.4 484.849 492.4Z" fill="#6C63FF"/>
<path d="M414.612 515.502H368.389C367.224 515.502 366.275 516.45 366.275 517.615C366.275 518.78 367.224 519.728 368.389 519.728H414.612C415.778 519.728 416.725 518.78 416.725 517.615C416.725 516.45 415.778 515.502 414.612 515.502Z" fill="#6C63FF"/>
<path d="M484.849 515.502H438.625C437.46 515.502 436.512 516.45 436.512 517.615C436.512 518.78 437.46 519.729 438.625 519.729H484.849C486.014 519.729 486.962 518.78 486.962 517.615C486.962 516.45 486.014 515.502 484.849 515.502Z" fill="#6C63FF"/>
<path d="M557.202 517.615C557.202 516.45 556.254 515.502 555.089 515.502H508.865C507.7 515.502 506.752 516.45 506.752 517.615C506.752 518.78 507.7 519.729 508.865 519.729H555.089C556.254 519.729 557.202 518.78 557.202 517.615Z" fill="#6C63FF"/>
<path d="M387.593 473.953C388.758 473.953 389.706 473.005 389.706 471.84C389.706 470.675 388.758 469.727 387.593 469.727H341.369C340.204 469.727 339.256 470.675 339.256 471.84C339.256 473.005 340.204 473.953 341.369 473.953H387.593Z" fill="#6C63FF"/>
<path d="M523.719 473.094H569.942C571.108 473.094 572.055 472.146 572.055 470.981C572.055 469.815 571.108 468.868 569.942 468.868H523.719C522.554 468.868 521.605 469.815 521.605 470.981C521.605 472.146 522.554 473.094 523.719 473.094Z" fill="#6C63FF"/>
<path d="M407.067 473.538H502.898C504.063 473.538 505.011 472.59 505.011 471.425C505.011 470.26 504.063 469.312 502.898 469.312H407.067C405.901 469.312 404.953 470.26 404.953 471.425C404.953 472.59 405.901 473.538 407.067 473.538Z" fill="#6C63FF"/>
<path d="M444.77 536.492H398.547C397.382 536.492 396.434 537.44 396.434 538.605C396.434 539.77 397.382 540.718 398.547 540.718H444.77C445.936 540.718 446.884 539.77 446.884 538.605C446.884 537.44 445.936 536.492 444.77 536.492Z" fill="#6C63FF"/>
<path d="M594.057 427.789V570.947C594.057 583.607 583.757 593.906 571.095 593.906H427.916C415.254 593.906 404.953 583.607 404.953 570.947V427.789C404.953 415.129 415.254 404.83 427.916 404.83H571.095C583.757 404.83 594.057 415.129 594.057 427.789Z" fill="white"/>
<path d="M594.057 427.789V570.947C594.057 583.607 583.757 593.906 571.095 593.906H427.916C415.254 593.906 404.953 583.607 404.953 570.947V427.789C404.953 415.129 415.254 404.83 427.916 404.83H571.095C583.757 404.83 594.057 415.129 594.057 427.789ZM562.212 591.205C578.308 591.205 591.356 578.159 591.356 562.066V498.772C591.356 448.381 550.5 407.531 500.101 407.531H427.916C416.726 407.531 407.655 416.601 407.655 427.789V550.973C407.655 573.192 425.67 591.205 447.892 591.205H562.212V591.205H562.212Z" fill="#3F3D56"/>
<path d="M518.565 463.298H472.342C471.177 463.298 470.229 462.35 470.229 461.185C470.229 460.02 471.177 459.072 472.342 459.072H518.565C519.731 459.072 520.678 460.02 520.678 461.185C520.678 462.35 519.731 463.298 518.565 463.298V463.298Z" fill="#6C63FF"/>
<path d="M518.565 508.357H472.342C471.177 508.357 470.229 507.409 470.229 506.244C470.229 505.078 471.177 504.131 472.342 504.131H518.565C519.731 504.131 520.678 505.078 520.678 506.244C520.678 507.409 519.731 508.357 518.565 508.357V508.357Z" fill="#6C63FF"/>
<path d="M495.602 570.482H449.379C448.214 570.482 447.266 569.534 447.266 568.369C447.266 567.203 448.214 566.256 449.379 566.256H495.602C496.768 566.256 497.716 567.203 497.716 568.369C497.716 569.534 496.768 570.482 495.602 570.482V570.482Z" fill="#6C63FF"/>
<path d="M543.37 485.842H447.539C446.374 485.842 445.426 484.894 445.426 483.729C445.426 482.564 446.374 481.616 447.539 481.616H543.37C544.536 481.616 545.483 482.564 545.483 483.729C545.483 484.894 544.536 485.842 543.37 485.842V485.842Z" fill="#6C63FF"/>
<path d="M567.118 348.462C567.118 303.804 529.367 279.237 486.244 267.601C430.957 252.683 390.466 282.87 405.371 348.462C408.749 363.328 416.828 380.691 426.829 395.542H506.191C532.7 378.286 567.118 383.126 567.118 348.462H567.118Z" fill="#6C63FF"/>
<path d="M485.053 432.885C489.568 424.28 495.291 418.072 501.598 413.346H427.266C446.397 440.67 471.768 458.207 485.053 432.885Z" fill="#6C63FF"/>
<path d="M476.48 300.654C481.252 300.654 485.12 304.522 485.12 309.293V326.571H467.84V309.293C467.84 304.522 471.708 300.654 476.48 300.654ZM489.441 326.571V309.293C489.441 302.136 483.638 296.334 476.48 296.334C469.322 296.334 463.519 302.136 463.519 309.293V326.571C458.747 326.571 454.879 330.439 454.879 335.21V356.808C454.879 361.58 458.747 365.447 463.519 365.447H489.441C494.213 365.447 498.081 361.58 498.081 356.808V335.21C498.081 330.439 494.213 326.571 489.441 326.571H489.441ZM463.519 330.891H489.441C491.827 330.891 493.761 332.825 493.761 335.21V356.808C493.761 359.194 491.827 361.128 489.441 361.128H463.519C461.133 361.128 459.199 359.194 459.199 356.808V335.21C459.199 332.825 461.133 330.891 463.519 330.891Z" fill="white"/>
<path d="M353 401.244C351.958 409.941 355.601 417.53 361.137 418.192C366.673 418.855 372.005 412.342 373.046 403.644C373.502 399.837 373.061 396.243 371.956 393.348L375.907 356.439L358.545 354.953L356.492 391.497C354.734 394.048 353.456 397.437 353 401.244Z" fill="#FFB6B6"/>
<path d="M357.162 181.047C357.162 181.047 376.072 175.645 380.125 183.748C384.177 191.852 393.632 298.544 393.632 298.544L375.397 383.708L354.46 378.226L365.266 291.792L350.408 226.966L357.162 181.047Z" fill="#8B84FF"/>
<path d="M79.2685 440.134C122.909 440.134 158.287 404.762 158.287 361.128C158.287 317.494 122.909 282.121 79.2685 282.121C35.6278 282.121 0.25 317.494 0.25 361.128C0.25 404.762 35.6278 440.134 79.2685 440.134Z" fill="#6C63FF"/>
<path d="M79.2656 325.759C84.8476 325.759 89.3726 330.283 89.3726 335.864V356.075H69.1586V335.864C69.1586 330.283 73.6837 325.759 79.2656 325.759ZM94.4262 356.075V335.864C94.4262 327.492 87.6386 320.706 79.2656 320.706C70.8927 320.706 64.1051 327.492 64.1051 335.864V356.075C58.5231 356.075 53.998 360.599 53.998 366.181V391.444C53.998 397.025 58.5231 401.55 64.1051 401.55H94.4261C100.008 401.55 104.533 397.025 104.533 391.444V366.181C104.533 360.599 100.008 356.075 94.4261 356.075H94.4262ZM64.1051 361.128H94.4261C97.2171 361.128 99.4797 363.39 99.4797 366.18V391.444C99.4797 394.235 97.2171 396.497 94.4261 396.497H64.1051C61.3141 396.497 59.0516 394.235 59.0516 391.444V366.18C59.0516 363.39 61.3141 361.128 64.1051 361.128Z" fill="white"/>
<path d="M96.8464 356.88C91.2065 353.728 95.7097 362.165 96.4805 364.32C98.8011 370.805 97.0303 365.855 96.9684 365.661C94.8909 359.152 95.9146 362.103 93.5534 354.562C92.4992 351.196 88.4109 340.146 92.3337 351.391C94.0247 356.239 95.938 360.98 97.9441 365.661" stroke="#6C63FF" stroke-width="2.25" stroke-linecap="round"/>
<path d="M105.63 360.173C102.657 358.474 97.8657 354.663 94.0431 355.66C90.1636 356.672 89.5114 364.511 92.5185 366.698C96.6835 369.727 86.4613 335.849 81.7245 342.244C79.6038 345.107 82.1252 351.244 85.0786 352.55C94.5723 356.749 88.9284 337.121 87.5179 334.804C74.4996 313.417 72.7658 354.818 82.7003 348.952C87.3738 346.192 87.5023 338.067 85.2615 333.95C80.9458 326.021 69.0919 325.723 62.271 330.108C47.4662 339.626 47.7568 363.147 59.4048 374.687C60.159 375.434 65.6718 380.567 65.747 375.906C65.9274 364.722 58.5884 353.862 56.5996 342.976C56.2606 341.12 55.7886 333.429 60.7464 335.658C70.0989 339.862 72.8465 356.725 74.2846 365.295C75.0789 370.029 76.8579 383.98 74.7115 379.687C72.6924 375.649 73.1343 370.795 72.4551 366.332C71.009 356.829 70.1823 351.19 68.5522 341.817C67.491 335.715 66.8968 327.793 66.1129 338.341C65.2411 350.071 64.9739 354.627 61.7221 366.637C40.7128 444.233 69.3923 333.44 52.4527 392.616C50.2084 400.456 55.7723 398.908 60.8684 397.311C63.9822 396.336 72.3796 393.343 69.284 392.311C64.0072 390.552 78.2793 398.928 82.2124 402.861C96.9695 417.618 101.811 390.93 102.215 380.419C102.297 378.276 102.121 352.897 99.2876 365.173C97.8026 371.608 96.5264 408.679 85.3835 407.008C76.0408 405.606 70.6552 395.469 73.7967 387.615" stroke="#6C63FF" stroke-width="23.25" stroke-linecap="round"/>
<path d="M472.257 304.19C463.773 309.204 464.072 326.422 465.915 334.56C467.005 339.372 476.299 345.862 480.307 339.804C485.326 332.22 478.391 315.861 474.819 309.069C473.457 306.481 468.759 301.867 468.232 298.885C468.074 297.984 482.699 311.169 482.929 311.447C490.2 320.22 493.709 327.758 496.346 338.524C498.296 346.489 497.577 349.427 488.967 351.391C478.772 353.716 468.516 355.398 459.085 360.173C452.416 363.55 446.92 369.861 458.963 369.625C471.811 369.373 484.112 364.987 496.712 362.978C496.773 362.968 504.655 362.182 504.822 361.514C504.925 361.103 504.021 361.221 503.603 361.148C492.353 359.192 508.356 362.578 491.101 359.197C476.189 356.275 456.145 351.151 449.999 335.17C448.449 331.14 448.622 326.73 453.109 324.681C460.688 321.219 469.598 325.757 474.087 331.999C476.001 334.661 481.127 345.424 473.477 345.964C465.349 346.537 456.433 337.042 452.377 331.145C441.689 315.605 473.108 322.906 463.537 331.999C455.949 339.207 471.132 310.878 479.941 305.227C486.353 301.114 496.176 311.536 500.797 315.167" stroke="#6C63FF" stroke-width="23.25" stroke-linecap="round"/>
<path d="M475.551 297.604H479.942" stroke="#6C63FF" stroke-width="23.25" stroke-linecap="round"/>
<path d="M85.8715 355.782C85.8262 356.498 86.2978 365.842 82.9443 364.868C79.7527 363.942 78.8094 356.046 80.0781 358.221C81.1662 360.087 80.5021 364.791 82.5784 364.198C83.4393 363.952 82.5319 362.407 82.4565 361.514C82.1863 358.32 81.785 355.137 81.5417 351.94C81.0888 345.987 76.4939 320.766 86.6643 318.765C96.1515 316.899 96.7486 331.067 93.5554 329.559C90.8044 328.26 85.8346 319.389 93.5554 326.144" stroke="#6C63FF" stroke-width="23.25" stroke-linecap="round"/>
<rect x="103.791" y="334.325" width="8.72725" height="74.6664" rx="4.36362" transform="rotate(51.5247 103.791 334.325)" fill="#D9D9D9"/>
<rect x="54.0684" y="333.061" width="8.72725" height="74.6664" rx="4.36362" transform="rotate(-35.2705 54.0684 333.061)" fill="#D9D9D9"/>
<rect x="503.311" y="310.082" width="8.72725" height="74.6664" rx="4.36362" transform="rotate(51.5247 503.311 310.082)" fill="#D9D9D9"/>
<rect x="453.58" y="308.819" width="8.72725" height="74.6664" rx="4.36362" transform="rotate(-35.2705 453.58 308.819)" fill="#D9D9D9"/>
</svg>
