<svg width="887" height="580" viewBox="0 0 887 580" fill="none" xmlns="http://www.w3.org/2000/svg">
<g clip-path="url(#clip0_67_6993)">
<path d="M817.734 280.197H99.489C89.8617 280.197 82.0293 272.369 82.0293 262.746V17.6998C82.0293 8.07794 89.8617 0.250061 99.489 0.250061H817.734C827.362 0.250061 835.194 8.07794 835.194 17.6998V262.746C835.194 272.369 827.362 280.197 817.734 280.197ZM99.489 2.33045C91.0097 2.33045 84.1109 9.22531 84.1109 17.6998V262.746C84.1109 271.221 91.0097 278.116 99.489 278.116H817.734C826.214 278.116 833.113 271.221 833.113 262.746V17.6998C833.113 9.22531 826.214 2.33045 817.734 2.33045H99.489V2.33045Z" fill="#3F3D56"/>
<path d="M886.25 572.937H0.5V574.688H886.25V572.937Z" fill="#E6E6E6"/>
<path d="M886.25 483.481H0.5V485.231H886.25V483.481Z" fill="#E6E6E6"/>
<path d="M404.158 289.209C404.794 297.197 409.434 303.345 414.521 302.939C419.608 302.534 423.214 295.73 422.577 287.739C422.366 284.543 421.393 281.444 419.738 278.701L416.615 244.887L400.77 246.69L405.53 279.833C404.33 282.804 403.86 286.019 404.158 289.209Z" fill="#FFB6B6"/>
<path d="M385.23 131.453C385.23 131.453 400.043 123.617 407.554 135.328C415.065 147.039 420.248 273.696 420.248 273.696L399.431 275.917L395.484 186.665L385.23 131.453V131.453Z" fill="#E6E6E6"/>
<path d="M354.489 476.872L366.549 476.871L372.286 430.38L354.486 430.381L354.489 476.872Z" fill="#FFB6B6"/>
<path d="M395.806 476.599C396.182 477.231 396.38 479.271 396.38 480.006C396.38 482.265 394.547 484.097 392.287 484.097H354.938C353.396 484.097 352.146 482.848 352.146 481.306V479.752C352.146 479.752 350.298 475.081 354.102 469.324C354.102 469.324 358.83 473.832 365.894 466.772L367.977 463L383.057 474.022L391.416 475.051C393.244 475.276 394.866 475.016 395.806 476.599H395.806H395.806Z" fill="#2F2E41"/>
<path d="M424.279 474.877L435.964 471.893L430.009 425.429L412.764 429.833L424.279 474.877Z" fill="#FFB6B6"/>
<path d="M464.246 464.391C464.767 464.911 465.464 466.838 465.646 467.55C466.206 469.739 464.884 471.967 462.693 472.526L426.507 481.765C425.013 482.147 423.492 481.245 423.11 479.752L422.725 478.246C422.725 478.246 419.778 474.178 422.038 467.659C422.038 467.659 427.735 470.857 432.831 462.269L433.916 458.099L451.256 465.048L459.609 463.977C461.436 463.743 462.943 463.09 464.246 464.391H464.246V464.391Z" fill="#2F2E41"/>
<path d="M344.511 121.459L343.939 117.312L350.736 100.723L369.409 98.6492L373.441 122.398L344.511 121.459Z" fill="#FFB6B6"/>
<path opacity="0.1" d="M344.511 121.459L343.939 117.312L350.736 100.723L369.409 98.6492L373.441 122.398L344.511 121.459Z" fill="black"/>
<path d="M322.721 238.619L314.422 261.429L320.646 273.871L351.769 454.276H372.46L368.367 294.607L416.088 454.276H436.566L420.099 346.448L407.789 246.914L400.322 242.304L364.217 222.03L322.721 238.619Z" fill="#2F2E41"/>
<path d="M375.629 254.171L363.181 256.245L346.582 216.846H383.929L375.629 254.171Z" fill="#E6E6E6"/>
<path d="M400.527 243.803L375.629 254.171L367.33 235.509L363.181 256.245L319.609 242.227L325.834 216.846L319.609 133.901L341.582 119.261L344.507 117.312L371.48 119.385L373.845 120.671L390.153 129.754L394.303 198.183L400.527 243.803Z" fill="#2F2E41"/>
<path d="M373.845 120.671L362.143 170.189L341.582 119.261L344.507 117.312L371.48 119.385L373.845 120.671Z" fill="#E6E6E6"/>
<path d="M353.843 117.312L349.693 124.454L353.843 126.835L351.768 170.318L360.067 181.594L368.367 164.928L362.142 126.835L364.217 117.312H353.843Z" fill="#2F2E41"/>
<path d="M360.066 113.165C370.952 113.165 379.777 104.345 379.777 93.4651C379.777 82.5854 370.952 73.7657 360.066 73.7657C349.18 73.7657 340.355 82.5854 340.355 93.4651C340.355 104.345 349.18 113.165 360.066 113.165Z" fill="#FFB6B6"/>
<path d="M347.472 95.1932L351.73 97.0508L353.589 85.905C353.589 85.905 361.024 82.1898 366.6 84.0474C372.176 85.905 381.469 84.0474 381.469 84.0474C381.469 84.0474 381.47 65.4712 368.459 65.4712C355.448 65.4712 342.437 67.3288 342.437 72.9017C342.437 78.4745 336.861 84.0474 336.861 84.0474C336.861 84.0474 329.426 95.1932 336.861 102.624C344.296 110.054 348.013 110.054 348.013 110.054L347.472 95.1932Z" fill="#2F2E41"/>
<path d="M309.227 288.626C309.011 296.637 312.972 303.242 318.073 303.378C323.174 303.515 327.483 297.132 327.698 289.118C327.828 285.918 327.189 282.734 325.835 279.831L326.322 245.877L310.374 245.988L311.588 279.449C310.079 282.276 309.269 285.422 309.227 288.626V288.626Z" fill="#FFB6B6"/>
<path d="M328.957 129.715C328.957 129.715 315.471 125.567 309.247 138.009C303.022 150.451 311.321 276.942 311.321 276.942H332.257L326.701 187.776L328.957 129.715V129.715Z" fill="#E6E6E6"/>
<path d="M846.311 365.367L796.018 349.98C794.906 349.64 793.738 349.516 792.579 349.615L537.687 371.295C534.053 371.604 533.14 376.503 536.418 378.1L544.583 382.075H544.365V572.381H552.059V385.715L577.648 398.174C579.606 399.127 581.79 399.517 583.957 399.298L586.68 399.023V572.381H594.373V398.246L791.52 378.344V572.381H799.214V377.567L831.911 374.266V572.381H839.604V373.49L845.57 372.887C849.757 372.465 850.336 366.599 846.311 365.367H846.311Z" fill="#3F3D56"/>
<path d="M611.682 370.541C616.49 370.541 687.655 361.891 687.655 361.891L698.234 376.308L624.184 390.725L611.682 370.541V370.541Z" fill="white"/>
<path d="M689.789 564.99L677.425 564.967L671.625 517.294L689.873 517.327L689.789 564.99Z" fill="#A0616A"/>
<path d="M647.426 564.637C647.04 565.284 646.833 567.375 646.832 568.129C646.828 570.445 648.704 572.326 651.021 572.33L689.311 572.396C690.892 572.398 692.176 571.12 692.179 569.539L692.181 567.946C692.181 567.946 694.084 563.161 690.194 557.252C690.194 557.252 685.34 561.865 678.109 554.615L675.98 550.744L660.501 562.018L651.93 563.057C650.055 563.285 648.393 563.015 647.426 564.637H647.426L647.426 564.637Z" fill="#2F2E41"/>
<path d="M756.148 542.821L746.393 550.174L713.369 516.07L727.767 505.216L756.148 542.821Z" fill="#A0616A"/>
<path d="M722.562 567.797C722.644 568.537 723.73 570.308 724.178 570.902C725.558 572.73 728.158 573.094 729.987 571.715L760.195 548.94C761.442 547.999 761.691 546.226 760.75 544.979L759.801 543.722C759.801 543.722 758.444 538.818 751.853 536.481C751.853 536.481 750.781 543.01 740.756 541.608L736.769 539.827L731.301 557.938L725.168 563.867C723.827 565.164 722.357 565.942 722.562 567.797L722.562 567.797V567.797Z" fill="#2F2E41"/>
<path d="M730.307 296.435C730.307 307.83 721.064 317.068 709.662 317.068C698.26 317.068 689.018 307.83 689.018 296.435C689.018 285.04 698.26 275.802 709.662 275.802C721.064 275.802 730.307 285.04 730.307 296.435Z" fill="#A0616A"/>
<path d="M728.361 415.399C728.361 415.399 652.35 411.099 648.048 419.699C643.745 428.299 671.308 546.43 671.308 546.43L695.898 541.279L683.902 458.4C683.902 458.4 747.331 475.189 755.937 455.122C764.542 435.055 762.064 427.583 762.064 427.583L728.361 415.399V415.399Z" fill="#2F2E41"/>
<path d="M747.837 400.963C747.837 400.963 673.396 416.913 671.523 426.344C669.65 435.775 727.498 542.41 727.498 542.41L749.849 530.942L716.344 454.186C716.344 454.186 781.957 453.607 784.944 431.98C787.931 410.353 783.565 403.802 783.565 403.802L747.837 400.963V400.963Z" fill="#2F2E41"/>
<path d="M756.33 320.082H720.566L696.095 360.215C696.095 360.215 690.358 386.151 696.095 388.95C701.831 391.749 701.831 421.849 701.831 421.849L762.066 427.583C762.066 427.583 770.671 337.282 767.803 328.682C764.935 320.082 756.33 320.082 756.33 320.082V320.082Z" fill="#6C63FF"/>
<path d="M699.679 346.599L696.093 388.95L655.765 371.844L646.14 367.006C644.255 364.55 641.809 362.58 639.006 361.262C632.035 357.866 624.635 358.707 622.473 363.139C620.312 367.571 624.209 373.915 631.177 377.308C633.944 378.703 637.005 379.415 640.104 379.385L668.265 395.371L668.299 395.308L668.423 395.531L712.586 413.966L722.748 358.368L699.679 346.599H699.679Z" fill="#A0616A"/>
<path d="M695.379 299.298C695.379 299.298 673.866 302.165 682.471 283.531C682.471 283.531 681.159 273.43 687.552 272.747C693.945 272.064 702.55 260.598 702.55 260.598C702.55 260.598 722.278 250.564 732.492 260.598C742.706 270.631 772.824 329.398 772.824 329.398L752.746 350.899C752.746 350.899 740.675 319.184 726.632 322.858C712.589 326.532 699.681 337.485 699.681 337.485C699.681 337.485 685.43 330.357 691.838 324.144C698.247 317.932 695.379 299.298 695.379 299.298Z" fill="#2F2E41"/>
<path d="M724.061 330.832C724.061 330.832 714.022 317.932 706.851 327.965C699.68 337.998 693.943 350.899 693.943 350.899L722.627 360.932L724.061 330.832H724.061Z" fill="#6C63FF"/>
<path d="M832.966 569.528L799.641 463.667L799.646 463.666H799.723L799.589 463.493L799.586 463.489L797.212 455.949L797.213 455.948C800.829 452.834 803.291 448.384 803.781 443.261L788.548 359.527C789.597 348.531 781.162 338.92 770.113 338.526L735.742 338.439C725.971 338.093 717.508 345.148 716.085 354.817L715.325 359.95L704.795 431.545C704.41 434.121 704.564 436.658 705.17 439.032L697.592 440.022L695.293 440.33L686.205 441.512L686.176 441.522L685.042 441.666H683.811V472.422H683.888V570.728C683.888 571.362 684.407 571.881 685.042 571.881C685.686 571.881 686.205 571.362 686.205 570.728V472.422H699.688L713.142 570.612C713.229 571.189 713.719 571.612 714.296 571.612C714.344 571.612 714.402 571.612 714.45 571.602C715.085 571.516 715.527 570.929 715.441 570.295L702.035 472.422H766.727C773.151 472.422 779.103 470.385 783.95 466.897L809.6 570.432C809.733 570.956 810.204 571.304 810.722 571.304C810.816 571.304 810.912 571.293 811.008 571.269C811.628 571.111 812.003 570.481 811.845 569.861L785.947 465.324C786.292 465.037 786.636 464.731 786.962 464.416L797.258 463.811L830.757 570.223C830.912 570.717 831.369 571.033 831.861 571.033C831.976 571.033 832.093 571.016 832.209 570.98C832.819 570.788 833.158 570.137 832.966 569.528V569.528ZM795.011 457.592C795.097 457.544 795.174 457.486 795.251 457.438L795.252 457.438L795.499 458.224L795.011 457.592V457.592Z" fill="#E6E6E6"/>
<path d="M179.064 390.089L201.493 375.835L210.611 381.331L179.064 417.559V390.089Z" fill="#FFB6B6"/>
<path d="M148.395 334.915C148.395 334.915 133.498 338.418 140.509 358.561C147.519 378.704 170.302 420.742 177.313 418.114C184.323 415.487 185.199 389.214 185.199 389.214C185.199 389.214 184.323 390.089 180.818 386.586C177.313 383.083 177.313 384.683 177.313 380.818C177.313 376.953 174.446 374.087 174.446 374.087L171.179 367.319C171.179 367.319 171.179 335.791 158.034 334.039C144.89 332.288 148.395 334.915 148.395 334.915L148.395 334.915Z" fill="#E6E6E6"/>
<path d="M217.991 380.39C223.809 374.575 225.612 366.951 222.019 363.36C218.426 359.769 210.797 361.571 204.979 367.385C199.161 373.199 197.358 380.824 200.951 384.415C204.545 388.006 212.174 386.204 217.991 380.39Z" fill="#FFB6B6"/>
<path d="M90.373 450.957L105.677 476.273L194.862 470.999L171.114 440.408L90.373 450.957Z" fill="#E6E6E6"/>
<path d="M117.021 569.362C116.501 569.362 116.049 568.979 115.976 568.45L89.3263 373.926C89.2472 373.349 89.6512 372.817 90.2287 372.738C90.8059 372.655 91.3382 373.063 91.4176 373.64L118.067 568.164C118.147 568.741 117.743 569.273 117.165 569.352C117.116 569.359 117.068 569.362 117.021 569.362Z" fill="#E6E6E6"/>
<path d="M90.3718 569.609C89.789 569.609 89.3164 569.137 89.3164 568.554V373.821C89.3164 373.238 89.789 372.766 90.3718 372.766C90.9547 372.766 91.4273 373.238 91.4273 373.821V568.554C91.4273 569.137 90.9547 569.609 90.3718 569.609Z" fill="#E6E6E6"/>
<path d="M224.147 568.835C223.699 568.835 223.283 568.547 223.141 568.096L160.078 367.771C159.903 367.215 160.212 366.623 160.768 366.448C161.324 366.274 161.917 366.582 162.092 367.137L225.154 567.463C225.329 568.019 225.02 568.611 224.464 568.786C224.359 568.819 224.252 568.835 224.147 568.835V568.835Z" fill="#E6E6E6"/>
<path d="M204.885 569.082C204.414 569.082 203.984 568.765 203.863 568.287L160.062 391.486C159.919 390.921 160.26 390.347 160.825 390.203C161.391 390.06 161.964 390.401 162.108 390.965L205.909 567.767C206.052 568.331 205.711 568.906 205.146 569.049C205.059 569.071 204.971 569.082 204.885 569.082H204.885Z" fill="#E6E6E6"/>
<path d="M90.373 376.923L163.462 375.8L176.919 452.539H91.4285L90.373 376.923Z" fill="#E6E6E6"/>
<path d="M202.689 489.763L184.27 522.174L205.656 526.879L214.573 503.828L202.689 489.763Z" fill="#FFB6B6"/>
<path d="M190.887 516.055C190.887 516.055 190.171 510.769 185.963 512.447C181.756 514.124 169.611 520.357 169.611 520.357C169.611 520.357 201.286 571.796 207.298 569.4C213.309 567.003 206.113 552.463 206.113 552.463L207.701 526.761L190.887 516.055H190.887Z" fill="#2F2E41"/>
<path d="M121.229 426.872C121.229 426.872 114.657 457.087 134.812 467.596C154.966 478.106 223.754 452.27 223.754 452.27L192.208 499.511L214.115 508.32C214.115 508.32 264.064 442.636 260.558 432.127C257.053 421.618 233.394 420.742 233.394 420.742L179.94 423.369L165.92 418.99L121.229 426.872H121.229Z" fill="#2F2E41"/>
<path d="M175.438 504.147L146.48 527.638L164.688 539.799L181.386 521.57L175.438 504.147Z" fill="#FFB6B6"/>
<path d="M154.872 524.344C154.872 524.344 156.13 519.161 151.6 519.193C147.07 519.225 133.488 520.614 133.488 520.614C133.488 520.614 144.264 580.046 150.735 580C157.207 579.954 155.798 563.794 155.798 563.794L166.635 540.432L154.872 524.344V524.344Z" fill="#2F2E41"/>
<path d="M122.462 415.943C122.462 415.943 105.34 441.696 120.286 458.815C135.233 475.933 208.712 476.885 208.712 476.885L162.128 509.415L179.326 525.587C179.326 525.587 249.765 482.571 250.327 471.508C250.888 460.444 229.169 451.024 229.169 451.024L178.424 434.032L166.959 424.854L122.462 415.943H122.462Z" fill="#2F2E41"/>
<path d="M166.45 356.293C166.45 356.293 149.801 350.162 141.914 350.162C141.16 350.162 140.416 350.25 139.671 350.408C134.623 351.476 129.979 355.811 127.753 358.176C126.886 359.104 126.386 359.726 126.386 359.726C126.386 359.726 126.439 359.122 126.544 358.062C127.061 352.492 128.971 334.214 132.398 322.514C133.624 318.337 135.035 315 136.656 313.38C140.433 309.596 142.177 305.06 142.983 301.679C143.667 298.78 143.667 296.74 143.667 296.74L137.279 293.99L136.096 286.265C135.885 287.176 134.913 288.954 131.644 292.361C131.364 292.65 131.057 292.895 130.733 293.105C126.018 296.065 116.405 290.916 111.227 287.675C113.382 280.187 117.29 273.339 124.388 272.218C141.038 269.59 141.038 259.957 151.553 270.466C152.421 271.333 153.297 272.165 154.173 272.971C157.538 279.399 158.765 288.017 159.203 294.007C159.519 298.202 159.44 301.119 159.44 301.119C159.44 301.119 163.821 327.392 170.832 332.647C177.842 337.902 166.45 356.293 166.45 356.293V356.293Z" fill="#2F2E41"/>
<path d="M134.024 314.255L122.184 331.613L148.921 338.777V314.255H134.024Z" fill="#FFB6B6"/>
<path opacity="0.1" d="M134.024 314.255L122.184 331.613L148.921 338.777V314.255H134.024Z" fill="black"/>
<path d="M150.585 330.974L125.173 320.465C125.173 320.465 90.9978 335.353 93.6267 364.254C96.2555 393.155 120.792 443.074 120.792 443.074L169.863 422.055L164.606 366.005L150.585 330.974V330.974Z" fill="#E6E6E6"/>
<path d="M139.689 322.005C152.071 322.005 162.109 311.973 162.109 299.598C162.109 287.223 152.071 277.191 139.689 277.191C127.307 277.191 117.27 287.223 117.27 299.598C117.27 311.973 127.307 322.005 139.689 322.005Z" fill="#FFB6B6"/>
<path d="M169.953 291.485C165.572 295.864 162.067 300.243 162.067 300.243L160.314 293.237C160.314 293.237 159.911 293.534 159.201 294.007C156.423 295.899 148.966 300.654 142.981 301.679C140.317 302.134 137.951 301.845 136.409 300.243C133.14 296.836 132.168 295.058 131.958 294.147L130.775 301.872L124.386 304.622C124.386 304.622 124.386 314.238 131.397 321.262C131.738 321.603 132.071 322.024 132.396 322.514C135.743 327.558 138.144 339.907 139.669 350.408C141.018 359.744 141.667 367.608 141.667 367.608C141.667 367.608 135.033 359.306 127.751 358.176C127.348 358.115 126.945 358.071 126.542 358.062C126.411 358.044 126.27 358.045 126.139 358.045C118.252 358.045 101.603 364.175 101.603 364.175C101.603 364.175 90.2113 345.784 97.2216 340.529C104.232 335.274 108.613 309.001 108.613 309.001C108.613 309.001 108.324 297.756 111.225 287.675C113.38 280.187 117.289 273.339 124.386 272.218C141.036 269.59 141.036 259.957 151.551 270.466C152.419 271.333 153.295 272.165 154.171 272.971C163.968 281.974 173.975 287.465 169.953 291.485V291.485Z" fill="#2F2E41"/>
<path d="M71.6232 409.047H63.2969V573.398H71.6232V409.047Z" fill="#3F3D56"/>
<path d="M273.535 409.047H265.209V573.398H273.535V409.047Z" fill="#3F3D56"/>
<path d="M220.455 339.354H165.293V394.484H220.455V339.354Z" fill="#6C63FF"/>
<path d="M133.5 397.971L155.928 383.717L165.046 389.214L133.5 425.441V397.971Z" fill="#FFB6B6"/>
<path d="M102.831 342.797C102.831 342.797 87.9338 346.3 94.9441 366.443C101.954 386.586 124.738 428.624 131.748 425.996C138.758 423.369 139.635 397.096 139.635 397.096C139.635 397.096 138.758 397.971 135.253 394.468C131.748 390.965 131.748 392.565 131.748 388.7C131.748 384.835 128.881 381.969 128.881 381.969L125.614 375.201C125.614 375.201 125.614 343.673 112.47 341.921C99.3256 340.17 102.831 342.797 102.831 342.797H102.831Z" fill="#E6E6E6"/>
<path d="M172.427 388.272C178.244 382.457 180.047 374.833 176.454 371.242C172.861 367.651 165.232 369.453 159.415 375.267C153.597 381.081 151.794 388.706 155.387 392.297C158.98 395.888 166.609 394.086 172.427 388.272Z" fill="#FFB6B6"/>
<path d="M290.188 402.806H38.3164V421.53H290.188V402.806Z" fill="#3F3D56"/>
<path d="M546.09 253.018H508.892C505.943 253.018 503.553 255.407 503.553 258.354V273.687C503.553 276.634 505.943 279.023 508.892 279.023H546.09C549.039 279.023 551.429 276.634 551.429 273.687V258.354C551.429 255.407 549.039 253.018 546.09 253.018Z" fill="#3F3D56"/>
<path d="M624.149 268.35H586.95C584.002 268.35 581.611 270.739 581.611 273.686V273.686C581.611 276.634 584.002 279.023 586.95 279.023H624.149C627.097 279.023 629.488 276.634 629.488 273.686V273.686C629.488 270.739 627.097 268.35 624.149 268.35Z" fill="#6C63FF"/>
</g>
<defs>
<clipPath id="clip0_67_6993">
<rect width="885.75" height="579.75" fill="white" transform="translate(0.5 0.250061)"/>
</clipPath>
</defs>
</svg>
