<svg width="584" height="698" viewBox="0 0 584 698" fill="none" xmlns="http://www.w3.org/2000/svg">
<g clip-path="url(#clip0_67_7097)">
<path d="M467.891 241.251H410.399V222.309C410.399 190.558 436.16 164.78 467.891 164.78H467.891V241.251V241.251Z" fill="#2F2E41"/>
<path d="M455.149 205.89L465.034 250.379L407.109 240.755L430.714 198.679L455.149 205.89Z" fill="#A0616A"/>
<path opacity="0.1" d="M455.149 205.89L465.034 250.379L407.109 240.755L430.714 198.679L455.149 205.89Z" fill="black"/>
<path d="M399.614 383.172H455.148V300.928H399.614V383.172Z" fill="#A0616A"/>
<path d="M491.243 450.412L479.026 515.985C479.026 515.985 486.801 561.553 463.476 608.232L447.926 656.023L424.602 652.688C424.602 652.688 439.041 617.123 439.041 601.564C439.041 586.004 442.373 525.988 442.373 525.988L440.707 457.505L491.243 450.412Z" fill="#2F2E41"/>
<path d="M421.269 651.577C421.269 651.577 447.926 641.574 450.148 656.023L449.037 662.691C449.037 662.691 459.033 692.699 444.594 694.922C430.155 697.145 416.827 700.479 415.716 693.81C414.605 687.142 414.623 678.818 417.391 672.977C420.159 667.137 421.269 651.577 421.269 651.577Z" fill="#2F2E41"/>
<path d="M407.165 440.241L400.676 506.627C400.676 506.627 380.543 548.233 389.974 599.562L391.628 649.794L414.959 653.082C414.959 653.082 410.974 614.902 415.298 599.956C419.623 585.01 433.103 526.435 433.103 526.435L453.737 461.117L407.165 440.241Z" fill="#2F2E41"/>
<path d="M418.467 652.942C418.467 652.942 395.642 635.916 389.493 649.176L388.706 655.89C388.706 655.89 370.764 681.933 384.016 688.086C397.267 694.239 409.143 701.151 412.063 695.055C414.984 688.959 417.28 680.958 416.245 674.577C415.209 668.197 418.467 652.942 418.467 652.942Z" fill="#2F2E41"/>
<path d="M477.917 345.384C504.04 369.777 505.978 408.372 490.69 454.302C490.69 454.302 441.819 487.645 406.277 445.411L388.506 359.833L477.917 345.384Z" fill="#2F2E41"/>
<path d="M434.043 226.464L461.811 230.91L459.589 300.928L490.689 363.167L450.704 383.172C450.704 383.172 419.604 324.268 414.051 287.591C408.497 250.915 411.829 224.241 411.829 224.241L434.043 226.464Z" fill="#6C63FF"/>
<path d="M412.941 228.687L385.173 233.132L387.395 303.151L380.73 367.613L396.28 385.395C396.28 385.395 427.38 326.491 432.933 289.814C438.487 253.138 435.155 226.464 435.155 226.464L412.941 228.687Z" fill="#6C63FF"/>
<path d="M446.26 230.354L452.369 228.687C452.369 228.687 474.028 225.908 477.36 234.8C480.692 243.691 479.581 295.927 479.581 295.927C479.581 295.927 485.313 360.038 463.01 360.769C440.707 361.5 445.15 308.152 445.15 308.152L446.26 230.354Z" fill="#6C63FF"/>
<path d="M445.455 218.099C461.331 218.099 474.201 205.221 474.201 189.335C474.201 173.449 461.331 160.571 445.455 160.571C429.579 160.571 416.709 173.449 416.709 189.335C416.709 205.221 429.579 218.099 445.455 218.099Z" fill="#A0616A"/>
<path d="M409.606 232.577L403.498 230.91C403.498 230.91 381.839 228.131 378.507 237.022C375.175 245.914 376.285 298.15 376.285 298.15C376.285 298.15 370.554 362.261 392.857 362.992C415.16 363.723 410.717 310.375 410.717 310.375L409.606 232.577Z" fill="#6C63FF"/>
<path d="M428.851 228.922C422.684 227.357 415.693 233.947 413.233 243.647C412.198 247.508 412.101 251.561 412.952 255.467L410.302 266.493L410.107 266.483L389.206 315.772C384.346 327.233 384.859 340.389 391.058 351.184C394.745 357.605 399.586 361.922 405.269 357.515C414.7 350.203 420.86 308.336 423.673 284.287L430.176 259.84C432.786 256.812 434.633 253.202 435.563 249.313C438.023 239.617 435.018 230.488 428.851 228.922V228.922Z" fill="#A0616A"/>
<path d="M390.421 212.606C391.884 208.157 394.77 204.262 396.061 199.761C397.776 193.784 401.427 207.043 401.783 200.835C402.46 189.036 420.457 158.684 430.731 152.854C441.006 147.023 446.907 148.781 457.374 154.257C457.374 154.257 462.455 154.58 468.781 157.705C475.106 160.83 480.8 165.835 483.261 172.451C485.211 177.695 484.995 183.453 485.647 189.01C487.462 204.492 496.135 219.216 494.273 234.693C493.692 239.521 491.858 244.514 487.913 247.354C483.967 250.194 477.593 249.885 474.996 245.774C474.11 244.372 473.735 242.707 472.976 241.232C472.216 239.757 470.844 238.381 469.186 238.427C466.694 238.496 465.426 241.842 466.408 244.135C467.391 246.427 469.7 247.811 471.868 249.043C466.705 251.367 460.299 250.643 455.784 247.225C451.268 243.806 448.829 237.835 449.66 232.231C450.831 224.333 462.33 225.968 463.684 218.099C464.67 212.372 468.133 202.787 467.19 197.052C466.247 191.317 461.717 198.261 466.489 194.948C461.239 197.48 450.009 180.155 444.513 178.214C439.017 176.274 434.357 172.072 431.857 166.804C426.028 175.259 420.9 172.963 418.812 183.021C416.725 193.079 418.655 215.929 427.251 221.545C423.811 223.894 421.069 227.253 419.454 231.094C418.54 233.271 417.947 235.652 416.429 237.459C413.53 240.912 408.178 241.122 403.911 239.67C398.621 237.87 394.098 233.917 391.604 228.914C389.11 223.91 388.676 217.917 390.421 212.606L390.421 212.606Z" fill="#2F2E41"/>
<path d="M0.498047 696.141C0.498047 696.875 1.08675 697.464 1.81984 697.464H581.926C582.659 697.464 583.248 696.875 583.248 696.141C583.248 695.408 582.659 694.819 581.926 694.819H1.81984C1.08675 694.819 0.498047 695.408 0.498047 696.141Z" fill="#3F3D56"/>
<path d="M378.181 1.36133H149.745C123.84 1.36133 102.84 22.3747 102.84 48.296V648.937C102.84 674.858 123.84 695.871 149.744 695.871H378.181C404.085 695.871 425.085 674.858 425.085 648.937V48.296C425.085 22.3747 404.085 1.36133 378.181 1.36133H378.181Z" fill="white"/>
<path d="M378.184 696.982H149.748C123.272 696.982 101.732 675.429 101.732 648.937V48.2962C101.732 21.8037 123.272 0.250092 149.748 0.250092H378.184C404.66 0.250092 426.199 21.8037 426.199 48.2962V648.937C426.199 675.429 404.66 696.982 378.184 696.982H378.184ZM149.748 2.4729C124.497 2.4729 103.954 23.029 103.954 48.2962V648.937C103.954 674.204 124.497 694.759 149.748 694.759H378.184C403.435 694.759 423.978 674.204 423.978 648.937V48.2962C423.978 23.029 403.435 2.4729 378.184 2.4729H149.748Z" fill="#3F3D56"/>
<path d="M83.9645 105.352C81.959 105.352 80.3281 106.984 80.3281 108.991V138.1C80.3281 140.107 81.959 141.738 83.9645 141.738C85.9699 141.738 87.6008 140.107 87.6008 138.1V108.991C87.6008 106.984 85.9699 105.352 83.9645 105.352Z" fill="#3F3D56"/>
<path d="M394.732 97.4551H302.913C299.018 97.4551 295.85 94.2845 295.85 90.3875C295.85 86.4906 299.018 83.32 302.913 83.32H394.732C398.626 83.32 401.795 86.4906 401.795 90.3875C401.795 94.2845 398.626 97.4551 394.732 97.4551Z" fill="#E6E6E6"/>
<path d="M308.591 153.034H219.339C217.089 153.034 215.258 151.201 215.258 148.95C215.258 146.698 217.089 144.867 219.339 144.867H308.591C310.841 144.867 312.671 146.698 312.671 148.95C312.671 151.201 310.841 153.034 308.591 153.034Z" fill="#6C63FF"/>
<path d="M87.4953 173.187C127.306 173.187 159.578 141.574 159.578 102.577C159.578 63.5808 127.306 31.9679 87.4953 31.9679C47.6849 31.9679 15.4121 63.5808 15.4121 102.577C15.4121 141.574 47.6849 173.187 87.4953 173.187Z" fill="#6C63FF"/>
<path d="M111.961 66.9615C102.365 84.4469 92.7683 101.932 83.1717 119.418C77.0555 108.604 70.9727 97.7718 64.8414 86.9668C62.724 83.2352 56.9643 86.5916 59.0871 90.3325C66.1946 102.858 73.2285 115.425 80.3359 127.95C81.5512 130.092 84.8875 130.142 86.0903 127.95C96.6321 108.743 107.174 89.5349 117.716 70.3272C119.781 66.5634 114.029 63.1948 111.961 66.9615H111.961Z" fill="white"/>
<path d="M182.443 16.5409H131.487C131.297 16.5409 131.143 16.6953 131.143 16.8857V22.8215C131.143 23.012 131.297 23.1663 131.487 23.1663H182.443C182.634 23.1663 182.788 23.012 182.788 22.8215V16.8857C182.788 16.6953 182.634 16.5409 182.443 16.5409Z" fill="#E6E6E6"/>
<path d="M354.076 23.1663C357.002 23.1663 359.373 20.7933 359.373 17.866C359.373 14.9387 357.002 12.5657 354.076 12.5657C351.151 12.5657 348.779 14.9387 348.779 17.866C348.779 20.7933 351.151 23.1663 354.076 23.1663Z" fill="#E6E6E6"/>
<path d="M368.643 23.1663C371.568 23.1663 373.94 20.7933 373.94 17.866C373.94 14.9387 371.568 12.5657 368.643 12.5657C365.717 12.5657 363.346 14.9387 363.346 17.866C363.346 20.7933 365.717 23.1663 368.643 23.1663Z" fill="#E6E6E6"/>
<path d="M383.209 23.1663C386.134 23.1663 388.506 20.7933 388.506 17.866C388.506 14.9387 386.134 12.5657 383.209 12.5657C380.284 12.5657 377.912 14.9387 377.912 17.866C377.912 20.7933 380.284 23.1663 383.209 23.1663Z" fill="#E6E6E6"/>
<path d="M149.188 174.892C149.188 175.625 149.776 176.214 150.509 176.214H377.414C378.147 176.214 378.736 175.625 378.736 174.892C378.736 174.158 378.147 173.569 377.414 173.569H150.509C149.776 173.569 149.188 174.158 149.188 174.892Z" fill="#3F3D56"/>
<path d="M355.659 278.843H219.489C217.239 278.843 215.408 277.01 215.408 274.759C215.408 272.507 217.239 270.676 219.489 270.676H355.659C357.909 270.676 359.739 272.507 359.739 274.759C359.739 277.011 357.909 278.843 355.659 278.843Z" fill="#6C63FF"/>
<path d="M355.659 337.747H219.489C217.239 337.747 215.408 335.915 215.408 333.663C215.408 331.412 217.239 329.581 219.489 329.581H355.659C357.909 329.581 359.739 331.412 359.739 333.663C359.739 335.915 357.909 337.747 355.659 337.747Z" fill="#6C63FF"/>
<path d="M355.659 396.652H219.489C217.239 396.652 215.408 394.82 215.408 392.568C215.408 390.316 217.239 388.485 219.489 388.485H355.659C357.909 388.485 359.739 390.316 359.739 392.568C359.739 394.82 357.909 396.652 355.659 396.652Z" fill="#6C63FF"/>
<path d="M178.19 284.257C183.71 284.257 188.186 279.779 188.186 274.255C188.186 268.73 183.71 264.252 178.19 264.252C172.669 264.252 168.193 268.73 168.193 274.255C168.193 279.779 172.669 284.257 178.19 284.257Z" fill="#6C63FF"/>
<path d="M177.08 290.926V288.703C185.348 288.703 192.075 281.972 192.075 273.699C192.075 265.426 185.348 258.695 177.08 258.695V256.472C186.573 256.472 194.296 264.2 194.296 273.699C194.296 283.198 186.573 290.926 177.08 290.926Z" fill="#3F3D56"/>
<path d="M178.19 343.162C183.71 343.162 188.186 338.683 188.186 333.159C188.186 327.635 183.71 323.156 178.19 323.156C172.669 323.156 168.193 327.635 168.193 333.159C168.193 338.683 172.669 343.162 178.19 343.162Z" fill="#6C63FF"/>
<path d="M177.08 349.83V347.607C185.348 347.607 192.075 340.877 192.075 332.603C192.075 324.33 185.348 317.599 177.08 317.599V315.377C186.573 315.377 194.296 323.104 194.296 332.603C194.296 342.102 186.573 349.83 177.08 349.83Z" fill="#3F3D56"/>
<path d="M178.19 402.066C183.71 402.066 188.186 397.588 188.186 392.064C188.186 386.539 183.71 382.061 178.19 382.061C172.669 382.061 168.193 386.539 168.193 392.064C168.193 397.588 172.669 402.066 178.19 402.066Z" fill="#6C63FF"/>
<path d="M177.08 408.735V406.512C185.348 406.512 192.075 399.782 192.075 391.508C192.075 383.234 185.348 376.504 177.08 376.504V374.281C186.573 374.281 194.296 382.009 194.296 391.508C194.296 401.007 186.573 408.735 177.08 408.735Z" fill="#3F3D56"/>
<path d="M427.022 226.7C433.189 225.134 440.18 231.725 442.64 241.424C443.676 245.285 443.772 249.338 442.921 253.244L445.571 264.27L445.766 264.26L466.668 313.549C471.527 325.01 471.014 338.167 464.815 348.961C461.128 355.382 456.287 359.699 450.604 355.292C441.173 347.98 435.013 306.114 432.201 282.064L425.698 257.617C423.087 254.589 421.24 250.979 420.31 247.09C417.85 237.395 420.855 228.265 427.022 226.7V226.7Z" fill="#A0616A"/>
<path d="M450.765 253.709L427.381 270.343L439.073 344.022L453.737 362.999L470.819 357.088L475.814 322.258L469.936 288.574L450.765 253.709Z" fill="#6C63FF"/>
<path d="M99.0946 105.215C93.2255 104.236 85.5451 105.445 79.8118 106.878C77.7958 107.382 78.9105 108.28 79.6606 109.222C82.8146 113.184 84.9301 118.582 86.315 123.399C86.5522 124.224 88.8724 133.644 87.6762 133.644C80.367 133.644 83.8544 117.903 85.5966 114.477C87.5983 110.541 90.8302 107.973 94.0281 105.063C94.9362 104.237 97.3821 101.927 97.1663 103.135C96.2164 108.454 93.8541 113.806 92.1377 118.9C91.4783 120.857 91.4807 126.182 90.0203 124.722C89.1521 123.854 93.6398 111.825 93.65 111.793C93.8124 111.278 96.4762 102.969 97.0151 101.396C97.1857 100.898 97.0574 99.9655 97.5822 99.9217C99.3833 99.7717 97.145 103.511 96.826 105.29C96.2189 108.676 95.217 112 94.8599 115.422C94.2177 121.576 99.6663 104.017 101.93 98.2583C103.389 94.5472 104.816 90.8224 106.354 87.1435C107.516 84.3631 109.591 76.526 110.815 79.2799C112.284 82.5833 110.065 88.0695 110.248 91.6423C110.485 96.258 113.241 82.6892 113.084 78.0701C113.002 75.6564 111.406 82.6027 110.702 84.9129C110.677 84.9944 108.212 94.0645 109.379 86.7654C110.354 80.6648 114.053 62.5117 112.555 68.5053C111.796 71.5416 109.216 80.5578 110.286 77.6165C110.857 76.0469 114.11 66.2043 115.806 66.1236C116 66.1144 115.33 78.8867 114.105 80.1116C113.692 80.524 113.029 68.9946 112.706 68.4675C112.534 68.1863 112.185 68.8973 112.025 69.1858C109.944 72.9434 108.332 76.9425 106.505 80.8299C104.097 85.954 101.532 91.0344 99.2458 96.2168C98.8362 97.1453 96.6261 103.359 96.5614 101.321C96.3322 94.102 100.488 73.3465 96.9773 79.658C90.6113 91.1012 88.8198 104.796 82.4585 116.216C79.4788 121.565 79.0141 102.547 78.0726 110.28C77.6232 113.971 77.476 121.178 77.2408 124.609C76.466 135.906 75.171 125.545 74.5941 121.925C74.4007 120.71 72.8356 109.186 72.3256 106.954C72.225 106.513 71.8526 105.38 71.645 105.782C70.2678 108.444 71.05 111.749 70.8888 114.742C70.814 116.13 70.5927 120.29 70.5485 118.9C70.348 112.583 70.5107 106.241 70.5107 99.9217C70.5107 99.2664 70.5107 97.3006 70.5107 97.9558C70.5107 101.825 70.5107 105.693 70.5107 109.562C70.5107 118.887 70.4796 116.656 69.3008 109.373C68.5951 105.013 67.3374 97.0301 65.8224 92.5875C63.3541 85.3497 62.8262 96.7817 62.7976 97.0863C62.6687 98.4576 62.6008 99.8339 62.4951 101.207C62.339 103.236 62.3576 102.856 62.3439 100.375C62.3231 96.6075 61.7622 85.3548 62.3817 89.0715C62.8813 92.0689 62.5964 95.1452 62.6842 98.1827C62.7483 100.401 62.8732 102.618 62.8732 104.836C62.8732 108.976 62.6157 107.802 61.8146 104.458C61.7607 104.234 58.9019 89.6643 57.958 89.9789C56.9321 90.3208 58.8245 96.9135 58.9411 97.729" stroke="#6C63FF" stroke-width="7.5" stroke-linecap="round"/>
<path d="M80.4702 111.622C80.4702 108.934 80.8862 106.63 81.7182 104.71C82.6142 102.79 83.7022 101.094 84.9822 99.6216C86.3262 98.1496 87.7342 96.7736 89.2062 95.4936C90.7422 94.2136 92.1822 92.9336 93.5262 91.6536C94.8702 90.3096 95.9582 88.8696 96.7902 87.3336C97.6222 85.7336 98.0382 83.8776 98.0382 81.7656C98.0382 78.3096 96.6942 75.4936 94.0062 73.3176C91.3182 71.1416 87.5102 70.0536 82.5822 70.0536C78.4862 70.0536 74.9342 70.7256 71.9262 72.0696C68.9182 73.3496 66.3582 75.2696 64.2462 77.8296L59.1582 73.9896C61.7182 70.7896 65.0142 68.3256 69.0462 66.5976C73.0782 64.8696 77.7502 64.0056 83.0622 64.0056C87.5422 64.0056 91.4142 64.6776 94.6782 66.0216C98.0062 67.3656 100.566 69.2856 102.358 71.7816C104.214 74.2776 105.142 77.2536 105.142 80.7096C105.142 83.4616 104.694 85.8296 103.798 87.8136C102.966 89.7336 101.878 91.4616 100.534 92.9976C99.2542 94.4696 97.8462 95.8776 96.3102 97.2216C94.8382 98.5016 93.4302 99.8136 92.0862 101.158C90.7422 102.502 89.6542 104.006 88.8222 105.67C87.9902 107.334 87.5742 109.318 87.5742 111.622H80.4702ZM84.0222 132.262C82.6782 132.262 81.4942 131.782 80.4702 130.822C79.5102 129.798 79.0302 128.614 79.0302 127.27C79.0302 125.862 79.5102 124.71 80.4702 123.814C81.4942 122.854 82.6782 122.374 84.0222 122.374C85.4942 122.374 86.7102 122.854 87.6702 123.814C88.6302 124.71 89.1102 125.862 89.1102 127.27C89.1102 128.614 88.6302 129.798 87.6702 130.822C86.7102 131.782 85.4942 132.262 84.0222 132.262Z" fill="white"/>
</g>
<defs>
<clipPath id="clip0_67_7097">
<rect width="582.75" height="697.5" fill="white" transform="translate(0.498047 0.250031)"/>
</clipPath>
</defs>
</svg>
