<svg width="831" height="579" viewBox="0 0 831 579" fill="none" xmlns="http://www.w3.org/2000/svg">
<g clip-path="url(#clip0_67_7173)">
<path d="M103.937 514.38L116.78 514.684L111.929 553.754L103.227 553.549L103.937 514.38Z" fill="#FFB6B6"/>
<path d="M133.084 571.692L133.084 571.692C133.084 570.631 132.532 569.671 131.679 569.25L122.094 564.519L115.56 549.374L115.461 534.116L101.995 532.533L100.048 542.253C100.048 542.253 104.058 541.655 99.1073 545.95C94.1569 550.245 96.5406 558.647 96.5406 558.647L95.4609 574.352H104.372L104.85 564.585C111.781 567.524 113.48 574.352 113.48 574.352H130.754C132.041 574.352 133.084 573.161 133.084 571.692H133.084H133.084Z" fill="#2F2E41"/>
<path d="M122.75 514.81L135.592 515.114L130.741 554.184L122.039 553.978L122.75 514.81Z" fill="#FFB6B6"/>
<path d="M151.897 572.122H151.896C151.896 571.061 151.344 570.101 150.491 569.68L140.907 564.949L134.372 549.804L134.273 534.546L120.808 532.963L118.861 542.683C118.861 542.683 122.87 542.085 117.92 546.38C112.969 550.675 115.353 559.077 115.353 559.077L114.273 574.782H123.184L123.663 565.015C130.593 567.954 132.293 574.782 132.293 574.782H149.566C150.853 574.782 151.897 573.591 151.897 572.122L151.897 572.122H151.897Z" fill="#2F2E41"/>
<path d="M108.027 285.643L93.468 320.382C88.615 331.962 87.077 344.662 89.0257 357.065L96.1017 527.728H124.078L136.289 375.752L138.699 435.785L110.693 521.317H138.238L173.594 435.785L176.216 369.924L163.654 318.817L108.027 285.643L108.027 285.643Z" fill="#2F2E41"/>
<path d="M502.444 136.995V50.2217C502.444 22.4851 479.943 9.15597e-05 452.188 9.15597e-05H268.219C240.464 -0.000366652 217.963 22.4843 217.963 50.2209V526.265C217.963 554.002 240.463 576.487 268.218 576.487H452.186C479.941 576.487 502.441 554.002 502.441 526.265V198.762H502.441C504.19 198.762 505.607 197.345 505.607 195.598L505.609 140.158C505.609 138.411 504.192 136.995 502.444 136.995L502.444 136.995V136.995Z" fill="#3F3D56"/>
<path d="M493.01 46.0461V528.816C463.64 527.013 478.579 565.685 454.908 566.9H267.164C246.113 566.903 229.043 549.853 229.037 528.816V46.0461C229.043 25.0092 246.112 7.95957 267.163 7.96227H281.009C277.238 17.2284 307.669 20.2431 310.002 20.2461H406.154C416.163 20.2334 440.312 10.1218 439.434 7.96227H454.9C475.943 7.96586 493.002 25.01 493.01 46.0388L493.01 46.0461H493.01Z" fill="white"/>
<path d="M216.486 147.624C215.147 147.624 214.059 148.712 214.059 150.05V169.458C214.059 170.796 215.147 171.884 216.486 171.884C217.825 171.884 218.914 170.796 218.914 169.458V150.05C218.914 148.712 217.825 147.624 216.486 147.624Z" fill="#3F3D56"/>
<path d="M216.486 205.848C215.147 205.848 214.059 206.936 214.059 208.274V245.878C214.059 247.216 215.147 248.304 216.486 248.304C217.825 248.304 218.914 247.216 218.914 245.878V208.274C218.914 206.936 217.825 205.848 216.486 205.848Z" fill="#3F3D56"/>
<path d="M216.486 259.221C215.147 259.221 214.059 260.309 214.059 261.647V299.25C214.059 300.588 215.147 301.676 216.486 301.676C217.825 301.676 218.914 300.588 218.914 299.25V261.647C218.914 260.309 217.825 259.221 216.486 259.221Z" fill="#3F3D56"/>
<path d="M789.09 545.801L777.57 553.687L741.648 513.035L758.651 501.396L789.09 545.801Z" fill="#FFB6B6"/>
<path d="M749.443 572.561C749.498 573.41 750.645 575.488 751.126 576.19C752.606 578.348 755.555 578.899 757.715 577.421L793.389 552.996C794.862 551.988 795.239 549.977 794.229 548.505L793.212 547.02C793.212 547.02 791.918 541.351 784.515 538.34C784.515 538.34 782.951 545.737 771.58 543.614L767.121 541.374L759.934 561.763L752.623 568.211C751.024 569.621 749.305 570.434 749.443 572.561L749.443 572.561L749.443 572.561Z" fill="#2F2E41"/>
<path d="M704.151 566.736L690.188 566.735L683.545 512.91L700.637 515.037L704.151 566.736Z" fill="#FFB6B6"/>
<path d="M656.311 566.42C655.876 567.151 655.646 569.513 655.646 570.364C655.646 572.98 657.768 575.1 660.386 575.1H703.63C705.415 575.1 706.863 573.654 706.863 571.869V570.07C706.863 570.07 709.002 564.663 704.598 557.998C704.598 557.998 699.124 563.216 690.944 555.042L688.532 550.676L671.072 563.436L661.394 564.627C659.277 564.887 657.4 564.586 656.311 566.419H656.311V566.42Z" fill="#2F2E41"/>
<path d="M655.195 362.187L656.245 374.88L654.154 384.973L657.962 395.614L662.62 451.877L686.896 548.88L705.432 552.78L696.534 455.885L703.436 375.963L655.195 362.187Z" fill="#2F2E41"/>
<path d="M733.964 307.085L663.072 308.069L655.195 362.184L703.437 384.815L701.898 462.103L755.624 539.823L784.239 523.486L736.291 457.483L749.717 347.425L733.963 307.085H733.964Z" fill="#2F2E41"/>
<path d="M681.485 179.86L668.979 195.9L674.887 318.891L721.162 317.908L729.039 210.66L719.194 183.109L715.631 176.935L711.37 168.941L684.054 170.891L681.486 179.86H681.485V179.86Z" fill="#E6E6E6"/>
<path d="M663.016 255.92L665.517 281.057L662.444 309.982L658.603 317.824L649.823 349.021C649.823 349.021 640.863 362.664 660.555 363.645C680.247 364.626 744.792 358.243 744.792 358.243C744.792 358.243 752.839 358.045 749.332 341.222C743.667 331.492 747.32 317.781 747.32 317.781L739.869 290.351L741.838 264.77L755.623 197.862C743.38 188.248 729.668 181.366 714.762 176.706L701.706 211.014L682.267 179.658L674.883 185.07C664.923 187.68 656.158 191.693 649.225 197.861L663.016 255.92Z" fill="#2F2E41"/>
<path d="M429.312 196.242H290.356C280.831 196.232 273.112 188.518 273.102 179V119.311C273.112 109.792 280.831 102.079 290.356 102.068C334.696 89.7919 381.199 90.9423 429.312 102.068C438.836 102.079 446.554 109.793 446.565 119.311V179C446.554 188.518 438.836 196.231 429.312 196.242H429.312Z" fill="#F2F2F2"/>
<path d="M443.468 258.799H276.199C274.489 258.798 273.103 257.413 273.102 255.704V214.24C273.104 212.532 274.489 211.147 276.199 211.145H443.468C445.177 211.147 446.563 212.532 446.565 214.24V255.705C446.563 257.413 445.177 258.798 443.468 258.8V258.799ZM276.199 212.383C275.173 212.384 274.342 213.215 274.341 214.24V255.705C274.342 256.73 275.173 257.561 276.199 257.562H443.468C444.494 257.561 445.325 256.73 445.326 255.705V214.24C445.325 213.215 444.494 212.384 443.468 212.383H276.199Z" fill="#E6E6E6"/>
<path d="M327.93 226.301C326.732 226.326 325.782 227.317 325.807 228.514C325.832 229.675 326.768 230.61 327.93 230.635H430.149C431.346 230.68 432.353 229.748 432.399 228.552C432.445 227.356 431.511 226.349 430.314 226.303H327.93V226.301Z" fill="#E6E6E6"/>
<path d="M327.93 239.306C326.732 239.331 325.782 240.321 325.807 241.518C325.832 242.679 326.768 243.615 327.93 243.639H430.149C431.346 243.685 432.353 242.752 432.399 241.556C432.445 240.36 431.511 239.353 430.314 239.308H327.93V239.306Z" fill="#E6E6E6"/>
<path d="M299.217 243.641C304.007 243.641 307.891 239.76 307.891 234.973C307.891 230.186 304.007 226.305 299.217 226.305C294.426 226.305 290.543 230.186 290.543 234.973C290.543 239.76 294.426 243.641 299.217 243.641Z" fill="#E6E6E6"/>
<path d="M443.468 462.319H276.199C274.489 462.318 273.103 460.933 273.102 459.224V417.761C273.104 416.052 274.489 414.668 276.199 414.665H443.468C445.177 414.668 446.563 416.052 446.565 417.761V459.225C446.563 460.934 445.177 462.318 443.468 462.32V462.319ZM276.199 415.903C275.173 415.905 274.342 416.735 274.341 417.761V459.225C274.342 460.25 275.173 461.081 276.199 461.082L424.466 459.622C425.492 459.621 441.05 453.823 441.051 452.798L445.326 417.761C445.325 416.735 444.494 415.905 443.468 415.903H276.199Z" fill="#E6E6E6"/>
<path d="M327.929 436.002C326.732 435.977 325.741 436.927 325.715 438.123C325.69 439.32 326.64 440.311 327.838 440.336C327.868 440.337 327.899 440.337 327.929 440.336H430.148C431.345 440.382 432.353 439.449 432.399 438.253C432.444 437.057 431.511 436.05 430.314 436.004H327.929V436.002V436.002Z" fill="#E6E6E6"/>
<path d="M299.217 447.161C304.007 447.161 307.891 443.281 307.891 438.493C307.891 433.706 304.007 429.825 299.217 429.825C294.426 429.825 290.543 433.706 290.543 438.493C290.543 443.281 294.426 447.161 299.217 447.161Z" fill="#E6E6E6"/>
<path d="M443.468 376.526H276.199C274.489 376.525 273.103 375.14 273.102 373.431V331.968C273.104 330.259 274.489 328.875 276.199 328.872H443.468C445.177 328.875 446.563 330.259 446.565 331.968V373.432C446.563 375.141 445.177 376.525 443.468 376.528V376.526ZM276.199 330.111C275.173 330.112 274.342 330.943 274.341 331.968V373.432C274.342 374.457 275.173 375.288 276.199 375.289L424.466 373.829C425.492 373.828 441.05 368.03 441.051 367.005L445.326 331.968C445.325 330.943 444.494 330.112 443.468 330.111H276.199Z" fill="#E6E6E6"/>
<path d="M327.929 350.21C326.732 350.184 325.741 351.134 325.715 352.33C325.69 353.527 326.64 354.518 327.838 354.543C327.868 354.544 327.899 354.544 327.929 354.543H430.148C431.345 354.589 432.353 353.656 432.399 352.46C432.444 351.264 431.511 350.257 430.314 350.212H327.929V350.21V350.21Z" fill="#E6E6E6"/>
<path d="M299.217 361.368C304.007 361.368 307.891 357.488 307.891 352.7C307.891 347.913 304.007 344.032 299.217 344.032C294.426 344.032 290.543 347.913 290.543 352.7C290.543 357.488 294.426 361.368 299.217 361.368Z" fill="#E6E6E6"/>
<path d="M695.275 167.803C708.772 167.803 719.713 156.87 719.713 143.382C719.713 129.895 708.772 118.961 695.275 118.961C681.779 118.961 670.838 129.895 670.838 143.382C670.838 156.87 681.779 167.803 695.275 167.803Z" fill="#FFB6B6"/>
<path d="M713.225 163.448C714.571 163.677 716.151 160.417 717.661 157.241C720.823 150.593 722.832 146.368 722.985 140.394C723.115 135.303 721.7 136.639 720.323 125.321C719.869 121.588 713.487 121.595 712.188 119.822C709.994 116.828 713.36 115.593 707.901 113.794C697.676 110.425 693.053 115.659 686.559 116.11C686.395 116.121 683.176 119.267 681.378 119.43C678.228 119.715 673.684 119.224 671.646 114.428C669.742 109.944 668.48 123.048 670.182 124.67C671.628 126.047 674.121 129.503 674.185 129.754C674.257 130.039 668.256 123.395 667.254 126.133C666.533 128.103 668.803 138.24 670.636 138.621C672.169 138.939 675.918 133.89 675.072 135.961C673.11 140.764 684.907 143.828 699.029 134.187C699.529 133.846 699.056 134.391 700.803 138.621C703.006 143.956 703.504 144.245 703.465 145.714C703.382 148.895 700.992 149.832 701.691 151.921C702.256 153.613 704.467 154.923 706.127 154.581C707.999 154.195 708.32 151.88 709.676 151.921C710.837 151.956 712.215 153.704 712.338 155.468C712.596 159.184 707.092 160.205 706.127 165.221C705.582 168.052 711.988 163.237 713.225 163.448Z" fill="#2F2E41"/>
<path d="M768.53 358.653C768.636 355.918 768.085 353.198 766.923 350.719L769.44 322.219L755.83 321.42L754.743 350.421C753.459 352.839 752.773 355.528 752.742 358.265C752.572 365.111 755.968 370.748 760.326 370.857C764.684 370.966 768.357 365.504 768.528 358.659L768.53 358.653Z" fill="#FFB6B6"/>
<path d="M739.581 243.73L750.312 276.877L753.393 344.576L771.357 344.21L772.75 270.053C772.75 270.053 763.798 215.257 760.8 202.941C757.802 190.625 730.16 195.189 730.16 195.189L739.581 243.73V243.73V243.73Z" fill="#2F2E41"/>
<path d="M294.463 157.309C299.538 158.993 304.858 160.698 310.276 160.41C312.741 160.279 315.112 159.692 317.348 158.647C319.642 157.575 321.738 156.12 324.059 155.104C332.591 151.373 341.053 157.748 349.01 160.14C352.98 161.334 357.154 161.62 361.038 159.957C365.328 158.12 368.564 154.614 372.097 151.687C380.017 145.125 390.351 141.587 400.63 141.854C411.906 142.147 422.821 147.125 430.587 155.266C431.238 155.949 432.271 154.914 431.621 154.232C424.835 147.117 415.69 142.32 405.953 140.867C396.194 139.41 386.063 141.356 377.483 146.213C373.141 148.67 369.658 152.034 365.833 155.174C362.108 158.231 357.967 160.201 353.056 159.551C344.596 158.432 337.318 151.917 328.544 152.508C322.94 152.885 318.938 157.099 313.665 158.442C307.374 160.044 300.798 157.872 294.852 155.899C293.956 155.602 293.572 157.014 294.463 157.31L294.463 157.309V157.309Z" fill="#3F3D56"/>
<path d="M310.346 165.102C313.34 165.102 315.766 162.676 315.766 159.685C315.766 156.693 313.34 154.268 310.346 154.268C307.353 154.268 304.926 156.693 304.926 159.685C304.926 162.676 307.353 165.102 310.346 165.102Z" fill="#6C63FF"/>
<path d="M357.141 165.341C360.135 165.341 362.561 162.916 362.561 159.925C362.561 156.933 360.135 154.508 357.141 154.508C354.147 154.508 351.721 156.933 351.721 159.925C351.721 162.916 354.147 165.341 357.141 165.341Z" fill="#6C63FF"/>
<path d="M404.657 146.967C407.65 146.967 410.077 144.542 410.077 141.55C410.077 138.559 407.65 136.134 404.657 136.134C401.663 136.134 399.236 138.559 399.236 141.55C399.236 144.542 401.663 146.967 404.657 146.967Z" fill="#6C63FF"/>
<path d="M90.1407 329.474C74.115 375.072 94.5334 410.997 90.2962 387.823C86.755 368.456 147.097 309.522 165.26 321.674C164.88 319.708 153.335 284.25 152.203 284.086C153.786 280.101 151.58 280.063 151.49 278.022C151.147 270.137 152.981 261.951 156.553 253.527C158.895 247.019 158.936 241.426 156.666 236.917C154.714 233.211 151.434 230.378 147.481 228.984L135.579 214.62C132.479 210.881 127.906 202.814 123.048 202.844L96.9679 201.913C96.2226 201.465 87.0648 209.335 78.148 213.197C68.4771 217.389 70.4722 228.83 70.4965 228.977L70.519 229.113L70.6253 229.211L84.8404 271.023L97.684 283.052C97.0333 284.937 97.1962 286.353 98.4147 287.165C96.6655 288.458 88.8842 327.144 90.1407 328.499V329.474L90.1407 329.474Z" fill="#6C63FF"/>
<path d="M224.147 246.723C222.208 247.497 220.482 248.723 219.114 250.299L198.461 257.374L202.117 267.096L222.674 258.873C224.757 259.018 226.845 258.663 228.762 257.837C233.589 255.836 236.469 251.725 235.193 248.656C233.917 245.587 228.973 244.722 224.147 246.723V246.723Z" fill="#FFB6B6"/>
<path d="M113.979 215.523L161.094 279.078L216.323 263.879L213.922 249.481L171.866 257.441L148.405 221.397C140.743 206.597 125.644 203.617 113.979 215.522V215.523Z" fill="#6C63FF"/>
<path d="M452.374 535.998H430.873C427.118 535.998 424.063 532.945 424.063 529.193C419.987 518.126 419.473 508.2 424.063 499.907C424.063 496.155 427.118 493.102 430.873 493.102C437.231 488.493 444.644 489.893 452.374 493.102C456.129 493.102 459.184 496.155 459.184 499.907C456.575 509.29 456.764 519.079 459.184 529.193C459.184 532.945 456.129 535.998 452.374 535.998Z" fill="#6C63FF"/>
<path d="M450.296 506.135H432.931C432.332 506.135 431.846 505.65 431.846 505.051C431.846 504.452 432.332 503.966 432.931 503.966H450.296C450.896 503.966 451.382 504.452 451.382 505.051C451.382 505.65 450.896 506.135 450.296 506.135Z" fill="white"/>
<path d="M450.296 514.81H432.931C432.332 514.81 431.846 514.324 431.846 513.725C431.846 513.127 432.332 512.641 432.931 512.641H450.296C450.896 512.641 451.382 513.127 451.382 513.725C451.382 514.324 450.896 514.81 450.296 514.81Z" fill="white"/>
<path d="M450.296 523.486H432.931C432.332 523.486 431.846 523 431.846 522.401C431.846 521.802 432.332 521.317 432.931 521.317H450.296C450.896 521.317 451.382 521.802 451.382 522.401C451.382 523 450.896 523.486 450.296 523.486Z" fill="white"/>
<path d="M830.752 575.427H0.501953V577.067H830.752V575.427Z" fill="#E6E6E6"/>
<path d="M648.479 356.379C649.185 363.189 653.274 368.348 657.61 367.899C661.946 367.45 664.891 361.565 664.186 354.753C663.941 352.027 663.047 349.399 661.578 347.09L658.226 318.262L644.721 320.122L649.458 348.338C648.494 350.899 648.157 353.654 648.477 356.372L648.479 356.379Z" fill="#FFB6B6"/>
<path d="M668.354 239.54L673.95 190.412C673.95 190.412 646.036 188.021 644.01 200.533C641.984 213.046 637.344 268.373 637.344 268.373L644.532 342.194L662.469 341.157L660.247 273.424L668.354 239.54V239.54Z" fill="#2F2E41"/>
<path d="M129.123 196.502L91.4079 199.934L90.2949 160.761L131.383 159.596L129.123 196.502Z" fill="#2F2E41"/>
<path d="M110.053 191.244C120.984 191.244 129.845 182.388 129.845 171.464C129.845 160.54 120.984 151.685 110.053 151.685C99.1213 151.685 90.2598 160.54 90.2598 171.464C90.2598 182.388 99.1213 191.244 110.053 191.244Z" fill="#FFB6B6"/>
<path d="M125.977 152.192C125.837 147.284 119.726 146.752 114.965 145.541L110.647 143.302C106.409 142.224 101.913 142.982 98.2639 145.39L86.7511 152.36C81.5816 155.771 80.7605 161.285 78.6584 167.108L74.8536 175.633C72.7842 181.365 75.5188 188.961 77.6106 194.685L78.4872 197.084L77.1165 204.935L101.109 203.815L103.241 191.696L99.1458 187.095C97.6927 185.463 97.5749 183.039 98.8627 181.274H98.8627C103.495 174.923 102.637 166.023 102.637 166.023L108.5 169.219C112.352 169.745 115.785 169.687 118.805 169.056C122.127 168.362 124.95 166.975 127.283 164.908L129.374 171.933C129.912 180.678 128.277 182.998 120.478 191.552L134.155 200.132L133.649 195.489C132.446 184.443 136.114 175.732 135.6 166.742C135.244 160.526 131.544 154.987 125.977 152.192H125.977H125.977Z" fill="#2F2E41"/>
<path d="M129.256 318.974C127.324 318.184 125.23 317.867 123.15 318.051L103.379 308.797L99.248 318.328L119.749 326.688C121.146 328.24 122.894 329.434 124.847 330.172C129.71 332.084 134.639 331.129 135.856 328.035C137.072 324.942 134.119 320.886 129.256 318.974H129.256Z" fill="#FFB6B6"/>
<path d="M71.7229 220.033L61.4121 298.455L111.697 325.876L119.982 313.855L84.2036 290.376L92.3953 248.163C97.1765 232.201 88.3901 219.572 71.7235 220.033L71.7229 220.033Z" fill="#6C63FF"/>
</g>
<defs>
<clipPath id="clip0_67_7173">
<rect width="830.25" height="578.25" fill="white" transform="translate(0.501953 6.10352e-05)"/>
</clipPath>
</defs>
</svg>
