<svg width="769" height="680" viewBox="0 0 769 680" fill="none" xmlns="http://www.w3.org/2000/svg">
<g clip-path="url(#clip0_67_7267)">
<path d="M201.938 306.828C200.248 306.828 198.873 308.372 198.873 310.269V337.798C198.873 339.696 200.248 341.24 201.938 341.24C203.629 341.24 205.004 339.696 205.004 337.798V310.269C205.004 308.372 203.629 306.828 201.938 306.828Z" fill="#3F3D56"/>
<path d="M550.613 0.500046H274.877C243.608 0.500046 218.26 28.9556 218.26 64.0574V611.035C218.26 646.137 243.608 674.592 274.877 674.592H550.613C581.882 674.592 607.23 646.137 607.23 611.035V64.0574C607.23 28.9556 581.882 0.500046 550.613 0.500046Z" fill="white"/>
<path d="M550.61 679.25H274.874C242.916 679.25 216.916 650.064 216.916 614.188V67.211C216.916 31.3357 242.916 2.1485 274.874 2.1485H550.61C582.568 2.1485 608.568 31.3357 608.568 67.211V614.188C608.568 650.063 582.568 679.25 550.61 679.25ZM274.874 5.15857C244.394 5.15857 219.597 32.995 219.597 67.211V614.188C219.597 648.404 244.394 676.24 274.874 676.24H550.61C581.09 676.24 605.887 648.404 605.887 614.188V67.211C605.887 32.995 581.09 5.15857 550.61 5.15857H274.874Z" fill="#3F3D56"/>
<path d="M570.583 133.78H459.752C455.051 133.78 451.227 129.487 451.227 124.21C451.227 118.933 455.051 114.639 459.752 114.639H570.583C575.284 114.639 579.109 118.933 579.109 124.21C579.109 129.487 575.284 133.78 570.583 133.78Z" fill="#E6E6E6"/>
<path d="M466.609 209.043H358.875C356.159 209.043 353.949 206.562 353.949 203.513C353.949 200.464 356.159 197.984 358.875 197.984H466.609C469.325 197.984 471.534 200.464 471.534 203.513C471.534 206.562 469.325 209.043 466.609 209.043V209.043Z" fill="#6C63FF"/>
<path d="M314.465 24.209H252.706C252.546 24.209 252.416 24.355 252.416 24.5351V32.8549C252.416 33.035 252.546 33.181 252.706 33.181H314.465C314.625 33.181 314.755 33.035 314.755 32.8549V24.5351C314.755 24.355 314.625 24.209 314.465 24.209Z" fill="#E6E6E6"/>
<path d="M521.517 33.1809C525.048 33.1809 527.911 29.9674 527.911 26.0034C527.911 22.0393 525.048 18.8259 521.517 18.8259C517.986 18.8259 515.123 22.0393 515.123 26.0034C515.123 29.9674 517.986 33.1809 521.517 33.1809Z" fill="#E6E6E6"/>
<path d="M539.099 33.1809C542.63 33.1809 545.493 29.9674 545.493 26.0034C545.493 22.0393 542.63 18.8259 539.099 18.8259C535.568 18.8259 532.705 22.0393 532.705 26.0034C532.705 29.9674 535.568 33.1809 539.099 33.1809Z" fill="#E6E6E6"/>
<path d="M556.681 33.1809C560.212 33.1809 563.075 29.9674 563.075 26.0034C563.075 22.0393 560.212 18.8259 556.681 18.8259C553.15 18.8259 550.287 22.0393 550.287 26.0034C550.287 29.9674 553.15 33.1809 556.681 33.1809Z" fill="#E6E6E6"/>
<path d="M274.203 238.643C274.203 239.636 274.914 240.434 275.799 240.434H549.687C550.571 240.434 551.282 239.636 551.282 238.643C551.282 237.649 550.571 236.852 549.687 236.852H275.799C274.914 236.852 274.203 237.649 274.203 238.643Z" fill="#3F3D56"/>
<path d="M491.422 491.951C491.422 492.944 492.132 493.742 493.017 493.742H766.905C767.79 493.742 768.501 492.944 768.501 491.951C768.501 490.958 767.79 490.16 766.905 490.16H493.017C492.132 490.16 491.422 490.958 491.422 491.951Z" fill="#3F3D56"/>
<path d="M523.422 379.409H359.057C356.341 379.409 354.131 376.929 354.131 373.88C354.131 370.831 356.341 368.351 359.057 368.351H523.422C526.138 368.351 528.347 370.831 528.347 373.88C528.347 376.929 526.138 379.409 523.422 379.409Z" fill="#6C63FF"/>
<path d="M309.201 386.742C315.865 386.742 321.267 380.677 321.267 373.196C321.267 365.716 315.865 359.651 309.201 359.651C302.537 359.651 297.135 365.716 297.135 373.196C297.135 380.677 302.537 386.742 309.201 386.742Z" fill="#6C63FF"/>
<path d="M307.863 395.772V392.762C317.843 392.762 325.962 383.647 325.962 372.444C325.962 361.241 317.843 352.126 307.863 352.126V349.116C319.322 349.116 328.644 359.581 328.644 372.444C328.644 385.307 319.322 395.772 307.863 395.772Z" fill="#3F3D56"/>
<path d="M164.15 318.57C169.072 312.947 175.646 311.24 178.833 314.757C182.02 318.274 180.613 325.682 175.689 331.306C173.749 333.583 171.352 335.305 168.698 336.329L147.575 359.857L137.951 348.495L159.796 326.506C160.662 323.508 162.155 320.787 164.15 318.57H164.15Z" fill="#FFB6B6"/>
<path d="M96.5939 299.148L118.74 354.301L154.104 332.812L166.761 340.353C166.761 340.353 137.851 394.609 118.057 388.432C98.2625 382.256 63.1129 326.253 69.446 308.969C75.7791 291.685 96.5939 299.148 96.5939 299.148Z" fill="#E6E6E6"/>
<path d="M0.501953 677.404C0.501953 678.098 0.998218 678.655 1.6162 678.655H684.447C685.065 678.655 685.561 678.098 685.561 677.404C685.561 676.71 685.065 676.153 684.447 676.153H1.6162C0.998218 676.153 0.501953 676.71 0.501953 677.404Z" fill="#3F3D56"/>
<path d="M204.917 407.768C238.476 407.768 265.682 377.871 265.682 340.992C265.682 304.112 238.476 274.216 204.917 274.216C171.358 274.216 144.152 304.112 144.152 340.992C144.152 377.871 171.358 407.768 204.917 407.768Z" fill="#6C63FF"/>
<path d="M86.8822 666.72L103.03 666.718L110.712 596.796L86.8789 596.798L86.8822 666.72Z" fill="#FFB6B6"/>
<path d="M142.21 666.309C142.713 667.259 142.978 670.328 142.978 671.433C142.978 674.831 140.524 677.586 137.497 677.586H87.4881C85.4232 677.586 83.7491 675.707 83.7491 673.388V671.051C83.7491 671.051 81.2752 664.026 86.3685 655.368C86.3685 655.368 92.6989 662.148 102.158 651.529L104.947 645.856L125.139 662.434L136.331 663.98C138.779 664.318 140.95 663.928 142.21 666.309H142.21Z" fill="#2F2E41"/>
<path d="M99.104 302.687L99.4306 278.237L85.9994 268.838L71.3945 288.893L99.104 302.687Z" fill="#FFB6B6"/>
<path opacity="0.1" d="M99.1046 302.687L99.9739 278.847L86 268.838L90.7476 298.343L99.1046 302.687Z" fill="black"/>
<path d="M131.724 464.364L109.473 634.345H81.5552L85.2675 537.316L87.2212 486.297L81.5552 462.012C81.5552 462.012 78.9719 456.614 76.7956 450.071C74.3425 442.687 72.4049 433.834 75.2814 429.637C76.3397 428.089 79.0913 426.944 82.8306 426.091C85.1155 425.567 87.7748 425.158 90.6458 424.842C107.155 423.008 130.639 424.153 130.639 424.153L131.236 446.269L131.567 458.619L131.724 464.364L131.724 464.364Z" fill="#2F2E41"/>
<path d="M58.4375 658.407L74.4142 661.042L91.0743 593.118L67.4943 589.228L58.4375 658.407Z" fill="#FFB6B6"/>
<path d="M113.23 667.034C113.604 668.057 113.469 671.136 113.326 672.229C112.886 675.591 110.101 677.916 107.106 677.422L57.6292 669.256C55.5863 668.919 54.1735 666.786 54.4739 664.492L54.7767 662.18C54.7767 662.18 53.2393 654.826 59.4004 647.091C59.4004 647.091 64.7849 654.833 75.5193 645.872L79.0141 640.715L96.8429 660.413L107.715 663.77C110.094 664.505 112.292 664.473 113.23 667.034H113.23L113.23 667.034Z" fill="#2F2E41"/>
<path d="M132.072 436.016L129.02 465.522L112.376 527.699L84.977 630.064L57.3594 625.508L82.1459 479.96L79.6917 455.003C79.6917 455.003 78.8924 452.522 77.9762 448.89C76.1576 441.705 73.8767 430.004 76.3861 424.035C76.7249 423.224 77.1503 422.52 77.6765 421.95C78.6635 420.875 80.6694 420.223 83.357 419.877C94.5904 418.451 117.725 422.528 128.019 424.529L132.072 436.016V436.016Z" fill="#2F2E41"/>
<path d="M74.4648 283.721L101.601 298.343C101.601 298.343 130.365 393.995 130.365 398.869C130.365 403.743 138.506 406.79 133.622 412.273C128.737 417.756 142.713 422.4 135.182 426.78C127.652 431.16 80.6741 455.117 75.4504 452.957C61.0432 446.998 76.0609 425.103 76.0609 425.103C76.0609 425.103 65.2385 415.319 66.8667 410.445C68.4948 405.571 57.0977 312.355 57.0977 312.355L74.4648 283.721H74.4648Z" fill="#E6E6E6"/>
<path d="M157.154 368.005C163.888 365.772 170.374 367.862 171.64 372.674C172.905 377.485 168.472 383.195 161.734 385.428C159.054 386.362 156.213 386.561 153.45 386.01L124.809 395.069L121.309 379.89L149.915 372.571C151.969 370.422 154.451 368.857 157.154 368.005H157.154Z" fill="#FFB6B6"/>
<path d="M106.494 314.212L102.005 374.499L142.215 374.985L150.019 388.474C150.019 388.474 101.282 420.153 86.6472 403.966C72.0127 387.779 65.5012 319.663 78.5125 308.003C91.5237 296.344 106.494 314.212 106.494 314.212Z" fill="#E6E6E6"/>
<path d="M98.5409 285.331C111.379 285.331 121.787 273.647 121.787 259.235C121.787 244.823 111.379 233.14 98.5409 233.14C85.7025 233.14 75.2949 244.823 75.2949 259.235C75.2949 273.647 85.7025 285.331 98.5409 285.331Z" fill="#FFB6B6"/>
<path d="M86.0011 259.338C86.0011 259.338 89.6619 252.557 91.6753 249.064C93.6888 245.571 93.6888 240.453 93.6888 240.453C93.6888 240.453 112.359 240.023 118.582 245.982C124.805 251.941 129.198 229.955 123.158 222.352C123.158 222.352 120.596 225.64 121.145 226.872L121.694 228.105C121.694 228.105 118.582 214.133 109.613 211.462C109.613 211.462 104.624 214.355 106.02 215.99C107.417 217.626 95.3361 206.119 91.6753 212.9C91.6753 212.9 82.7064 212.695 83.8047 216.393L83.2555 218.653C83.2555 218.653 75.5679 215.982 75.0188 222.352C75.0188 222.352 77.7644 222.352 79.2287 223.996C80.693 225.64 73.9206 230.366 73.9206 230.366C73.9206 230.366 66.0499 254.612 76.6661 264.475C76.6661 264.475 76.7577 252.66 80.9676 255.537C85.1774 258.413 86.0011 259.338 86.0011 259.338Z" fill="#2F2E41"/>
<path d="M108.118 274.749L107.283 277.214L113.543 277.42L113.96 275.16L108.118 274.749Z" fill="#2F2E41"/>
<path d="M114.38 265.913C114.38 265.913 104.991 263.036 99.3566 271.666L98.1046 273.31C98.1046 273.31 86.2107 258.31 87.254 252.763L84.7501 252.968L82.2461 267.351C82.2461 267.351 90.1753 282.762 101.235 283.379C101.235 283.379 111.876 286.255 114.172 281.324C116.467 276.392 120.419 269.121 120.419 269.121L114.38 265.913H114.38ZM112.672 279.68H106.451C104.991 279.68 101.235 273.721 101.235 273.721C103.321 270.023 109.581 269.817 109.581 269.817H116.379L116.884 272.077L112.672 279.68H112.672Z" fill="#2F2E41"/>
<path d="M567.519 668.706L557.312 666.229L560.963 620.856L576.027 624.511L567.519 668.706Z" fill="#A0616A"/>
<path d="M532.602 659.964C532.168 660.488 531.627 662.387 531.493 663.085C531.079 665.233 532.295 667.35 534.209 667.814L565.818 675.481C567.123 675.798 568.41 674.866 568.692 673.401L568.976 671.924C568.976 671.924 571.394 667.863 569.228 661.61C569.228 661.61 564.402 664.924 559.715 656.762L558.642 652.749L543.863 660.132L536.601 659.394C535.012 659.232 533.687 658.652 532.602 659.964L532.602 659.964Z" fill="#2F2E41"/>
<path d="M549.267 665.235L540.752 658.449L560.012 618.349L572.58 628.363L549.267 665.235Z" fill="#A0616A"/>
<path d="M520.227 641.774C519.644 642.064 518.482 643.57 518.113 644.153C516.98 645.945 517.356 648.429 518.952 649.7L545.324 670.711C546.413 671.578 547.923 671.291 548.695 670.068L549.475 668.836C549.475 668.836 553.121 666.171 553.322 659.465C553.322 659.465 547.723 660.38 546.275 650.807L546.695 646.643L530.521 646.902L524.103 643.016C522.699 642.165 521.685 641.047 520.227 641.774L520.227 641.774V641.774Z" fill="#2F2E41"/>
<path d="M671.933 440.907C671.933 440.907 687.812 465.143 656.054 492.39L591.215 469.131L614.372 414.912L634.882 402.285L671.933 440.907Z" fill="#2F2E41"/>
<path d="M591.218 469.131L566.076 524.093L550.197 638.473L570.046 639.959L589.895 531.52L624.961 472.845L600.481 460.218" fill="#2F2E41"/>
<path d="M656.056 475.125V492.389L611.066 547.86C611.066 547.86 611.066 589.453 593.863 608.764L574.015 642.929L556.812 632.531L581.954 533.006L626.945 467.646L656.056 475.125Z" fill="#2F2E41"/>
<path d="M624.088 303.969L630.91 340.243L656.922 333.107C656.922 333.107 644.064 303.086 646.622 291.193L624.088 303.969Z" fill="#A0616A"/>
<path opacity="0.1" d="M624.088 303.969L630.91 340.243L656.922 333.107C656.922 333.107 644.064 303.086 646.622 291.193L624.088 303.969Z" fill="black"/>
<path d="M648.777 309.444L628.929 319.843C628.929 319.843 618.718 326.849 618.53 331.516C618.343 336.183 619.666 358.464 619.666 358.464C619.666 358.464 611.727 367.377 617.02 385.203L614.373 414.912L673.919 450.563L668.626 388.174L671.273 330.241L648.777 309.444Z" fill="#E6E6E6"/>
<path d="M666.597 478.492C664.273 484.478 659.638 487.984 656.244 486.323C652.851 484.662 651.985 478.464 654.311 472.476C655.211 470.07 656.611 467.941 658.394 466.267L668.526 441.044L678.968 446.634L667.871 470.905C667.992 473.512 667.555 476.114 666.597 478.492V478.492Z" fill="#A0616A"/>
<path d="M656.055 333.954C656.055 333.954 670.61 323.556 675.903 335.44C681.196 347.324 693.106 408.227 693.106 408.227L675.903 466.16L660.024 458.733L673.919 396.385L656.055 333.954Z" fill="#E6E6E6"/>
<path d="M581.452 469.141C577.328 473.744 571.868 475.087 569.259 472.139C566.649 469.192 567.878 463.072 572.005 458.467C573.631 456.603 575.631 455.202 577.838 454.383L595.535 435.125L603.408 444.64L585.127 462.615C584.384 465.088 583.124 467.326 581.452 469.141Z" fill="#A0616A"/>
<path d="M619.089 330.411C619.089 330.411 644.465 329.246 645.486 342.483C646.507 355.719 629.159 414.783 629.159 414.783L594.155 461.527L581.83 448.055L615.208 395.838L619.089 330.411Z" fill="#E6E6E6"/>
<path d="M692.359 487.28L530.091 457.899C527.41 457.414 525.58 454.569 526.013 451.559C526.445 448.549 528.979 446.496 531.66 446.982L693.928 476.363C696.609 476.848 698.438 479.691 698.006 482.701C697.573 485.711 695.041 487.766 692.359 487.28V487.28Z" fill="#6C63FF"/>
<path d="M481.76 456.4C488.423 456.4 493.826 450.335 493.826 442.854C493.826 435.373 488.423 429.309 481.76 429.309C475.096 429.309 469.693 435.373 469.693 442.854C469.693 450.335 475.096 456.4 481.76 456.4Z" fill="#6C63FF"/>
<path d="M477.232 464.902L477.659 461.93C487.512 463.714 496.82 456.168 498.41 445.107C499.999 434.047 493.276 423.597 483.423 421.813L483.85 418.841C495.163 420.89 502.881 432.887 501.057 445.586C499.232 458.285 488.545 466.95 477.232 464.902Z" fill="#3F3D56"/>
<path d="M626.688 311.679C637.725 311.679 646.672 301.635 646.672 289.245C646.672 276.855 637.725 266.81 626.688 266.81C615.65 266.81 606.703 276.855 606.703 289.245C606.703 301.635 615.65 311.679 626.688 311.679Z" fill="#A0616A"/>
<path d="M638.496 289.245C638.496 289.245 626.02 276.532 618.026 281.019C610.033 285.506 606.036 288.497 606.036 288.497C606.036 288.497 599.374 277.28 609.367 267.558C609.367 267.558 589.029 257.584 603.861 242.006C618.693 226.429 632.016 232.411 632.016 232.411C632.016 232.411 650.002 241.385 637.345 259.332C637.345 259.332 655.784 272.46 646.231 293.939C646.231 293.939 645.339 280.271 642.674 284.01C640.009 287.749 638.496 289.245 638.496 289.245V289.245Z" fill="#2F2E41"/>
<path d="M225.794 366.133C218.155 345.048 210.515 323.962 202.875 302.876C201.82 299.964 198.515 299.86 197.485 302.876C189.936 324.983 185.004 348.05 182.632 371.57C182.228 375.576 187.821 375.544 188.222 371.57C189.15 362.366 190.528 353.231 192.296 344.194C198.592 344.565 204.939 343.772 211.014 341.884C214.144 350.523 217.274 359.162 220.404 367.802C221.742 371.493 227.151 369.879 225.794 366.133H225.794ZM193.564 337.99C195.447 329.339 197.704 320.79 200.323 312.378L208.891 336.024C203.872 337.502 198.741 338.16 193.564 337.99Z" fill="white"/>
<path d="M236.565 371.407C239.668 371.407 242.183 368.584 242.183 365.101C242.183 361.618 239.668 358.794 236.565 358.794C233.462 358.794 230.947 361.618 230.947 365.101C230.947 368.584 233.462 371.407 236.565 371.407Z" fill="white"/>
<path d="M177.579 315.7C180.681 315.7 183.196 312.877 183.196 309.394C183.196 305.911 180.681 303.088 177.579 303.088C174.476 303.088 171.961 305.911 171.961 309.394C171.961 312.877 174.476 315.7 177.579 315.7Z" fill="white"/>
<path d="M341.188 327.25H339.5V293.5H341.188V327.25ZM337.813 327.25H336.125V293.5H337.813V327.25ZM334.438 327.25H332.75V293.5H334.438V327.25ZM344.563 318.813H360.711V320.5H344.563V322.188H360.711V323.875H344.563V325.563H360.711V327.25H342.875V293.5H360.711V295.188H344.563V296.875H360.711V298.563H344.563V300.25H360.711V301.938H344.563V306.133H359.773V307.82H344.563V309.508H359.773V311.195H344.563V312.883H359.773V314.57H344.563V318.813ZM377.516 311.125H387.688C389.031 311.125 390.172 310.703 391.109 309.859C392.047 309.016 392.516 307.828 392.516 306.297C392.516 305.172 392.023 304.164 391.039 303.273C390.07 302.383 388.953 301.938 387.688 301.938H373.203V327.25H371.516V300.25H387.688C389.422 300.25 390.938 300.859 392.234 302.078C393.547 303.297 394.203 304.703 394.203 306.297C394.203 308.281 393.57 309.867 392.305 311.055C391.039 312.227 389.5 312.813 387.688 312.813H377.516V311.125ZM377.516 314.5H387.688C389.938 314.5 391.867 313.734 393.477 312.203C395.086 310.672 395.891 308.703 395.891 306.297C395.891 304.25 395.07 302.453 393.43 300.906C391.789 299.344 389.875 298.563 387.688 298.563H369.828V327.25H368.141V296.875H387.688C390.344 296.875 392.656 297.82 394.625 299.711C396.594 301.586 397.578 303.781 397.578 306.297C397.578 309.109 396.602 311.461 394.648 313.352C392.711 315.242 390.391 316.188 387.688 316.188H377.516V314.5ZM377.516 317.875H387.688C389.766 317.875 391.688 317.375 393.453 316.375C395.219 315.375 396.625 313.984 397.672 312.203C398.734 310.422 399.266 308.453 399.266 306.297C399.266 304.344 398.742 302.516 397.695 300.813C396.648 299.094 395.227 297.727 393.43 296.711C391.648 295.695 389.734 295.188 387.688 295.188H366.453V327.25H364.766V293.5H387.688C389.453 293.5 391.148 293.852 392.773 294.555C394.414 295.242 395.828 296.164 397.016 297.32C398.203 298.461 399.156 299.82 399.875 301.398C400.594 302.977 400.953 304.609 400.953 306.297C400.953 309.031 400.328 311.422 399.078 313.469C397.828 315.5 396.148 317.047 394.039 318.109L397.578 327.25H395.773L392.422 318.789C392 318.93 391.508 319.07 390.945 319.211L394.109 327.25H392.305L389.211 319.492C388.727 319.539 388.219 319.563 387.688 319.563L390.664 327.25H388.883L385.93 319.563H384.406L387.242 327.25H385.461L382.602 319.563H377.516V317.875ZM376.578 327.25H374.891V303.625H387.688C388.563 303.625 389.305 303.891 389.914 304.422C390.523 304.938 390.828 305.563 390.828 306.297C390.828 308.391 389.781 309.438 387.688 309.438H377.516V307.75H387.688C388.656 307.75 389.141 307.266 389.141 306.297C389.141 306.031 388.992 305.805 388.695 305.617C388.414 305.414 388.078 305.313 387.688 305.313H376.578V327.25ZM417.453 311.125H427.625C428.969 311.125 430.109 310.703 431.047 309.859C431.984 309.016 432.453 307.828 432.453 306.297C432.453 305.172 431.961 304.164 430.977 303.273C430.008 302.383 428.891 301.938 427.625 301.938H413.141V327.25H411.453V300.25H427.625C429.359 300.25 430.875 300.859 432.172 302.078C433.484 303.297 434.141 304.703 434.141 306.297C434.141 308.281 433.508 309.867 432.242 311.055C430.977 312.227 429.438 312.813 427.625 312.813H417.453V311.125ZM417.453 314.5H427.625C429.875 314.5 431.805 313.734 433.414 312.203C435.023 310.672 435.828 308.703 435.828 306.297C435.828 304.25 435.008 302.453 433.367 300.906C431.727 299.344 429.813 298.563 427.625 298.563H409.766V327.25H408.078V296.875H427.625C430.281 296.875 432.594 297.82 434.563 299.711C436.531 301.586 437.516 303.781 437.516 306.297C437.516 309.109 436.539 311.461 434.586 313.352C432.648 315.242 430.328 316.188 427.625 316.188H417.453V314.5ZM417.453 317.875H427.625C429.703 317.875 431.625 317.375 433.391 316.375C435.156 315.375 436.563 313.984 437.609 312.203C438.672 310.422 439.203 308.453 439.203 306.297C439.203 304.344 438.68 302.516 437.633 300.813C436.586 299.094 435.164 297.727 433.367 296.711C431.586 295.695 429.672 295.188 427.625 295.188H406.391V327.25H404.703V293.5H427.625C429.391 293.5 431.086 293.852 432.711 294.555C434.352 295.242 435.766 296.164 436.953 297.32C438.141 298.461 439.094 299.82 439.813 301.398C440.531 302.977 440.891 304.609 440.891 306.297C440.891 309.031 440.266 311.422 439.016 313.469C437.766 315.5 436.086 317.047 433.977 318.109L437.516 327.25H435.711L432.359 318.789C431.938 318.93 431.445 319.07 430.883 319.211L434.047 327.25H432.242L429.148 319.492C428.664 319.539 428.156 319.563 427.625 319.563L430.602 327.25H428.82L425.867 319.563H424.344L427.18 327.25H425.398L422.539 319.563H417.453V317.875ZM416.516 327.25H414.828V303.625H427.625C428.5 303.625 429.242 303.891 429.852 304.422C430.461 304.938 430.766 305.563 430.766 306.297C430.766 308.391 429.719 309.438 427.625 309.438H417.453V307.75H427.625C428.594 307.75 429.078 307.266 429.078 306.297C429.078 306.031 428.93 305.805 428.633 305.617C428.352 305.414 428.016 305.313 427.625 305.313H416.516V327.25ZM457.531 305.617C456.219 306.93 455.563 308.516 455.563 310.375C455.563 312.234 456.219 313.828 457.531 315.156C458.859 316.469 460.453 317.125 462.313 317.125C464.172 317.125 465.758 316.469 467.07 315.156C468.398 313.828 469.063 312.234 469.063 310.375C469.063 308.516 468.398 306.93 467.07 305.617C465.758 304.289 464.172 303.625 462.313 303.625C460.453 303.625 458.859 304.289 457.531 305.617ZM456.336 316.352C454.695 314.695 453.875 312.703 453.875 310.375C453.875 308.047 454.695 306.063 456.336 304.422C457.992 302.766 459.984 301.938 462.313 301.938C464.641 301.938 466.625 302.766 468.266 304.422C469.922 306.063 470.75 308.047 470.75 310.375C470.75 312.703 469.922 314.695 468.266 316.352C466.625 317.992 464.641 318.813 462.313 318.813C459.984 318.813 457.992 317.992 456.336 316.352ZM455.141 303.227C453.172 305.211 452.188 307.594 452.188 310.375C452.188 313.156 453.172 315.539 455.141 317.523C457.125 319.508 459.516 320.5 462.313 320.5C465.109 320.5 467.492 319.508 469.461 317.523C471.445 315.539 472.438 313.156 472.438 310.375C472.438 307.594 471.445 305.211 469.461 303.227C467.492 301.242 465.109 300.25 462.313 300.25C459.516 300.25 457.125 301.242 455.141 303.227ZM452.07 316.305C451.023 314.492 450.5 312.516 450.5 310.375C450.5 308.234 451.023 306.258 452.07 304.445C453.133 302.633 454.57 301.203 456.383 300.156C458.195 299.094 460.172 298.563 462.313 298.563C464.453 298.563 466.43 299.094 468.242 300.156C470.055 301.203 471.484 302.633 472.531 304.445C473.594 306.258 474.125 308.234 474.125 310.375C474.125 312.516 473.594 314.492 472.531 316.305C471.484 318.117 470.055 319.555 468.242 320.617C466.43 321.664 464.453 322.188 462.313 322.188C460.172 322.188 458.195 321.664 456.383 320.617C454.57 319.555 453.133 318.117 452.07 316.305ZM449.867 305.148C449.164 306.805 448.813 308.547 448.813 310.375C448.813 312.203 449.164 313.953 449.867 315.625C450.586 317.281 451.547 318.719 452.75 319.938C453.969 321.141 455.406 322.102 457.063 322.82C458.734 323.523 460.484 323.875 462.313 323.875C464.141 323.875 465.883 323.523 467.539 322.82C469.211 322.102 470.648 321.141 471.852 319.938C473.07 318.719 474.031 317.281 474.734 315.625C475.453 313.953 475.813 312.203 475.813 310.375C475.813 308.547 475.453 306.805 474.734 305.148C474.031 303.477 473.07 302.039 471.852 300.836C470.648 299.617 469.211 298.656 467.539 297.953C465.883 297.234 464.141 296.875 462.313 296.875C460.484 296.875 458.734 297.234 457.063 297.953C455.406 298.656 453.969 299.617 452.75 300.836C451.547 302.039 450.586 303.477 449.867 305.148ZM448.32 316.281C447.523 314.406 447.125 312.438 447.125 310.375C447.125 308.313 447.523 306.344 448.32 304.469C449.133 302.594 450.211 300.984 451.555 299.641C452.914 298.281 454.531 297.203 456.406 296.406C458.281 295.594 460.25 295.188 462.313 295.188C464.375 295.188 466.344 295.594 468.219 296.406C470.094 297.203 471.703 298.281 473.047 299.641C474.406 300.984 475.484 302.594 476.281 304.469C477.094 306.344 477.5 308.313 477.5 310.375C477.5 312.438 477.094 314.406 476.281 316.281C475.484 318.156 474.406 319.773 473.047 321.133C471.703 322.477 470.094 323.555 468.219 324.367C466.344 325.164 464.375 325.563 462.313 325.563C460.25 325.563 458.281 325.164 456.406 324.367C454.531 323.555 452.914 322.477 451.555 321.133C450.211 319.773 449.133 318.156 448.32 316.281ZM446.773 303.836C445.883 305.914 445.438 308.094 445.438 310.375C445.438 312.656 445.883 314.844 446.773 316.938C447.664 319.016 448.859 320.813 450.359 322.328C451.875 323.828 453.672 325.023 455.75 325.914C457.844 326.805 460.031 327.25 462.313 327.25C464.594 327.25 466.773 326.805 468.852 325.914C470.945 325.023 472.742 323.828 474.242 322.328C475.758 320.813 476.961 319.016 477.852 316.938C478.742 314.844 479.188 312.656 479.188 310.375C479.188 308.094 478.742 305.914 477.852 303.836C476.961 301.742 475.758 299.945 474.242 298.445C472.742 296.93 470.945 295.727 468.852 294.836C466.773 293.945 464.594 293.5 462.313 293.5C460.031 293.5 457.844 293.945 455.75 294.836C453.672 295.727 451.875 296.93 450.359 298.445C448.859 299.945 447.664 301.742 446.773 303.836ZM445.227 317.594C444.242 315.297 443.75 312.891 443.75 310.375C443.75 307.859 444.242 305.461 445.227 303.18C446.211 300.883 447.531 298.906 449.188 297.25C450.844 295.594 452.813 294.273 455.094 293.289C457.391 292.305 459.797 291.813 462.313 291.813C464.828 291.813 467.227 292.305 469.508 293.289C471.805 294.273 473.781 295.594 475.438 297.25C477.094 298.906 478.414 300.883 479.398 303.18C480.383 305.461 480.875 307.859 480.875 310.375C480.875 312.891 480.383 315.297 479.398 317.594C478.414 319.875 477.094 321.844 475.438 323.5C473.781 325.156 471.805 326.477 469.508 327.461C467.227 328.445 464.828 328.938 462.313 328.938C459.797 328.938 457.391 328.445 455.094 327.461C452.813 326.477 450.844 325.156 449.188 323.5C447.531 321.844 446.211 319.875 445.227 317.594ZM497.422 311.125H507.594C508.938 311.125 510.078 310.703 511.016 309.859C511.953 309.016 512.422 307.828 512.422 306.297C512.422 305.172 511.93 304.164 510.945 303.273C509.977 302.383 508.859 301.938 507.594 301.938H493.109V327.25H491.422V300.25H507.594C509.328 300.25 510.844 300.859 512.141 302.078C513.453 303.297 514.109 304.703 514.109 306.297C514.109 308.281 513.477 309.867 512.211 311.055C510.945 312.227 509.406 312.813 507.594 312.813H497.422V311.125ZM497.422 314.5H507.594C509.844 314.5 511.773 313.734 513.383 312.203C514.992 310.672 515.797 308.703 515.797 306.297C515.797 304.25 514.977 302.453 513.336 300.906C511.695 299.344 509.781 298.563 507.594 298.563H489.734V327.25H488.047V296.875H507.594C510.25 296.875 512.563 297.82 514.531 299.711C516.5 301.586 517.484 303.781 517.484 306.297C517.484 309.109 516.508 311.461 514.555 313.352C512.617 315.242 510.297 316.188 507.594 316.188H497.422V314.5ZM497.422 317.875H507.594C509.672 317.875 511.594 317.375 513.359 316.375C515.125 315.375 516.531 313.984 517.578 312.203C518.641 310.422 519.172 308.453 519.172 306.297C519.172 304.344 518.648 302.516 517.602 300.813C516.555 299.094 515.133 297.727 513.336 296.711C511.555 295.695 509.641 295.188 507.594 295.188H486.359V327.25H484.672V293.5H507.594C509.359 293.5 511.055 293.852 512.68 294.555C514.32 295.242 515.734 296.164 516.922 297.32C518.109 298.461 519.063 299.82 519.781 301.398C520.5 302.977 520.859 304.609 520.859 306.297C520.859 309.031 520.234 311.422 518.984 313.469C517.734 315.5 516.055 317.047 513.945 318.109L517.484 327.25H515.68L512.328 318.789C511.906 318.93 511.414 319.07 510.852 319.211L514.016 327.25H512.211L509.117 319.492C508.633 319.539 508.125 319.563 507.594 319.563L510.57 327.25H508.789L505.836 319.563H504.313L507.148 327.25H505.367L502.508 319.563H497.422V317.875ZM496.484 327.25H494.797V303.625H507.594C508.469 303.625 509.211 303.891 509.82 304.422C510.43 304.938 510.734 305.563 510.734 306.297C510.734 308.391 509.688 309.438 507.594 309.438H497.422V307.75H507.594C508.563 307.75 509.047 307.266 509.047 306.297C509.047 306.031 508.898 305.805 508.602 305.617C508.32 305.414 507.984 305.313 507.594 305.313H496.484V327.25Z" fill="#6C63FF"/>
</g>
<defs>
<clipPath id="clip0_67_7267">
<rect width="768" height="678.75" fill="white" transform="translate(0.498047 0.500046)"/>
</clipPath>
</defs>
</svg>
