<svg width="936" height="754" viewBox="0 0 936 754" fill="none" xmlns="http://www.w3.org/2000/svg">
<path fill-rule="evenodd" clip-rule="evenodd" d="M402.291 0.79646C493.009 -8.20592 801.722 60.4007 926.125 141.102C1032.19 209.91 1059.86 300.965 1052.03 418.588C1045.01 524.026 1211.74 693.687 1069.13 752.982C1051.54 760.294 639.951 725.577 492.857 732.813C311.476 741.736 219.929 733.452 120.804 661.975C15.1781 585.809 1.42729 524.167 0.0275689 412.745C-1.37234 301.309 50.5172 194.1 161.238 122.329C256.42 60.6307 270.777 13.8472 402.291 0.79646Z" fill="#E5E3FF"/>
<g clip-path="url(#clip0_24_4)">
<path d="M734.903 574.044L736.046 548.325C747.971 541.951 761.271 538.584 774.791 538.517C756.183 553.731 758.508 583.058 745.892 603.517C741.908 609.868 736.547 615.24 730.204 619.237C723.862 623.234 716.701 625.753 709.253 626.606L693.681 636.14C691.544 624.228 692.015 611.994 695.061 600.282C698.108 588.569 703.657 577.657 711.328 568.295C715.683 563.086 720.676 558.446 726.191 554.485C729.92 564.319 734.903 574.044 734.903 574.044Z" fill="#F2F2F2"/>
<path d="M498.762 642.543C490.83 641.978 488.762 643.543 476.762 642.543H454.762L457.624 589.894L492.258 603.773L664.372 607.998L664.271 608.29C664.193 608.515 656.552 630.867 662.525 639.331L662.772 639.682L662.289 639.686L504.401 641.134C502.677 641.15 500.472 642.664 498.762 642.543Z" fill="#F2F2F2"/>
<path d="M507.689 643.231C492.367 642.141 476.502 648.097 463.261 641.373L452.676 642.014L452.646 641.925C452.564 641.681 447.564 602.339 457.672 587.085L458.117 586.414L458.465 590.027L455.132 639.035L462.518 636.57C480.455 645.013 501.788 639.437 522.318 639.359L662.032 638.843C664.959 638.833 667.397 640.833 667.475 643.302L667.482 643.543L516.128 643.531C513.305 643.531 510.492 643.431 507.689 643.231Z" fill="#CCCCCC"/>
<path d="M654.668 618.616L497.441 615.491L497.28 615.431L460.133 601.509L460.835 599.636L497.822 613.499L654.708 616.616L654.668 618.616Z" fill="#E6E6E6"/>
<path d="M653.828 627.035L496.601 623.91L496.441 623.85L459.293 609.928L459.995 608.055L496.983 621.918L653.868 625.035L653.828 627.035Z" fill="#E6E6E6"/>
<path d="M652.988 635.455L495.761 632.329L495.601 632.269L458.453 618.346L459.155 616.473L496.143 630.337L653.028 633.455L652.988 635.455Z" fill="#E6E6E6"/>
<path d="M508.774 608.542C494.196 607.557 479.983 603.546 467.04 596.766L456.143 590.986L456.427 588.128C456.507 587.709 456.738 587.334 457.078 587.075C457.417 586.816 457.84 586.692 458.266 586.727L459.228 586.738L605.856 588.896C615.453 589.015 624.962 590.741 633.989 594.002L665.937 605.601L665.92 605.77C665.651 608.462 662.937 610.542 659.74 610.505L515.306 608.812C513.121 608.787 510.944 608.696 508.774 608.542Z" fill="#E6E6E6"/>
<path d="M665.63 606.22L665.597 606.218L489.763 602.189L489.641 602.133L457.939 587.452L458.261 586.961L459.224 586.973L490.057 601.259L664.261 605.247L665.657 605.28L665.63 606.22Z" fill="#CCCCCC"/>
<path d="M528.935 588L526.703 587.969L476.312 587.223L473.924 587.19C485.437 599.448 510.896 602.515 548.212 597.766L528.935 588Z" fill="#CCCCCC"/>
<path d="M670.613 294.814L673.687 301.965L668.663 327.36L617.408 320.234L617.817 289.267L618.846 282.485L670.613 294.814Z" fill="#FFB6B6"/>
<path d="M697.094 623.943H685.786L680.404 580.327H697.094V623.943Z" fill="#FFB6B6"/>
<path d="M663.457 638.705C663.458 639.986 663.967 641.214 664.873 642.12C665.779 643.025 667.007 643.535 668.288 643.536H689.801L693.51 635.881L694.95 643.536H703.058L700.779 616.194L697.093 615.978L684.709 615.241L682.713 615.116V622.862L665.544 634.724C664.9 635.169 664.374 635.764 664.01 636.457C663.647 637.151 663.457 637.922 663.457 638.705Z" fill="#2F2E41"/>
<path d="M592.575 573.943H581.267L574.615 509.73L595.862 508.461L592.575 573.943Z" fill="#FFB6B6"/>
<path d="M558.939 588.705C558.941 589.986 559.45 591.214 560.356 592.12C561.261 593.025 562.49 593.535 563.771 593.536H585.284L588.992 585.881L590.432 593.536H598.541L596.261 566.194L592.973 566.001L580.373 565.241L578.196 565.116V572.862L561.026 584.724C560.382 585.169 559.856 585.764 559.492 586.457C559.129 587.151 558.939 587.922 558.939 588.705Z" fill="#2F2E41"/>
<path d="M701.894 586.331H701.85L699.675 515.412C701.082 512.697 701.797 509.677 701.754 506.619C701.712 503.562 700.914 500.562 699.432 497.888L699.12 497.324L699.928 493.582C700.965 488.774 700.489 483.763 698.566 479.236L696.537 413.083C703.785 366.108 669.242 335.474 669.242 335.474L672.417 310.853L616.547 312.123L617.497 335.474L606.388 373.642C600.542 430.602 561.194 466.404 567.175 520.873C567.187 521.03 567.164 521.187 567.106 521.333C566.499 523.178 566.286 525.13 566.479 527.063C566.673 528.996 567.269 530.867 568.229 532.555C568.478 532.986 568.65 533.457 568.735 533.947C569.967 543.496 570.128 531.417 571.761 540.882L571.443 541.042C570.299 541.437 569.808 543.022 570.347 544.582C570.885 546.142 572.249 547.087 573.393 546.692L603.26 547.011C604.404 546.617 604.895 545.032 604.356 543.472C603.818 541.911 602.454 540.967 601.31 541.362L599.452 542.302L602.561 532.131L603.65 531.113C604.172 530.626 604.577 530.027 604.835 529.361C605.093 528.695 605.197 527.979 605.139 527.267C605.081 526.555 604.863 525.866 604.501 525.25C604.139 524.634 603.642 524.108 603.048 523.712L606.145 507.184L605.705 494.684L606.611 480.504L645.8 423.718L661.655 502.156L677.85 587.12C677.472 587.461 677.189 587.893 677.026 588.375C676.863 588.857 676.827 589.373 676.921 589.873C677.07 590.571 677.458 591.196 678.017 591.641C678.576 592.085 679.273 592.32 679.987 592.307H701.973C702.434 592.307 702.888 592.2 703.301 591.995C703.714 591.79 704.074 591.493 704.353 591.126C704.632 590.759 704.823 590.333 704.91 589.88C704.997 589.427 704.979 588.961 704.857 588.516C704.671 587.877 704.28 587.317 703.745 586.922C703.21 586.527 702.559 586.319 701.894 586.331Z" fill="#2F2E41"/>
<path d="M682.343 174.14C682.344 178.668 681.235 183.127 679.111 187.126C676.987 191.125 673.914 194.541 670.161 197.075C666.409 199.609 662.092 201.183 657.589 201.659C653.086 202.135 648.535 201.498 644.336 199.805C640.137 198.111 636.417 195.413 633.504 191.946C630.591 188.48 628.574 184.352 627.629 179.923C626.684 175.495 626.84 170.903 628.084 166.549C629.329 162.196 631.623 158.214 634.765 154.954L634.898 154.821C635.119 154.589 635.34 154.357 635.572 154.135C635.574 154.135 635.575 154.135 635.577 154.134C635.578 154.134 635.579 154.133 635.58 154.132C635.581 154.131 635.582 154.13 635.583 154.128C635.583 154.127 635.584 154.126 635.584 154.124C635.901 153.893 636.194 153.629 636.458 153.339C640.192 148.121 644.426 143.745 654.681 146.479C669.446 150.414 682.343 158.86 682.343 174.14Z" fill="#2F2E41"/>
<path d="M530.392 162.299C530.329 163.779 530.592 165.254 531.161 166.622C531.73 167.989 532.593 169.215 533.687 170.214C534.781 171.212 536.081 171.958 537.495 172.4C538.909 172.841 540.403 172.967 541.871 172.769L613.208 231.315L624.105 212.163L550.556 160.636C550.06 158.192 548.684 156.015 546.69 154.518C544.695 153.02 542.221 152.306 539.736 152.511C537.25 152.716 534.926 153.826 533.204 155.63C531.482 157.434 530.481 159.806 530.392 162.299V162.299Z" fill="#FFB6B6"/>
<path d="M643.33 248.582C643.33 248.582 643.308 246.473 631.967 246.554C617.891 246.655 579.122 226.445 582.513 207.412C580.903 208.139 579.096 208.31 577.378 207.898C575.66 207.486 574.128 206.514 573.023 205.135L591.897 186.964C597.819 187.364 597.88 191.327 597.373 193.603L612.541 199.63L652.047 222.327L645.071 245.126L643.33 248.582Z" fill="#6C63FF"/>
<path d="M647.865 203.736C660.676 203.736 671.061 193.351 671.061 180.54C671.061 167.73 660.676 157.345 647.865 157.345C635.055 157.345 624.67 167.73 624.67 180.54C624.67 193.351 635.055 203.736 647.865 203.736Z" fill="#FFB7B7"/>
<path d="M615.987 295.912C614.706 297.622 614.051 299.72 614.134 301.856C614.217 303.991 615.031 306.032 616.44 307.638C616.452 308.319 616.554 308.976 617.518 311.415C617.644 311.651 617.792 311.875 617.96 312.084C617.991 312.135 618.025 312.184 618.062 312.231C619.077 313.544 620.489 314.495 622.088 314.942L664.547 326.793L670.161 328.358L671.148 328.63L671.692 320.963C672.954 319.917 673.8 318.453 674.077 316.837C674.354 315.221 674.043 313.559 673.2 312.152L672.418 310.859L676.977 298.6L677.419 297.386L689.043 266.098L689.054 264.011L689.077 261.856L689.19 246.819C689.196 242.079 688.103 237.403 685.998 233.157C683.892 228.911 680.832 225.21 677.056 222.345C673.617 219.718 669.652 217.861 665.432 216.902L665.341 216.891L660.748 210.71L642.116 212.57L640.573 215.734L638.702 219.544L625.195 227.585L620.58 238.313L617.461 245.571C612.63 249.041 609.749 253.498 608.922 258.806C607.152 270.078 615.046 281.362 615.987 282.655L616.225 295.595L615.987 295.912Z" fill="#6C63FF"/>
<path d="M672.142 186.621C671.931 186.588 671.721 186.544 671.511 186.51C667.893 185.869 664.275 185.238 660.668 184.585L660.336 176.409L655.965 183.733C645.996 187.041 636.668 185.172 627.894 181.045C625 179.671 622.192 178.122 619.485 176.409C618.594 162.58 624.185 153.727 634.588 154.655C634.968 154.689 635.241 154.301 635.573 154.135C635.575 154.135 635.576 154.135 635.577 154.134C635.579 154.134 635.58 154.133 635.581 154.132C635.582 154.131 635.583 154.13 635.583 154.128C635.584 154.127 635.584 154.126 635.584 154.124C636.148 153.859 636.724 153.604 637.299 153.372C641.804 151.612 646.715 151.166 651.463 152.086C656.211 153.007 660.6 155.256 664.12 158.572C671.201 165.333 674.388 176.497 672.142 186.621Z" fill="#2F2E41"/>
<path d="M671.511 186.511C671.511 186.511 664.639 160.863 635.185 154.943C635.152 154.932 635.041 154.888 634.898 154.822C634.809 154.766 634.699 154.711 634.588 154.656C634.92 154.467 635.241 154.302 635.573 154.135C635.574 154.135 635.576 154.135 635.577 154.135C635.578 154.134 635.579 154.133 635.581 154.132C635.582 154.131 635.582 154.13 635.583 154.129C635.583 154.127 635.584 154.126 635.584 154.124C635.871 153.859 636.159 153.593 636.458 153.339L637.299 153.372C637.299 153.372 666.852 148.692 671.511 186.511Z" fill="#FD6584"/>
<path d="M682.841 348.188C682.295 348.655 681.632 348.962 680.924 349.076C680.216 349.191 679.489 349.109 678.825 348.838C677.502 348.277 676.328 347.418 675.393 346.328C671.577 342.326 668.851 337.413 667.475 332.057L668.747 329.794C668.248 327.002 668.718 324.124 670.079 321.636C671.441 319.149 673.612 317.202 676.233 316.118C677.724 315.486 679.377 315.342 680.955 315.707C681.737 315.902 682.453 316.304 683.026 316.871C683.598 317.439 684.007 318.15 684.209 318.931C684.699 321.352 682.682 323.539 680.64 324.929C677.081 327.344 672.967 328.816 668.683 329.207C673.923 332.16 678.452 336.224 681.953 341.115C682.762 342.135 683.359 343.307 683.708 344.561C683.876 345.19 683.885 345.851 683.733 346.484C683.582 347.118 683.275 347.703 682.841 348.188Z" fill="#2F2E41"/>
<path d="M389.647 644.359H778.928C779.259 644.359 779.576 644.228 779.81 643.994C780.044 643.76 780.175 643.443 780.175 643.112C780.175 642.781 780.044 642.464 779.81 642.23C779.576 641.996 779.259 641.865 778.928 641.865H389.647C389.317 641.865 388.999 641.996 388.766 642.23C388.532 642.464 388.4 642.781 388.4 643.112C388.4 643.443 388.532 643.76 388.766 643.994C388.999 644.228 389.317 644.359 389.647 644.359Z" fill="#CCCCCC"/>
<path d="M493.033 323.769V324.421C491.63 322.778 490.2 321.149 488.783 319.52C488.189 318.84 487.594 318.16 486.999 317.481C484.477 314.619 481.942 311.768 479.393 308.925C476.829 306.093 474.265 303.26 471.673 300.441C471.05 299.761 470.427 299.081 469.789 298.402C469.279 297.83 468.725 297.3 468.132 296.815C467.534 296.317 466.846 295.938 466.107 295.696C465.255 295.46 464.357 295.45 463.501 295.668C462.523 295.895 461.588 296.249 460.639 296.546C459.662 296.872 458.699 297.183 457.722 297.495C455.767 298.132 453.826 298.77 451.872 299.407C451.848 299.417 451.823 299.422 451.797 299.421C451.772 299.421 451.747 299.416 451.723 299.406C451.7 299.396 451.679 299.382 451.661 299.364C451.643 299.346 451.629 299.324 451.619 299.301L451.617 299.294C451.606 299.267 451.6 299.238 451.602 299.209C451.603 299.18 451.611 299.152 451.624 299.126C451.638 299.1 451.657 299.078 451.68 299.06C451.703 299.043 451.73 299.031 451.758 299.025C452.24 298.869 452.736 298.713 453.232 298.557C455.2 297.906 457.155 297.268 459.124 296.631C460.101 296.305 461.078 295.994 462.056 295.682C462.962 295.338 463.92 295.146 464.889 295.115C466.471 295.229 467.954 295.926 469.053 297.07C469.662 297.637 470.214 298.232 470.767 298.841C471.418 299.549 472.07 300.257 472.721 300.965C475.342 303.826 477.943 306.697 480.526 309.577C483.118 312.467 485.686 315.361 488.231 318.26C488.415 318.472 488.599 318.685 488.783 318.897C490.214 320.512 491.616 322.141 493.033 323.769Z" fill="white"/>
<path d="M467.911 299.425C467.376 298.735 466.663 298.205 465.848 297.892L465.043 297.92C471.365 307.757 479.647 316.185 489.372 322.678C482.218 314.927 475.065 307.176 467.911 299.425Z" fill="white"/>
<path d="M599.841 401.655L567.754 229.845C567.205 227.013 565.71 224.451 563.514 222.58C561.318 220.709 558.551 219.64 555.668 219.547C555.409 219.541 555.149 219.541 554.89 219.547L533.031 220.331L530.678 220.418L519.769 220.81L517.416 220.89L510.399 221.144L368.901 226.224C368.688 226.236 368.469 226.236 368.256 226.23L336.548 225.567L324.814 225.325L324.44 225.319L315.779 225.134L240.314 223.566L220.306 223.145L210.44 222.943L208.076 222.891L196.827 222.661L194.468 222.609L182.959 222.372L180.601 222.32L167.956 222.055L165.973 222.015L154.694 221.778L152.913 221.744H152.653C149.659 221.756 146.766 222.826 144.484 224.766C142.203 226.705 140.681 229.389 140.187 232.342L111.167 410.627C110.872 412.433 110.973 414.281 111.464 416.044C111.955 417.807 112.823 419.442 114.008 420.836C115.193 422.231 116.667 423.35 118.328 424.118C119.989 424.886 121.797 425.284 123.627 425.284H290.288C292.741 425.291 295.128 426.078 297.103 427.533L300.263 429.873C302.441 431.476 305.072 432.345 307.776 432.353C339.964 423.857 373.806 423.857 405.994 432.353C407.654 432.357 409.298 432.032 410.831 431.397C412.364 430.761 413.756 429.828 414.926 428.651C416.926 426.651 419.596 425.462 422.421 425.313L588.09 416.583C589.887 416.489 591.642 416.012 593.24 415.185C594.837 414.357 596.239 413.198 597.352 411.784C598.464 410.371 599.262 408.736 599.692 406.989C600.121 405.242 600.172 403.423 599.841 401.655V401.655Z" fill="#867FFF"/>
<path d="M554.44 374.863C554.227 380.685 551.712 386.184 547.445 390.152C543.179 394.12 537.512 396.232 531.69 396.023C522.07 395.683 510.59 395.513 498.13 395.773C457.44 396.643 406.32 402.243 375.57 422.383C371.705 424.92 367.138 426.172 362.52 425.963C362.18 425.943 361.85 425.923 361.51 425.893C356.722 425.455 352.21 423.456 348.67 420.203C331.73 404.703 292.88 385.933 203.95 384.613C203.58 384.613 203.22 384.593 202.86 384.573C199.98 384.392 197.163 383.644 194.572 382.374C191.98 381.104 189.665 379.335 187.757 377.17C185.85 375.004 184.388 372.483 183.455 369.752C182.522 367.021 182.136 364.133 182.32 361.253L191.06 222.543L192.37 201.753L194.67 165.383C194.902 161.72 196.52 158.283 199.194 155.77C201.869 153.257 205.4 151.856 209.07 151.853H209.16L262.14 152.163C284.46 153.173 302.947 156.016 317.6 160.693C322.605 162.245 327.475 164.205 332.16 166.553C338.559 169.655 344.308 173.948 349.1 179.203C352.085 182.559 356.156 184.758 360.6 185.413C361.289 185.516 361.984 185.579 362.68 185.603C366.778 185.772 370.822 184.615 374.21 182.303C408.82 159.113 479.35 157.353 518.3 158.353C523.747 158.48 528.952 160.63 532.901 164.385C536.849 168.139 539.259 173.229 539.66 178.663L541.24 199.353L542.81 219.983L551.87 339.213L554.39 372.383C554.452 373.208 554.468 374.036 554.44 374.863Z" fill="#F2F2F2"/>
<path d="M217.132 200.663C249.059 190.476 284.678 193.173 314.925 207.523C323.555 211.597 331.705 216.617 339.226 222.491C341.354 224.161 344.381 221.174 342.231 219.486C314.45 197.939 279.544 187.703 244.526 190.835C234.838 191.702 225.273 193.623 216.002 196.565C213.407 197.393 214.516 201.497 217.132 200.663H217.132Z" fill="#3F3D56"/>
<path d="M392.815 224.14C422.499 208.537 458.045 205.135 490.319 213.992C499.52 216.51 508.412 220.046 516.831 224.533C519.243 225.82 521.392 222.153 518.976 220.864C488.216 204.45 451.292 200.672 417.702 209.821C408.331 212.378 399.267 215.949 390.671 220.47C388.249 221.743 390.394 225.412 392.815 224.14Z" fill="#3F3D56"/>
<path d="M392.815 252.468C422.499 236.866 458.045 233.463 490.319 242.32C499.52 244.839 508.412 248.374 516.831 252.861C519.243 254.148 521.392 250.481 518.976 249.192C488.216 232.779 451.292 229 417.702 238.15C408.331 240.707 399.267 244.277 390.671 248.799C388.249 250.071 390.394 253.74 392.815 252.468L392.815 252.468Z" fill="#3F3D56"/>
<path d="M520.016 279.276C520.038 278.912 519.951 278.549 519.764 278.234C519.577 277.92 519.3 277.67 518.969 277.515C494.327 264.612 466.388 259.379 438.747 262.489C438.574 262.502 438.414 262.53 438.227 262.544H438.22C438.05 262.559 437.881 262.585 437.714 262.62C421.273 264.512 405.325 269.428 390.672 277.12C390.353 277.31 390.088 277.58 389.904 277.904C389.721 278.227 389.625 278.592 389.625 278.964V331.81C389.63 332.135 389.709 332.455 389.857 332.745C390.004 333.035 390.215 333.288 390.474 333.484C390.733 333.681 391.034 333.816 391.353 333.879C391.672 333.942 392.001 333.932 392.315 333.849C392.967 333.662 393.619 333.481 394.285 333.308C409.098 329.298 424.305 326.919 439.635 326.214C439.961 326.2 440.286 326.186 440.626 326.173C453.112 325.636 465.621 326.086 478.036 327.518C478.296 327.532 478.556 327.56 478.813 327.601C479.451 327.67 480.103 327.746 480.741 327.83C480.997 327.857 481.24 327.885 481.476 327.927C483.958 328.239 486.42 328.592 488.888 328.974C492.452 329.542 496.017 330.176 499.581 330.874C499.803 330.915 500.032 330.971 500.26 331.013C505.981 332.15 511.674 333.467 517.339 334.923C517.655 335.005 517.985 335.014 518.304 334.949C518.623 334.884 518.924 334.748 519.183 334.55C519.442 334.353 519.653 334.099 519.8 333.808C519.946 333.517 520.025 333.197 520.03 332.871V279.359C520.032 279.331 520.027 279.302 520.016 279.276Z" fill="#3F3D56"/>
<path d="M442.078 265.37C440.522 264.608 438.737 264.451 437.072 264.93C436.336 265.206 435.662 265.626 435.09 266.164C434.517 266.702 434.057 267.349 433.737 268.067C433.159 269.442 432.79 270.896 432.639 272.381C432.551 272.965 432.546 273.701 433.132 273.974C433.345 274.051 433.576 274.069 433.798 274.025C434.02 273.981 434.226 273.877 434.394 273.724C434.697 273.425 434.947 273.077 435.132 272.694C436.151 271.108 437.554 269.805 439.209 268.905C440.865 268.005 442.721 267.536 444.606 267.543L446.175 268.168C444.94 267.057 443.563 266.116 442.078 265.37Z" fill="#FF6582"/>
<path d="M459.056 277.55C457.838 275.758 456.396 273.845 454.137 273.259C451.52 272.582 448.833 273.928 446.553 275.256C439.774 279.204 433.209 283.51 426.887 288.154L426.894 288.224L441.569 287.323C445.103 287.106 448.759 286.859 451.882 285.371C453.004 284.668 454.258 284.201 455.566 283.999C456.378 284.043 457.173 284.248 457.905 284.6C458.637 284.953 459.293 285.448 459.833 286.055C466.596 292.466 468.553 302.269 476.141 307.901C471.313 297.32 465.597 287.167 459.056 277.55Z" fill="white"/>
<path d="M440.628 326.172C440.288 326.186 439.962 326.2 439.636 326.214C437.271 325.364 434.849 324.614 432.399 323.962C430.812 323.537 429.197 323.155 427.583 322.829C425.755 322.432 423.914 322.121 422.073 321.851C418.567 321.342 415.034 321.044 411.492 320.959C411.465 320.962 411.438 320.959 411.413 320.951C411.387 320.943 411.363 320.929 411.343 320.911C411.323 320.893 411.307 320.871 411.296 320.846C411.285 320.822 411.279 320.795 411.279 320.768C411.279 320.741 411.285 320.714 411.296 320.69C411.307 320.665 411.323 320.643 411.343 320.625C411.363 320.607 411.387 320.593 411.413 320.585C411.438 320.577 411.465 320.574 411.492 320.577C411.945 320.577 412.399 320.591 412.838 320.619C416.387 320.75 419.925 321.096 423.433 321.653C425.26 321.951 427.087 322.305 428.9 322.701C430.543 323.07 432.186 323.481 433.801 323.934C436.109 324.585 438.385 325.331 440.628 326.172Z" fill="white"/>
<path d="M481.477 327.928C481.236 327.885 480.995 327.857 480.74 327.829C479.763 327.022 478.772 326.257 477.738 325.506C476.449 324.571 475.117 323.693 473.758 322.871C470.746 321.043 467.602 319.443 464.352 318.084C459.214 315.944 453.896 314.266 448.46 313.07C442.26 311.711 435.983 310.728 429.665 310.124C423.347 309.472 417.002 309.076 410.656 308.679C410.387 308.665 410.373 308.268 410.656 308.282C411.45 308.339 412.243 308.381 413.05 308.438C419.466 308.835 425.883 309.288 432.257 310.01C438.577 310.688 444.846 311.776 451.024 313.268C456.299 314.568 461.446 316.336 466.406 318.551C469.259 319.833 472.022 321.305 474.678 322.956C476.363 324.019 477.993 325.152 479.55 326.356C480.202 326.866 480.854 327.376 481.477 327.928Z" fill="white"/>
<path d="M478.815 327.602C478.557 327.56 478.297 327.532 478.036 327.517C477.739 327.276 477.427 327.05 477.116 326.823C474.935 325.262 472.66 323.838 470.303 322.56C468.162 321.396 465.964 320.342 463.716 319.401C458.58 317.255 453.262 315.577 447.824 314.387C441.624 313.029 435.347 312.045 429.028 311.441C422.711 310.789 416.366 310.393 410.02 309.996C409.751 309.968 409.751 309.585 410.02 309.6C410.828 309.656 411.621 309.699 412.414 309.755C418.83 310.152 425.247 310.605 431.62 311.328C437.94 312.005 444.209 313.093 450.388 314.585C455.663 315.883 460.811 317.651 465.77 319.868C467.64 320.718 469.467 321.639 471.252 322.645C473.898 324.098 476.427 325.755 478.815 327.602Z" fill="white"/>
<path d="M500.258 331.016C500.032 330.973 499.805 330.917 499.578 330.874C499.323 330.605 499.082 330.322 498.842 330.038C497.624 328.636 496.42 327.22 495.23 325.789C490.542 320.208 486.094 314.458 481.901 308.594C478.304 303.58 474.89 298.467 471.661 293.254C470.117 290.79 468.629 288.297 467.171 285.775C466.038 283.821 464.933 281.862 463.856 279.897C463.545 279.331 463.247 278.764 462.95 278.198C462.256 276.866 461.561 275.521 460.825 274.203C460.025 272.59 458.849 271.191 457.397 270.124C456.672 269.638 455.832 269.35 454.961 269.289C453.733 269.293 452.525 269.605 451.448 270.195C443.524 273.885 436.049 278.471 429.168 283.863C422.448 289.09 416.372 295.095 411.067 301.753C410.897 301.951 410.528 301.767 410.684 301.554C411.321 300.761 411.973 299.968 412.624 299.189C417.724 293.157 423.466 287.7 429.749 282.914C429.763 282.9 429.791 282.886 429.806 282.872C430.358 282.433 430.91 282.008 431.477 281.597C434.985 279.014 438.636 276.631 442.412 274.458C444.338 273.339 446.307 272.277 448.318 271.271C448.814 271.017 449.324 270.762 449.834 270.521C450.344 270.266 450.854 270.025 451.363 269.784C452.373 269.269 453.476 268.966 454.607 268.892C458.545 268.835 460.57 272.801 461.972 275.478C462.411 276.314 462.865 277.15 463.304 277.985C465.004 281.144 466.774 284.288 468.615 287.39C469.734 289.317 470.896 291.229 472.071 293.127C473.757 295.832 475.485 298.509 477.284 301.172C477.284 301.174 477.284 301.176 477.285 301.177C477.285 301.179 477.286 301.181 477.288 301.182C477.289 301.183 477.29 301.184 477.292 301.185C477.294 301.186 477.296 301.186 477.297 301.186H477.298C479.38 304.331 481.547 307.418 483.785 310.492C487.624 315.747 491.646 320.884 495.853 325.903C497.298 327.63 498.766 329.335 500.258 331.016Z" fill="white"/>
<path d="M449.725 268.46L449.333 268.631C448.436 267.116 447.178 265.846 445.671 264.933C444.164 264.021 442.456 263.496 440.697 263.403C434.898 262.991 429.804 266.855 429.341 272.017C429.153 274.142 429.768 276.261 431.065 277.955L430.702 278.17C429.351 276.406 428.71 274.199 428.906 271.986C429.388 266.611 434.693 262.587 440.732 263.015C442.563 263.112 444.342 263.66 445.911 264.609C447.48 265.559 448.79 266.882 449.725 268.46Z" fill="#FF6582"/>
<path d="M421.072 278.903C419.55 278.241 417.892 277.951 416.236 278.056C414.58 278.162 412.973 278.66 411.547 279.509C416.752 280.308 421.911 281.38 427.003 282.72C424.895 281.62 423.245 279.897 421.072 278.903Z" fill="white"/>
<path d="M411.516 279.504L410.943 279.919C411.137 279.774 411.339 279.638 411.546 279.509L411.516 279.504Z" fill="white"/>
<path d="M428.777 281.909C428.549 281.683 428.322 281.456 428.092 281.229C426.329 279.311 424.206 277.757 421.843 276.657C420.641 276.15 419.35 275.884 418.045 275.873C416.697 275.905 415.364 276.164 414.102 276.639C413.508 276.85 412.928 277.09 412.356 277.345C411.702 277.638 411.06 277.95 410.422 278.264C409.223 278.855 408.039 279.472 406.871 280.114C404.547 281.393 402.296 282.769 400.117 284.242C398.988 285.006 397.882 285.796 396.8 286.61C395.793 287.366 394.806 288.143 393.84 288.94C393.633 289.11 393.325 288.835 393.531 288.666C393.786 288.454 394.043 288.245 394.301 288.037C395.029 287.452 395.768 286.878 396.519 286.315C397.888 285.286 399.293 284.297 400.733 283.348C402.972 281.872 405.289 280.495 407.683 279.219C408.879 278.582 410.092 277.971 411.321 277.388C411.692 277.211 412.068 277.039 412.447 276.876C413.315 276.487 414.21 276.163 415.125 275.906C416.438 275.53 417.811 275.409 419.169 275.552C420.469 275.718 421.731 276.107 422.9 276.701C425.216 277.999 427.305 279.665 429.086 281.633C429.272 281.82 428.965 282.096 428.777 281.909Z" fill="white"/>
<path d="M217.132 228.991C249.059 218.804 284.678 221.501 314.925 235.852C323.555 239.925 331.705 244.945 339.226 250.819C341.354 252.489 344.381 249.502 342.231 247.815C314.45 226.267 279.544 216.031 244.526 219.163C234.838 220.03 225.273 221.951 216.002 224.893C213.407 225.721 214.516 229.825 217.132 228.991L217.132 228.991Z" fill="#3F3D56"/>
<path d="M217.132 257.319C249.059 247.133 284.678 249.83 314.925 264.18C323.555 268.253 331.705 273.273 339.226 279.148C341.354 280.817 344.381 277.831 342.231 276.143C314.45 254.595 279.544 244.359 244.526 247.491C234.838 248.358 225.273 250.28 216.002 253.222C213.407 254.05 214.516 258.154 217.132 257.319L217.132 257.319Z" fill="#3F3D56"/>
<path d="M217.132 285.647C249.059 275.461 284.678 278.158 314.925 292.508C323.555 296.581 331.705 301.601 339.226 307.476C341.354 309.146 344.381 306.159 342.231 304.471C314.45 282.923 279.544 272.687 244.526 275.819C234.838 276.686 225.273 278.608 216.002 281.55C213.407 282.378 214.516 286.482 217.132 285.647L217.132 285.647Z" fill="#3F3D56"/>
<path d="M217.132 313.976C249.059 303.789 284.678 306.486 314.925 320.836C323.555 324.91 331.705 329.93 339.226 335.804C341.354 337.474 344.381 334.487 342.231 332.799C314.45 311.252 279.544 301.016 244.526 304.148C234.838 305.015 225.273 306.936 216.002 309.878C213.407 310.706 214.516 314.81 217.132 313.976L217.132 313.976Z" fill="#3F3D56"/>
<path d="M217.132 342.304C249.059 332.117 284.678 334.814 314.925 349.165C323.555 353.238 331.705 358.258 339.226 364.132C341.354 365.802 344.381 362.815 342.231 361.128C314.45 339.58 279.544 329.344 244.526 332.476C234.838 333.343 225.273 335.264 216.002 338.206C213.407 339.034 214.516 343.138 217.132 342.304H217.132Z" fill="#3F3D56"/>
<path d="M332.162 166.553V234.483C332.162 235.833 329.802 236.963 326.622 237.273C326.594 237.271 326.567 237.275 326.542 237.283C326.012 237.323 325.452 237.353 324.882 237.353C323.128 237.385 321.384 237.1 319.732 236.513C319.582 236.453 319.432 236.383 319.282 236.323C319.142 236.243 318.992 236.173 318.852 236.093C318.062 235.623 317.602 235.073 317.602 234.483V160.693C322.607 162.245 327.477 164.205 332.162 166.553Z" fill="#6C63FF"/>
<path d="M362.68 182.308H360.6V424.543H362.68V182.308Z" fill="#E6E6E6"/>
<path d="M588.901 348.135C590.377 348 591.804 347.543 593.084 346.797C594.363 346.05 595.464 345.033 596.307 343.815C597.151 342.597 597.717 341.21 597.967 339.749C598.216 338.289 598.142 336.792 597.75 335.364L640.928 315.208L666.922 273.159L646.49 264.91L628.954 298.794L584.569 328.371C582.213 329.189 580.238 330.842 579.02 333.018C577.801 335.194 577.423 337.741 577.957 340.177C578.491 342.613 579.9 344.769 581.917 346.236C583.934 347.702 586.419 348.378 588.901 348.135V348.135Z" fill="#FFB6B6"/>
<path d="M682.957 232.877C682.957 232.877 688.045 234.538 682.46 244.409C677.989 252.31 656.208 297.826 647.318 306.763C648.253 308.262 648.664 310.029 648.484 311.787C648.304 313.545 647.545 315.193 646.325 316.471L625.803 300.185C625.411 294.262 629.33 293.674 631.653 293.874L636.375 277.141L652.842 235.862L679.3 231.611L682.957 232.877Z" fill="#6C63FF"/>
<path d="M683.4 155.508C684.37 151.585 691.409 148.688 679.351 143.211C676.424 141.882 676.546 137.304 674.07 135.254C671.595 133.204 667.97 132.253 665.092 133.686C662.523 134.966 661.075 137.862 660.767 140.715C660.619 143.587 660.95 146.464 661.748 149.227L661.514 149.569C666.291 153.224 671.067 156.879 675.844 160.534C677.599 161.877 679.894 163.283 681.861 162.276C684.088 161.135 682.799 157.937 683.4 155.508Z" fill="#2F2E41"/>
</g>
<defs>
<clipPath id="clip0_24_4">
<rect width="669.175" height="511.628" fill="white" transform="translate(111 133)"/>
</clipPath>
</defs>
</svg>
