<svg width="892" height="897" viewBox="0 0 892 897" fill="none" xmlns="http://www.w3.org/2000/svg">
<path fill-rule="evenodd" clip-rule="evenodd" d="M331 6.2333C430.5 -27.2667 577.5 80.7333 697.527 175.699C799.864 256.669 826.556 363.819 819 502.233C812.227 626.309 973.094 825.958 835.5 895.734C818.531 904.339 421.42 863.485 279.5 872C104.5 882.5 185.403 846.237 89.7658 762.126C-12.1448 672.497 -194.642 626.474 -195.992 495.358C-197.343 364.224 -22.6089 307.836 84.2168 223.378C176.051 150.774 208.364 47.5229 331 6.2333Z" fill="#E5E3FF"/>
<g clip-path="url(#clip0_19_3)">
<path d="M251.492 626.368C248.862 626.369 246.217 625.269 244.206 623.26C241.586 620.642 240.514 616.942 241.408 613.608L365.827 149.529C366.287 147.812 367.196 146.237 368.46 144.975C369.723 143.713 371.299 142.803 373.017 142.343C376.516 141.409 380.282 142.416 382.841 144.975L722.758 484.702C725.32 487.263 726.33 491.026 725.391 494.521C724.928 496.243 724.019 497.818 722.758 499.077C721.5 500.335 719.924 501.245 718.203 501.707L253.864 626.059C253.087 626.267 252.29 626.368 251.492 626.368ZM375.639 144.433C374.974 144.433 374.304 144.519 373.648 144.694C372.34 145.044 371.143 145.737 370.182 146.696C369.221 147.656 368.53 148.853 368.18 150.158L265.682 594.762C265.013 597.26 265.844 600.057 267.851 602.063C269.858 604.07 272.656 604.901 275.156 604.232L717.571 499.356C718.879 499.005 720.078 498.313 721.036 497.356C721.994 496.398 722.687 495.2 723.039 493.891C723.752 491.232 722.984 488.371 721.036 486.423L381.119 146.696C379.653 145.23 377.666 144.433 375.639 144.433Z" fill="#6C63FF" fill-opacity="0.63"/>
<path d="M598.509 753.614C616.67 753.614 631.392 738.9 631.392 720.749C631.392 702.598 616.67 687.884 598.509 687.884C580.347 687.884 565.625 702.598 565.625 720.749C565.625 738.9 580.347 753.614 598.509 753.614Z" fill="#6C63FF"/>
<path d="M318.389 795C336.55 795 351.273 780.286 351.273 762.135C351.273 743.984 336.55 729.27 318.389 729.27C300.228 729.27 285.506 743.984 285.506 762.135C285.506 780.286 300.228 795 318.389 795Z" fill="#6C63FF"/>
<path d="M156 793.433C156 794.237 156.646 794.882 157.449 794.882H793.551C794.354 794.882 795 794.237 795 793.433C795 792.63 794.354 791.985 793.551 791.985H157.449C156.646 791.985 156 792.63 156 793.433Z" fill="#3F3D56"/>
<path d="M419.222 753.795L407.661 765.35L391.695 773.603L393.347 787.909L423.626 784.608L427.48 776.905L426.379 770.302L428.581 759.848L419.222 753.795Z" fill="#FFB6B6"/>
<path d="M395.549 782.407L394.603 770.268L361.967 785.708C361.967 785.708 359.439 792.861 367.309 793.962C375.179 795.062 427.48 795.062 427.48 792.311C427.48 789.56 428.91 775.475 428.91 775.475L397.2 784.608L395.549 782.407V782.407Z" fill="#2F2E41"/>
<path d="M493.807 728.814L491.35 744.969L483.387 761.075L493.202 771.617L515.629 751.02L514.164 742.533L509.361 737.868L504.934 728.144L493.807 728.814Z" fill="#FFB6B6"/>
<path d="M491.711 765.881L483.75 756.665L466.623 788.436C466.623 788.436 468.83 795.694 475.821 791.918C482.812 788.141 524.933 757.156 523.301 754.941C521.669 752.725 514.468 740.534 514.468 740.534L494.346 766.676L491.711 765.881H491.711Z" fill="#2F2E41"/>
<path d="M490.266 385.51H438.058V355.378C438.058 333.728 455.645 316.151 477.307 316.151H490.266V385.51H490.266Z" fill="#2F2E41"/>
<path d="M458.586 385.093L463.202 366.639L492.217 363.344C492.217 363.344 491.558 383.116 493.536 386.412L458.586 385.093V385.093Z" fill="#FFB6B6"/>
<path d="M471.773 372.571C486.705 372.571 498.81 360.473 498.81 345.549C498.81 330.625 486.705 318.527 471.773 318.527C456.841 318.527 444.736 330.625 444.736 345.549C444.736 360.473 456.841 372.571 471.773 372.571Z" fill="#FFB6B6"/>
<path d="M432.866 496.476L413.083 529.43L412.094 762.411H429.486L462.211 571.94L453.638 682.005L489.054 744.989L512.793 737.08L493.534 677.062L520.901 540.964L510.02 498.454L432.866 496.476Z" fill="#2F2E41"/>
<path d="M493.536 383.116H458.586L438.803 392.343L432.208 429.91C432.208 429.91 424.295 447.892 432.208 458.344C432.208 458.344 434.187 462.864 432.208 464.841C430.23 466.818 430.23 470.773 431.549 472.091C432.868 473.409 432.868 483.253 432.868 483.253V497.452L510.022 498.454L507.384 485.931C507.384 485.931 511.341 484.468 510.022 479.268C508.703 474.068 511.879 473.622 510.291 470.549C508.703 467.477 508.703 466.818 508.703 466.818L513.979 461.546C513.979 461.546 517.935 443.751 511.341 433.206C504.746 422.66 513.979 398.275 513.979 398.275L493.536 383.116L493.536 383.116Z" fill="#E6E6E6"/>
<path d="M517.219 559.612L512.76 553.894C532.272 535.976 554.263 512.895 565.034 513.179C566.614 511.948 568.893 512.231 570.124 513.81C571.356 515.389 571.073 517.667 569.493 518.897C570.087 535.71 540.773 547.143 517.219 559.612V559.612Z" fill="#3F3D56"/>
<path d="M507.391 575.612C514.31 575.612 519.92 570.006 519.92 563.09C519.92 556.174 514.31 550.568 507.391 550.568C500.471 550.568 494.861 556.174 494.861 563.09C494.861 570.006 500.471 575.612 507.391 575.612Z" fill="#6C63FF"/>
<path d="M419.918 359.529C421.246 355.494 423.867 351.961 425.04 347.878C426.597 342.457 429.912 354.483 430.235 348.853C430.85 338.151 447.193 310.622 456.523 305.334C465.853 300.046 471.211 301.64 480.717 306.606C480.717 306.606 485.33 306.899 491.075 309.734C496.819 312.568 501.989 317.108 504.224 323.108C505.995 327.864 505.799 333.088 506.39 338.128C508.039 352.17 515.914 365.524 514.224 379.561C513.697 383.941 512.031 388.47 508.448 391.045C504.866 393.621 499.077 393.341 496.719 389.613C495.914 388.34 495.574 386.831 494.884 385.493C494.195 384.154 492.948 382.907 491.443 382.949C489.18 383.011 488.028 386.046 488.92 388.125C489.813 390.205 491.91 391.46 493.879 392.577C489.19 394.685 483.373 394.029 479.272 390.928C475.172 387.828 472.957 382.412 473.712 377.329C474.775 370.165 485.217 371.648 486.447 364.511C487.342 359.316 490.486 350.624 489.63 345.422C488.773 340.22 484.66 346.518 488.993 343.513C484.226 345.81 474.028 330.096 469.037 328.336C464.046 326.576 459.815 322.765 457.545 317.986C452.252 325.656 447.595 323.573 445.699 332.695C443.804 341.818 445.556 362.543 453.363 367.636C450.239 369.767 447.748 372.813 446.282 376.298C445.452 378.272 444.914 380.432 443.535 382.071C440.903 385.202 436.042 385.393 432.168 384.076C427.364 382.444 423.257 378.858 420.992 374.32C418.728 369.782 418.333 364.346 419.918 359.529H419.918Z" fill="#2F2E41"/>
<path d="M443.48 326.988C443.48 326.988 431.489 349.429 440.12 358.139C440.12 358.139 479.089 355.672 492.744 362.302C492.744 362.302 501.945 356.935 498.115 340.18C494.286 323.425 466.114 322.287 443.48 326.988V326.988Z" fill="#E6E6E6"/>
<path d="M445.076 328.75L439.053 350.969C439.053 350.969 459.827 347.211 490.566 356.629C490.566 356.629 499.093 348.262 494.455 336.509C489.818 324.757 445.076 328.75 445.076 328.75Z" fill="#6C63FF"/>
<path d="M492.744 362.302C492.744 362.302 502.264 363.551 502.889 358.794C503.513 354.036 499.614 341.29 498.116 340.18C496.617 339.071 498.948 354.716 492.744 362.302Z" fill="#3F3D56"/>
<path d="M367.876 531.377C371.824 533.55 377.792 530.286 381.209 524.085C382.608 521.626 383.397 518.869 383.511 516.043L387.295 508.968L387.427 509.009L410.549 478.997C415.925 472.018 417.921 462.92 415.599 454.424C414.218 449.369 411.67 445.55 406.988 447.553C399.22 450.875 387.526 478.437 381.306 494.4L372.486 509.975C370.157 511.582 368.246 513.724 366.915 516.22C363.498 522.419 363.929 529.205 367.876 531.377V531.377Z" fill="#FFB6B6"/>
<path d="M448.152 391.475C448.152 391.475 426.667 382.818 418.586 402.4C410.504 421.982 402.078 449.425 402.078 449.425L414.384 469.362L435.291 437.857L448.152 391.475V391.475Z" fill="#E6E6E6"/>
<path d="M347.955 518.702V511.452C374.365 509.307 405.907 504.612 414.229 511.452C416.232 511.452 417.855 513.075 417.855 515.077C417.855 517.079 416.232 518.702 414.229 518.702C404.357 532.328 374.203 523.337 347.955 518.702V518.702Z" fill="#3F3D56"/>
<path d="M338.064 527.929C344.984 527.929 350.594 522.323 350.594 515.407C350.594 508.491 344.984 502.885 338.064 502.885C331.145 502.885 325.535 508.491 325.535 515.407C325.535 522.323 331.145 527.929 338.064 527.929Z" fill="#6C63FF"/>
<path d="M541.415 555.229C537.003 556.148 532.256 551.278 530.809 544.348C530.194 541.588 530.248 538.72 530.969 535.985L529.428 528.112L529.29 528.113L515.994 492.641C512.903 484.394 513.665 475.11 518.379 467.669C521.183 463.242 524.739 460.338 528.628 463.625C535.079 469.079 538.169 498.857 539.429 515.941L543.29 533.416C545.045 535.636 546.243 538.243 546.783 541.02C548.23 547.948 545.826 554.309 541.415 555.229H541.415Z" fill="#FFB6B6"/>
<path d="M505.735 397.945C505.735 397.945 528.815 395.968 530.793 417.058C532.772 438.149 532.772 466.854 532.772 466.854L515.155 482.306L504.416 446.057L505.735 397.945V397.945Z" fill="#E6E6E6"/>
<path d="M598.56 794.346C579.757 794.346 564.459 779.057 564.459 760.264C564.459 741.47 579.757 726.181 598.56 726.181C617.364 726.181 632.662 741.47 632.662 760.264C632.662 779.057 617.364 794.346 598.56 794.346ZM598.56 728.616C581.099 728.616 566.895 742.812 566.895 760.264C566.895 777.715 581.099 791.912 598.56 791.912C616.021 791.912 630.226 777.715 630.226 760.264C630.226 742.812 616.021 728.616 598.56 728.616Z" fill="#3F3D56"/>
<path d="M302.038 795H254.358C249.371 795 245.314 790.945 245.314 785.962V738.307C245.314 733.324 249.371 729.27 254.358 729.27H302.038C307.025 729.27 311.081 733.324 311.081 738.307V785.962C311.081 790.945 307.025 795 302.038 795ZM254.358 731.704C250.714 731.704 247.75 734.666 247.75 738.307V785.962C247.75 789.603 250.714 792.566 254.358 792.566H302.038C305.682 792.566 308.646 789.603 308.646 785.962V738.307C308.646 734.666 305.682 731.704 302.038 731.704H254.358Z" fill="#3F3D56"/>
</g>
<defs>
<clipPath id="clip0_19_3">
<rect width="639" height="653" fill="white" transform="translate(156 142)"/>
</clipPath>
</defs>
</svg>
