<svg width="1018" height="923" viewBox="0 0 1018 923" fill="none" xmlns="http://www.w3.org/2000/svg">
<path d="M703.156 920.179H414.435C371.13 920.179 335.899 884.953 335.899 841.654V78.5239C335.899 35.2259 371.13 0 414.435 0H703.156C746.459 0 781.691 35.2259 781.691 78.5239C787.065 384.974 796.23 728.149 781.691 841.654C781.691 884.953 746.459 920.179 703.156 920.179H703.156Z" fill="#3F3D56"/>
<path d="M785.716 280.704C783.884 280.704 782.394 282.194 782.394 284.026V390.329C782.394 392.161 783.884 393.651 785.716 393.651C787.549 393.651 789.039 392.161 789.039 390.329V284.026C789.039 282.194 787.549 280.704 785.716 280.704Z" fill="#3F3D56"/>
<path d="M774.214 78.5245V841.641C774.214 879.329 744.877 910.156 707.782 912.548H707.766C707.217 912.581 706.669 912.615 706.104 912.631C705.124 912.681 704.144 912.698 703.147 912.698C703.147 912.698 699.493 912.432 692.815 911.934C686.07 911.435 676.252 910.688 664.009 909.708C660.338 909.425 656.467 909.11 652.38 908.778C644.24 908.113 635.303 907.383 625.718 906.552C621.897 906.237 617.943 905.888 613.907 905.539C593.274 903.762 570.167 901.685 545.796 899.327C541.677 898.945 537.524 898.546 533.337 898.131C532.241 898.015 343.374 850.544 343.374 841.641V78.5245C343.374 39.2758 375.186 7.46814 414.441 7.46814H456.868C463.646 7.46814 469.095 12.75 469.677 19.5102C469.726 19.9587 469.776 20.4071 469.859 20.8556C471.089 27.649 477.318 32.3827 484.229 32.3827H633.359C640.27 32.3827 646.5 27.649 647.729 20.8556C647.812 20.4071 647.862 19.9587 647.912 19.5102C648.493 12.75 653.942 7.46814 660.72 7.46814H703.147C742.402 7.46814 774.214 39.2758 774.214 78.5245H774.214Z" fill="white"/>
<path d="M334.238 200.978C332.405 200.978 330.915 202.468 330.915 204.3V230.875C330.915 232.707 332.405 234.197 334.238 234.197C336.07 234.197 337.56 232.707 337.56 230.875V204.3C337.56 202.468 336.07 200.978 334.238 200.978Z" fill="#3F3D56"/>
<path d="M334.238 280.704C332.405 280.704 330.915 282.194 330.915 284.026V335.516C330.915 337.349 332.405 338.838 334.238 338.838C336.07 338.838 337.56 337.349 337.56 335.516V284.026C337.56 282.194 336.07 280.704 334.238 280.704V280.704Z" fill="#3F3D56"/>
<path d="M334.238 353.787C332.405 353.787 330.915 355.277 330.915 357.109V408.599C330.915 410.431 332.405 411.921 334.238 411.921C336.07 411.921 337.56 410.431 337.56 408.599V357.109C337.56 355.277 336.07 353.787 334.238 353.787Z" fill="#3F3D56"/>
<path d="M455.779 19.1014H392.109C391.801 19.1014 391.55 19.3515 391.55 19.66V26.8477C391.55 27.1562 391.801 27.4063 392.109 27.4063H455.779C456.088 27.4063 456.338 27.1562 456.338 26.8477V19.66C456.338 19.3515 456.088 19.1014 455.779 19.1014Z" fill="#E6E6E6"/>
<path d="M671.219 27.4063C674.888 27.4063 677.863 24.4317 677.863 20.7624C677.863 17.0931 674.888 14.1185 671.219 14.1185C667.549 14.1185 664.574 17.0931 664.574 20.7624C664.574 24.4317 667.549 27.4063 671.219 27.4063Z" fill="#E6E6E6"/>
<path d="M689.494 27.4063C693.164 27.4063 696.139 24.4317 696.139 20.7624C696.139 17.0931 693.164 14.1185 689.494 14.1185C685.824 14.1185 682.849 17.0931 682.849 20.7624C682.849 24.4317 685.824 27.4063 689.494 27.4063Z" fill="#E6E6E6"/>
<path d="M707.766 27.4063C711.435 27.4063 714.41 24.4317 714.41 20.7624C714.41 17.0931 711.435 14.1185 707.766 14.1185C704.096 14.1185 701.121 17.0931 701.121 20.7624C701.121 24.4317 704.096 27.4063 707.766 27.4063Z" fill="#E6E6E6"/>
<path d="M25.781 920.359C25.781 921.548 26.7356 922.502 27.9243 922.502H1015.39C1016.58 922.502 1017.53 921.548 1017.53 920.359C1017.53 919.171 1016.58 918.217 1015.39 918.217H27.9243C26.7356 918.217 25.781 919.171 25.781 920.359Z" fill="#CCCCCC"/>
<path d="M340.628 906.285L320.378 906.283L310.745 828.188L340.632 828.19L340.628 906.285Z" fill="#FFB6B6"/>
<path d="M271.248 905.826C270.618 906.888 270.285 910.315 270.285 911.549C270.285 915.344 273.362 918.421 277.158 918.421H339.869C342.459 918.421 344.558 916.322 344.558 913.733V911.123C344.558 911.123 347.66 903.277 341.273 893.606C341.273 893.606 333.335 901.178 321.473 889.318L317.975 882.983L292.655 901.498L278.62 903.225C275.55 903.603 272.828 903.166 271.248 905.826H271.248V905.826H271.248Z" fill="#2F2E41"/>
<path d="M228.642 797.813L208.392 797.747L199.007 719.621L228.894 719.718L228.642 797.813Z" fill="#FFB6B6"/>
<path d="M159.265 797.134C158.631 798.193 158.287 801.619 158.283 802.854C158.271 806.649 161.339 809.736 165.134 809.748L227.846 809.947C230.435 809.955 232.541 807.863 232.549 805.273L232.557 802.663C232.557 802.663 235.685 794.827 229.328 785.136C229.328 785.136 221.366 792.683 209.542 780.786L206.064 774.439L180.685 792.873L166.645 794.556C163.574 794.924 160.853 794.479 159.265 797.134H159.265V797.134Z" fill="#2F2E41"/>
<path d="M311.094 432.173L285.88 433.974C285.88 433.974 200.521 482.499 193.317 493.303C186.114 504.107 176.208 519.413 185.213 535.62C194.218 551.826 187.364 748.056 187.364 748.056L230.395 738.323L257.965 533.013L315.597 524.91C315.597 524.91 335.408 567.645 328.204 603C321 638.356 317.398 659.964 317.398 659.964L308.393 868.848L343.512 867.947L375.03 674.37L429.059 521.309L358.821 438.475L311.094 432.173Z" fill="#2F2E41"/>
<path d="M429.169 193.292L376.94 198.695L371.537 216.702L321.11 243.713L337.318 357.158L324.712 376.966L330.115 396.774C330.115 396.774 315.707 398.575 317.508 409.379L285.09 414.781C285.09 414.781 328.087 423.558 337.205 466.888C346.323 510.219 421.965 515.621 421.965 515.621L481.398 330.147L486.801 220.303L445.378 209.499L429.169 193.292Z" fill="#8B84FF"/>
<path d="M407.836 203.851C430.26 203.851 448.438 185.676 448.438 163.256C448.438 140.836 430.26 122.66 407.836 122.66C385.413 122.66 367.235 140.836 367.235 163.256C367.235 185.676 385.413 203.851 407.836 203.851Z" fill="#FFB6B6"/>
<path d="M386.735 199.88C386.735 199.88 350.715 198.079 354.317 169.268C345.402 138.587 353.293 118.666 381.332 111.645C381.332 111.645 388.536 109.844 390.337 109.844C414.026 109.844 426.357 117.047 426.357 117.047C426.357 117.047 424.556 109.915 426.357 111.68C428.158 113.445 429.959 117.047 429.959 117.047C429.959 117.047 447.969 126.05 447.969 144.058C447.969 162.065 447.969 154.862 447.969 154.862C447.969 154.862 444.367 154.862 440.765 144.058C437.163 133.253 413.842 140.456 413.842 140.456L415.551 144.058L410.148 142.257L404.745 147.659L401.143 145.858C401.143 145.858 386.735 145.858 388.536 145.858C390.337 145.858 389.082 158.096 389.082 158.096L375.929 172.869L390.337 199.88H386.735Z" fill="#2F2E41"/>
<path d="M194.833 414.803C184.579 420.399 179.154 430.223 182.715 436.747C186.276 443.271 197.475 444.024 207.729 438.429C212.217 435.98 215.78 432.72 218.069 429.281L261.22 405.028L249.405 385.024L208.121 411.056C203.99 411.121 199.321 412.354 194.833 414.803H194.833Z" fill="#FFB6B6"/>
<path d="M340.348 261.945C340.348 261.945 323.433 255.506 317.605 263.257C311.777 271.008 273.277 365.06 273.277 365.06L216.791 394.556L232.676 422.213L305.413 398L353.403 310.245L340.348 261.945Z" fill="#8B84FF"/>
<path d="M873.752 570.825V761.701C873.752 778.581 860.017 792.313 843.135 792.313H371.275C354.392 792.313 340.658 778.581 340.658 761.701V570.825C340.658 553.945 354.392 540.212 371.275 540.212H843.135C860.017 540.212 873.752 553.945 873.752 570.825Z" fill="white"/>
<path d="M873.752 570.825V761.701C873.752 778.581 860.017 792.313 843.135 792.313H371.275C354.392 792.313 340.658 778.581 340.658 761.701V570.825C340.658 553.945 354.392 540.212 371.275 540.212H843.135C860.017 540.212 873.752 553.945 873.752 570.825ZM843.135 788.712C858.055 788.712 870.15 776.619 870.15 761.701V665.469C870.15 598.281 815.675 543.814 748.476 543.814H371.275C356.355 543.814 344.26 555.907 344.26 570.825V761.701C344.26 776.619 356.355 788.712 371.275 788.712H843.135Z" fill="#3F3D56"/>
<path d="M552.475 655.533H490.844C489.29 655.533 488.026 656.797 488.026 658.35C488.026 659.904 489.29 661.168 490.844 661.168H552.475C554.029 661.168 555.292 659.904 555.292 658.35C555.292 656.797 554.029 655.533 552.475 655.533Z" fill="#6C63FF"/>
<path d="M646.126 655.533H584.495C582.941 655.533 581.677 656.797 581.677 658.35C581.677 659.904 582.941 661.168 584.495 661.168H646.126C647.68 661.168 648.944 659.904 648.944 658.35C648.944 656.797 647.68 655.533 646.126 655.533Z" fill="#6C63FF"/>
<path d="M552.475 686.337H490.844C489.29 686.337 488.026 687.6 488.026 689.154C488.026 690.707 489.29 691.971 490.844 691.971H552.475C554.029 691.971 555.292 690.707 555.292 689.154C555.292 687.6 554.029 686.337 552.475 686.337Z" fill="#6C63FF"/>
<path d="M646.126 686.337H584.495C582.941 686.337 581.677 687.6 581.677 689.154C581.677 690.707 582.941 691.971 584.495 691.971H646.126C647.68 691.971 648.944 690.707 648.944 689.154C648.944 687.6 647.68 686.337 646.126 686.337Z" fill="#6C63FF"/>
<path d="M742.597 689.154C742.597 687.6 741.333 686.337 739.779 686.337H678.148C676.595 686.337 675.33 687.6 675.33 689.154C675.33 690.707 676.595 691.971 678.148 691.971H739.779C741.333 691.971 742.597 690.707 742.597 689.154Z" fill="#6C63FF"/>
<path d="M516.455 630.938C518.009 630.938 519.273 629.674 519.273 628.12C519.273 626.567 518.009 625.303 516.455 625.303H454.824C453.27 625.303 452.006 626.567 452.006 628.12C452.006 629.674 453.27 630.938 454.824 630.938H516.455Z" fill="#6C63FF"/>
<path d="M697.958 629.792H759.589C761.143 629.792 762.406 628.528 762.406 626.974C762.406 625.421 761.143 624.157 759.589 624.157H697.958C696.404 624.157 695.14 625.421 695.14 626.974C695.14 628.528 696.404 629.792 697.958 629.792Z" fill="#6C63FF"/>
<path d="M542.419 630.384H670.194C671.747 630.384 673.011 629.12 673.011 627.567C673.011 626.013 671.747 624.75 670.194 624.75H542.419C540.865 624.75 539.601 626.013 539.601 627.567C539.601 629.12 540.865 630.384 542.419 630.384Z" fill="#6C63FF"/>
<path d="M592.691 714.323H531.06C529.506 714.323 528.242 715.586 528.242 717.14C528.242 718.693 529.506 719.957 531.06 719.957H592.691C594.245 719.957 595.508 718.693 595.508 717.14C595.508 715.586 594.245 714.323 592.691 714.323Z" fill="#6C63FF"/>
<path d="M791.739 569.386V760.262C791.739 777.142 778.004 790.874 761.122 790.874H570.217C553.334 790.874 539.6 777.142 539.6 760.262V569.386C539.6 552.506 553.334 538.773 570.217 538.773H761.122C778.004 538.773 791.739 552.506 791.739 569.386Z" fill="white"/>
<path d="M791.739 569.386V760.262C791.739 777.142 778.004 790.874 761.122 790.874H570.217C553.334 790.874 539.6 777.142 539.6 760.262V569.386C539.6 552.506 553.334 538.773 570.217 538.773H761.122C778.004 538.773 791.739 552.506 791.739 569.386ZM749.279 787.273C770.739 787.273 788.137 769.878 788.137 748.421V664.03C788.137 596.842 733.662 542.375 666.464 542.375H570.217C555.297 542.375 543.202 554.468 543.202 569.386V733.63C543.202 763.256 567.222 787.273 596.852 787.273H749.279V787.273H749.279Z" fill="#3F3D56"/>
<path d="M691.082 616.73H629.451C627.897 616.73 626.633 615.466 626.633 613.913C626.633 612.359 627.897 611.096 629.451 611.096H691.082C692.636 611.096 693.899 612.359 693.899 613.913C693.899 615.466 692.636 616.73 691.082 616.73V616.73Z" fill="#6C63FF"/>
<path d="M691.082 676.809H629.451C627.897 676.809 626.633 675.545 626.633 673.991C626.633 672.438 627.897 671.174 629.451 671.174H691.082C692.636 671.174 693.899 672.438 693.899 673.991C693.899 675.545 692.636 676.809 691.082 676.809V676.809Z" fill="#6C63FF"/>
<path d="M660.466 759.642H598.835C597.281 759.642 596.017 758.378 596.017 756.825C596.017 755.271 597.281 754.008 598.835 754.008H660.466C662.02 754.008 663.284 755.271 663.284 756.825C663.284 758.378 662.02 759.642 660.466 759.642V759.642Z" fill="#6C63FF"/>
<path d="M724.155 646.789H596.38C594.826 646.789 593.562 645.525 593.562 643.972C593.562 642.418 594.826 641.155 596.38 641.155H724.155C725.709 641.155 726.972 642.418 726.972 643.972C726.972 645.525 725.709 646.789 724.155 646.789V646.789Z" fill="#6C63FF"/>
<path d="M755.822 463.616C755.822 404.072 705.487 371.316 647.99 355.801C574.274 335.91 520.286 376.16 540.159 463.616C544.663 483.437 555.435 506.587 568.77 526.39H674.585C709.932 503.382 755.822 509.834 755.822 463.616H755.822Z" fill="#6C63FF"/>
<path d="M646.406 576.179C652.425 564.706 660.056 556.429 668.465 550.128H569.356C594.864 586.56 628.693 609.942 646.406 576.179Z" fill="#6C63FF"/>
<path d="M634.969 399.872C641.332 399.872 646.49 405.029 646.49 411.391V434.428H623.449V411.391C623.449 405.029 628.607 399.872 634.969 399.872ZM652.25 434.428V411.391C652.25 401.848 644.513 394.112 634.969 394.112C625.425 394.112 617.688 401.848 617.688 411.391V434.428C611.326 434.428 606.168 439.586 606.168 445.947V474.744C606.168 481.106 611.326 486.263 617.688 486.263H652.25C658.613 486.263 663.771 481.106 663.771 474.744V445.947C663.771 439.586 658.613 434.428 652.25 434.428H652.25ZM617.688 440.188H652.25C655.431 440.188 658.01 442.766 658.01 445.947V474.744C658.01 477.925 655.431 480.504 652.25 480.504H617.688C614.507 480.504 611.928 477.925 611.928 474.744V445.947C611.928 442.766 614.507 440.188 617.688 440.188Z" fill="white"/>
<path d="M470.33 533.992C468.941 545.588 473.798 555.706 481.179 556.59C488.56 557.474 495.67 548.789 497.059 537.192C497.667 532.116 497.078 527.323 495.604 523.464L500.873 474.252L477.723 472.271L474.986 520.995C472.643 524.397 470.938 528.915 470.33 533.992Z" fill="#FFB6B6"/>
<path d="M475.884 240.396C475.884 240.396 501.098 233.193 506.501 243.998C511.904 254.802 524.511 397.059 524.511 397.059L500.197 510.611L472.282 503.301L486.69 388.055L466.879 301.621L475.884 240.396Z" fill="#8B84FF"/>
<path d="M105.358 585.846C163.546 585.846 210.716 538.683 210.716 480.504C210.716 422.325 163.546 375.162 105.358 375.162C47.1704 375.162 0 422.325 0 480.504C0 538.683 47.1704 585.846 105.358 585.846Z" fill="#6C63FF"/>
<path d="M105.357 433.345C112.8 433.345 118.833 439.377 118.833 446.819V473.767H91.8809V446.819C91.8809 439.377 97.9144 433.345 105.357 433.345ZM125.571 473.767V446.819C125.571 435.656 116.521 426.608 105.357 426.608C94.193 426.608 85.1429 435.656 85.1429 446.819V473.767C77.7003 473.767 71.6669 479.799 71.6669 487.241V520.926C71.6669 528.367 77.7003 534.4 85.1429 534.4H125.571C133.014 534.4 139.047 528.367 139.047 520.926V487.241C139.047 479.799 133.014 473.767 125.571 473.767H125.571ZM85.1429 480.504H125.571C129.292 480.504 132.309 483.52 132.309 487.241V520.926C132.309 524.646 129.292 527.663 125.571 527.663H85.1429C81.4216 527.663 78.4049 524.646 78.4049 520.926V487.241C78.4049 483.52 81.4216 480.504 85.1429 480.504Z" fill="white"/>
<path d="M128.798 474.839C121.278 470.637 127.283 481.887 128.311 484.759C131.405 493.407 129.044 486.807 128.961 486.548C126.191 477.869 127.556 481.804 124.408 471.75C123.002 467.261 117.551 452.528 122.781 467.522C125.036 473.985 127.587 480.307 130.262 486.548" stroke="#6C63FF" stroke-width="3" stroke-linecap="round"/>
<path d="M140.506 479.23C136.542 476.965 130.154 471.884 125.057 473.213C119.885 474.563 119.015 485.014 123.025 487.93C128.578 491.969 114.948 446.799 108.633 455.325C105.805 459.142 109.167 467.325 113.105 469.066C125.763 474.665 118.238 448.495 116.357 445.405C98.9995 416.889 96.6877 472.09 109.934 464.269C116.165 460.59 116.336 449.756 113.349 444.267C107.594 433.695 91.7892 433.298 82.6946 439.144C62.9548 451.834 63.3424 483.195 78.873 498.582C79.8787 499.578 87.2291 506.423 87.3293 500.208C87.5698 485.296 77.7845 470.816 75.1327 456.301C74.6808 453.827 74.0515 443.572 80.6618 446.543C93.1319 452.149 96.7953 474.634 98.7128 486.06C99.7718 492.371 102.144 510.973 99.2819 505.25C96.5898 499.865 97.1791 493.394 96.2735 487.443C94.3452 474.771 93.243 467.253 91.0696 454.756C89.6546 446.62 88.8624 436.058 87.8172 450.121C86.6547 465.761 86.2984 471.836 81.9628 487.849C53.9503 591.311 92.1896 443.587 69.6036 522.487C66.6112 532.941 74.0297 530.877 80.8245 528.748C84.9763 527.448 96.1728 523.457 92.0453 522.081C85.0096 519.736 104.039 530.903 109.283 536.148C128.959 555.824 135.414 520.24 135.953 506.225C136.063 503.368 135.828 469.529 132.05 485.898C130.07 494.478 128.369 543.905 113.511 541.677C101.054 539.808 93.8736 526.292 98.0623 515.82" stroke="#6C63FF" stroke-width="31" stroke-linecap="round"/>
<path d="M629.345 404.587C618.033 411.271 618.431 434.229 620.889 445.08C622.342 451.496 634.734 460.149 640.078 452.073C646.77 441.96 637.524 420.148 632.76 411.092C630.945 407.641 624.681 401.49 623.979 397.513C623.767 396.312 643.267 413.892 643.575 414.263C653.269 425.96 657.947 436.01 661.463 450.365C664.064 460.985 663.104 464.903 651.624 467.522C638.031 470.622 624.356 472.863 611.782 479.23C602.89 483.733 595.563 492.148 611.62 491.833C628.75 491.497 645.151 485.649 661.951 482.971C662.033 482.957 672.543 481.909 672.765 481.019C672.902 480.47 671.696 480.628 671.139 480.531C656.14 477.923 677.476 482.437 654.47 477.929C634.587 474.033 607.862 467.201 599.667 445.893C597.6 440.519 597.831 434.64 603.814 431.907C613.919 427.293 625.8 433.343 631.785 441.665C634.337 445.215 641.171 459.565 630.971 460.285C620.135 461.05 608.246 448.389 602.838 440.526C588.587 419.807 630.479 429.541 617.718 441.665C607.601 451.276 627.845 413.504 639.59 405.969C648.14 400.485 661.237 414.382 667.399 419.223" stroke="#6C63FF" stroke-width="31" stroke-linecap="round"/>
<path d="M633.737 395.806H639.592" stroke="#6C63FF" stroke-width="31" stroke-linecap="round"/>
<path d="M114.162 473.376C114.102 474.33 114.73 486.789 110.259 485.491C106.003 484.256 104.746 473.728 106.437 476.628C107.888 479.115 107.003 485.388 109.771 484.597C110.919 484.269 109.709 482.209 109.609 481.019C109.248 476.76 108.713 472.516 108.389 468.253C107.785 460.317 101.658 426.688 115.219 424.02C127.869 421.532 128.665 440.423 124.407 438.412C120.739 436.68 114.113 424.851 124.407 433.859" stroke="#6C63FF" stroke-width="31" stroke-linecap="round"/>
<rect x="138.06" y="444.766" width="11.6363" height="99.5553" rx="5.81816" transform="rotate(51.5247 138.06 444.766)" fill="#D9D9D9"/>
<rect x="71.7578" y="443.082" width="11.6363" height="99.5553" rx="5.81816" transform="rotate(-35.2705 71.7578 443.082)" fill="#D9D9D9"/>
<rect x="670.745" y="412.443" width="11.6363" height="99.5553" rx="5.81816" transform="rotate(51.5247 670.745 412.443)" fill="#D9D9D9"/>
<rect x="604.443" y="410.758" width="11.6363" height="99.5553" rx="5.81816" transform="rotate(-35.2705 604.443 410.758)" fill="#D9D9D9"/>
</svg>
